STARTFONT 2.1
FONT -Adobe-Helvetica-Bold-O-Normal--24-240-75-75-P-138-ISO10646-1
SIZE 24 75 75
FONTBOUNDINGBOX 29 37 -1 -8
COMMENT $Xorg: $
COMMENT ISO10646-1 extension by Markus Kuhn <mkuhn@acm.org>, 2001-03-20
COMMENT 
COMMENT +
COMMENT  Copyright 1984-1989, 1994 Adobe Systems Incorporated.
COMMENT  Copyright 1988, 1994 Digital Equipment Corporation.
COMMENT
COMMENT  Adobe is a trademark of Adobe Systems Incorporated which may be
COMMENT  registered in certain jurisdictions.
COMMENT  Permission to use these trademarks is hereby granted only in
COMMENT  association with the images described in this file.
COMMENT
COMMENT  Permission to use, copy, modify, distribute and sell this software
COMMENT  and its documentation for any purpose and without fee is hereby
COMMENT  granted, provided that the above copyright notices appear in all
COMMENT  copies and that both those copyright notices and this permission
COMMENT  notice appear in supporting documentation, and that the names of
COMMENT  Adobe Systems and Digital Equipment Corporation not be used in
COMMENT  advertising or publicity pertaining to distribution of the software
COMMENT  without specific, written prior permission.  Adobe Systems and
COMMENT  Digital Equipment Corporation make no representations about the
COMMENT  suitability of this software for any purpose.  It is provided "as
COMMENT  is" without express or implied warranty.
COMMENT -
STARTPROPERTIES 26
FOUNDRY "Adobe"
FAMILY_NAME "Helvetica"
WEIGHT_NAME "Bold"
SLANT "O"
SETWIDTH_NAME "Normal"
ADD_STYLE_NAME ""
PIXEL_SIZE 24
POINT_SIZE 240
RESOLUTION_X 75
RESOLUTION_Y 75
SPACING "P"
AVERAGE_WIDTH 138
CHARSET_REGISTRY "ISO10646"
CHARSET_ENCODING "1"
CAP_HEIGHT 19
X_HEIGHT 14
FONT_ASCENT 22
FONT_DESCENT 5
FACE_NAME "Helvetica Bold Oblique"
COPYRIGHT "Copyright (c) 1984, 1987 Adobe Systems Incorporated. All Rights Reserved. Copyright (c) 1988, 1991 Digital Equipment Corporation. All Rights Reserved."

STARTCHAR char0
ENCODING 0
SWIDTH 722 0
DWIDTH 19 0
BBX 19 19 2 0
BITMAP
AAAAA0
000000
800020
000000
800020
000000
800020
000000
800020
000000
800020
000000
800020
000000
800020
000000
800020
000000
AAAAA0
ENDCHAR
STARTCHAR space
ENCODING 32
SWIDTH 278 0
DWIDTH 6 0
BBX 1 1 0 0
BITMAP
00
ENDCHAR
STARTCHAR exclam
ENCODING 33
SWIDTH 333 0
DWIDTH 8 0
BBX 8 19 2 0
BITMAP
07
07
07
0E
0E
0E
1C
1C
1C
18
18
38
30
30
00
00
E0
E0
E0
ENDCHAR
STARTCHAR quotedbl
ENCODING 34
SWIDTH 474 0
DWIDTH 9 0
BBX 7 5 5 14
BITMAP
66
66
EE
CC
88
ENDCHAR
STARTCHAR numbersign
ENCODING 35
SWIDTH 556 0
DWIDTH 14 0
BBX 14 18 1 0
BITMAP
0198
0198
0198
0330
0330
1FFC
1FFC
0660
0CC0
0CC0
1980
FFE0
FFE0
3300
3300
6600
6600
6600
ENDCHAR
STARTCHAR dollar
ENCODING 36
SWIDTH 556 0
DWIDTH 13 0
BBX 14 21 1 -2
BITMAP
0060
0060
07F0
1FF8
1CDC
38DC
3980
3D80
1F80
0F80
07C0
03E0
06F0
0670
0670
ECF0
EDE0
FFC0
7F80
1800
1800
ENDCHAR
STARTCHAR percent
ENCODING 37
SWIDTH 889 0
DWIDTH 22 0
BBX 16 17 4 0
BITMAP
1E07
3F0E
731C
E338
C770
CE60
FCE0
79C0
0380
071E
073F
0E73
1CE3
38C7
70CE
E0FC
0078
ENDCHAR
STARTCHAR ampersand
ENCODING 38
SWIDTH 722 0
DWIDTH 18 0
BBX 15 18 2 0
BITMAP
01E0
07F0
0738
0E38
0E38
0E70
07E0
07C0
0F80
1F9C
39DC
70F8
E070
E070
E0F0
F1F8
7FDC
3F0E
ENDCHAR
STARTCHAR quotesingle
ENCODING 39
SWIDTH 238 0
DWIDTH 6 0
BBX 3 5 5 14
BITMAP
60
60
E0
C0
80
ENDCHAR
STARTCHAR parenleft
ENCODING 40
SWIDTH 333 0
DWIDTH 8 0
BBX 10 24 2 -5
BITMAP
01C0
0380
0700
0E00
1C00
1800
3800
3000
7000
7000
E000
E000
E000
E000
E000
E000
E000
E000
E000
E000
7000
7000
3800
1C00
ENDCHAR
STARTCHAR parenright
ENCODING 41
SWIDTH 333 0
DWIDTH 8 0
BBX 10 24 0 -5
BITMAP
0E00
0700
0380
0380
01C0
01C0
01C0
01C0
01C0
01C0
01C0
01C0
01C0
01C0
0380
0380
0300
0700
0600
0E00
1C00
3800
7000
E000
ENDCHAR
STARTCHAR asterisk
ENCODING 42
SWIDTH 389 0
DWIDTH 10 0
BBX 8 7 5 12
BITMAP
18
DB
FF
3C
78
EC
CC
ENDCHAR
STARTCHAR plus
ENCODING 43
SWIDTH 584 0
DWIDTH 15 0
BBX 10 12 4 1
BITMAP
0700
0700
0600
0E00
0E00
FFC0
FFC0
1C00
1C00
1800
3800
3800
ENDCHAR
STARTCHAR comma
ENCODING 44
SWIDTH 278 0
DWIDTH 7 0
BBX 4 6 1 -3
BITMAP
70
70
70
30
60
C0
ENDCHAR
STARTCHAR hyphen
ENCODING 45
SWIDTH 333 0
DWIDTH 10 0
BBX 8 2 2 6
BITMAP
FF
FF
ENDCHAR
STARTCHAR period
ENCODING 46
SWIDTH 278 0
DWIDTH 7 0
BBX 3 3 2 0
BITMAP
E0
E0
E0
ENDCHAR
STARTCHAR slash
ENCODING 47
SWIDTH 278 0
DWIDTH 8 0
BBX 11 19 1 0
BITMAP
0060
0060
00C0
00C0
0180
0180
0300
0600
0600
0C00
0C00
1800
1800
3000
3000
6000
6000
C000
C000
ENDCHAR
STARTCHAR zero
ENCODING 48
SWIDTH 556 0
DWIDTH 13 0
BBX 14 18 1 0
BITMAP
03F0
07F8
0F3C
1C1C
1C1C
381C
381C
7038
7038
7038
E038
E070
E070
E0E0
E0E0
73C0
7F80
3F00
ENDCHAR
STARTCHAR one
ENCODING 49
SWIDTH 556 0
DWIDTH 13 0
BBX 7 18 6 0
BITMAP
0E
0E
1E
FC
FC
1C
1C
38
38
38
38
70
70
70
70
E0
E0
E0
ENDCHAR
STARTCHAR two
ENCODING 50
SWIDTH 556 0
DWIDTH 13 0
BBX 15 18 0 0
BITMAP
01F8
07FC
0F1E
1E0E
1C0E
000E
001C
003C
00F8
03E0
0780
0F00
1C00
3800
7000
E000
FFF0
FFF0
ENDCHAR
STARTCHAR three
ENCODING 51
SWIDTH 556 0
DWIDTH 13 0
BBX 13 18 1 0
BITMAP
07E0
0FF0
1C78
3838
3838
3838
0070
00E0
03C0
03E0
00E0
0070
0070
0070
E0F0
F1E0
7FC0
3F00
ENDCHAR
STARTCHAR four
ENCODING 52
SWIDTH 556 0
DWIDTH 13 0
BBX 13 18 1 0
BITMAP
0038
0078
00F8
01F0
03F0
0770
0E70
1C60
38E0
30E0
70E0
E1C0
FFF0
FFF0
01C0
0380
0380
0380
ENDCHAR
STARTCHAR five
ENCODING 53
SWIDTH 556 0
DWIDTH 13 0
BBX 14 18 1 0
BITMAP
0FFC
0FFC
0E00
1C00
1C00
1C00
3FC0
3FE0
38F0
0070
0070
0070
0070
E0F0
E0E0
F3C0
7F80
3F00
ENDCHAR
STARTCHAR six
ENCODING 54
SWIDTH 556 0
DWIDTH 13 0
BBX 14 18 2 0
BITMAP
01F0
07F8
0F3C
1C1C
3800
3800
7000
77C0
7FE0
78F0
F070
E070
E070
E0E0
E1E0
73C0
7F80
3E00
ENDCHAR
STARTCHAR seven
ENCODING 55
SWIDTH 556 0
DWIDTH 13 0
BBX 14 18 2 0
BITMAP
3FFC
3FFC
0038
0070
00E0
01C0
01C0
0380
0700
0700
0E00
1C00
1C00
3800
7000
7000
E000
E000
ENDCHAR
STARTCHAR eight
ENCODING 56
SWIDTH 556 0
DWIDTH 13 0
BBX 13 18 1 0
BITMAP
03E0
07F0
0E78
1C38
1C38
1C38
1E70
0FE0
0FC0
3FE0
78F0
7070
E070
E070
E0E0
71E0
7FC0
1F80
ENDCHAR
STARTCHAR nine
ENCODING 57
SWIDTH 556 0
DWIDTH 13 0
BBX 14 18 1 0
BITMAP
03F0
07F8
0F3C
1C1C
1C1C
381C
383C
3838
3878
3CF8
1FF8
0FF0
0070
00E0
E0E0
F3C0
7F80
3F00
ENDCHAR
STARTCHAR colon
ENCODING 58
SWIDTH 333 0
DWIDTH 8 0
BBX 6 14 3 0
BITMAP
1C
1C
1C
00
00
00
00
00
00
00
00
E0
E0
E0
ENDCHAR
STARTCHAR semicolon
ENCODING 59
SWIDTH 333 0
DWIDTH 8 0
BBX 7 17 2 -3
BITMAP
0E
0E
0E
00
00
00
00
00
00
00
00
70
70
70
30
60
C0
ENDCHAR
STARTCHAR less
ENCODING 60
SWIDTH 584 0
DWIDTH 15 0
BBX 14 11 3 2
BITMAP
001C
0078
01E0
0780
1E00
7800
E000
7800
1E00
0780
01C0
ENDCHAR
STARTCHAR equal
ENCODING 61
SWIDTH 584 0
DWIDTH 14 0
BBX 11 6 3 4
BITMAP
7FE0
7FE0
0000
0000
FFC0
FFC0
ENDCHAR
STARTCHAR greater
ENCODING 62
SWIDTH 584 0
DWIDTH 15 0
BBX 14 11 0 2
BITMAP
0E00
0780
01E0
0078
001C
0078
01E0
0780
1E00
7800
E000
ENDCHAR
STARTCHAR question
ENCODING 63
SWIDTH 611 0
DWIDTH 15 0
BBX 12 19 5 0
BITMAP
0FC0
3FE0
78F0
7070
E070
E0F0
01E0
07C0
0F00
1C00
3800
7000
7000
7000
0000
0000
7000
7000
7000
ENDCHAR
STARTCHAR at
ENCODING 64
SWIDTH 975 0
DWIDTH 24 0
BBX 23 23 2 -4
BITMAP
003FC0
00FFF0
03E078
07801C
0F000C
1E1CCE
1C7FCE
38E78E
71C38E
73830E
E3870E
E7061C
E70E1C
E70C38
E71C38
E39E70
E3FFE0
71E3C0
700000
780000
3E1C00
0FFC00
03F000
ENDCHAR
STARTCHAR A
ENCODING 65
SWIDTH 722 0
DWIDTH 18 0
BBX 16 19 1 0
BITMAP
001C
003C
007C
007C
00EE
01CE
01CE
038E
070E
070E
0E0E
0E0E
1FFE
3FFF
3807
7007
7007
E007
E007
ENDCHAR
STARTCHAR B
ENCODING 66
SWIDTH 722 0
DWIDTH 18 0
BBX 17 19 2 0
BITMAP
0FFE00
0FFF00
0E0780
0E0380
1C0380
1C0380
1C0780
1C0F00
3FFE00
3FFE00
380700
380700
700700
700700
700F00
E01E00
E07C00
FFF800
FFE000
ENDCHAR
STARTCHAR C
ENCODING 67
SWIDTH 722 0
DWIDTH 18 0
BBX 16 19 3 0
BITMAP
01FC
07FE
0F8F
1E07
3807
7800
7000
F000
E000
E000
E000
E000
E000
E00E
F01E
703C
78F8
3FF0
1FC0
ENDCHAR
STARTCHAR D
ENCODING 68
SWIDTH 722 0
DWIDTH 19 0
BBX 18 19 2 0
BITMAP
0FFC00
0FFF00
0E0F80
0E0380
1C01C0
1C01C0
1C01C0
1C01C0
3801C0
3801C0
3801C0
380380
700380
700780
700F00
701E00
E07C00
FFF800
FFE000
ENDCHAR
STARTCHAR E
ENCODING 69
SWIDTH 667 0
DWIDTH 16 0
BBX 16 19 2 0
BITMAP
0FFF
0FFF
0E00
0E00
1C00
1C00
1C00
1C00
3FF8
3FF8
3800
3800
7000
7000
7000
7000
E000
FFF8
FFF8
ENDCHAR
STARTCHAR F
ENCODING 70
SWIDTH 611 0
DWIDTH 15 0
BBX 16 19 2 0
BITMAP
0FFF
0FFF
0E00
0E00
1C00
1C00
1C00
1C00
3FF8
3FF8
3800
3800
7000
7000
7000
7000
E000
E000
E000
ENDCHAR
STARTCHAR G
ENCODING 71
SWIDTH 778 0
DWIDTH 19 0
BBX 17 19 3 0
BITMAP
01FC00
07FE00
0F8F00
1E0700
380700
780000
700000
F00000
E00000
E07F80
E07F80
E00700
E00700
E00F00
F00E00
701E00
787E00
3FFC00
1FCC00
ENDCHAR
STARTCHAR H
ENCODING 72
SWIDTH 722 0
DWIDTH 19 0
BBX 19 19 2 0
BITMAP
0E00E0
0E00E0
0E00E0
0E00E0
1C01C0
1C01C0
1C01C0
1C01C0
3FFF80
3FFF80
380380
380380
700700
700700
700700
700700
E00E00
E00E00
E00E00
ENDCHAR
STARTCHAR I
ENCODING 73
SWIDTH 278 0
DWIDTH 7 0
BBX 7 19 2 0
BITMAP
0E
0E
0E
0E
1C
1C
1C
1C
38
38
38
38
70
70
70
70
E0
E0
E0
ENDCHAR
STARTCHAR J
ENCODING 74
SWIDTH 556 0
DWIDTH 14 0
BBX 14 19 2 0
BITMAP
001C
001C
001C
001C
0038
0038
0038
0038
0070
0070
0070
0070
00E0
E0E0
E1E0
E1C0
E3C0
FF80
7F00
ENDCHAR
STARTCHAR K
ENCODING 75
SWIDTH 722 0
DWIDTH 18 0
BBX 18 19 2 0
BITMAP
0E03C0
0E0780
0E0F00
0E1E00
1C3800
1CF000
1DE000
1FC000
3F8000
3FC000
39E000
38E000
707000
707800
703C00
701C00
E00E00
E00F00
E00700
ENDCHAR
STARTCHAR L
ENCODING 76
SWIDTH 611 0
DWIDTH 15 0
BBX 12 19 2 0
BITMAP
0E00
0E00
0E00
0E00
1C00
1C00
1C00
1C00
3800
3800
3800
3800
7000
7000
7000
7000
E000
FFF0
FFF0
ENDCHAR
STARTCHAR M
ENCODING 77
SWIDTH 833 0
DWIDTH 23 0
BBX 23 19 2 0
BITMAP
0E000E
0E001E
0F003E
0F003E
1F007C
1F80FC
1F81DC
1D81DC
3983B8
39C738
39C738
39CE38
71DC70
71DC70
70F870
70F070
E0F0E0
E0E0E0
E0E0E0
ENDCHAR
STARTCHAR N
ENCODING 78
SWIDTH 722 0
DWIDTH 19 0
BBX 19 19 2 0
BITMAP
0E00E0
0E00E0
0F00E0
0F00E0
1F81C0
1D81C0
1DC1C0
19C1C0
39C380
38E380
38E380
386380
707300
707700
703700
703F00
E01E00
E01E00
E00E00
ENDCHAR
STARTCHAR O
ENCODING 79
SWIDTH 778 0
DWIDTH 19 0
BBX 17 19 3 0
BITMAP
01FC00
07FE00
0F8F00
1E0700
380780
780380
700380
F00380
E00380
E00380
E00380
E00780
E00700
E00F00
F01E00
703C00
78F800
3FF000
1FC000
ENDCHAR
STARTCHAR P
ENCODING 80
SWIDTH 667 0
DWIDTH 17 0
BBX 17 19 2 0
BITMAP
0FFE00
0FFF00
0E0780
0E0380
1C0380
1C0380
1C0700
1C0F00
3FFE00
3FF800
380000
380000
700000
700000
700000
700000
E00000
E00000
E00000
ENDCHAR
STARTCHAR Q
ENCODING 81
SWIDTH 778 0
DWIDTH 19 0
BBX 17 19 3 0
BITMAP
01FC00
07FE00
0F8F00
1E0700
380780
780380
700380
F00380
E00380
E00380
E00380
E00780
E00700
E00F00
F1EE00
70FC00
787800
3FFC00
1FDE00
ENDCHAR
STARTCHAR R
ENCODING 82
SWIDTH 722 0
DWIDTH 17 0
BBX 17 19 2 0
BITMAP
0FFE00
0FFF00
0E0780
0E0380
1C0380
1C0380
1C0700
1C0F00
3FFE00
3FFC00
381E00
380E00
700E00
700E00
700E00
700E00
E01C00
E01C00
E01C00
ENDCHAR
STARTCHAR S
ENCODING 83
SWIDTH 667 0
DWIDTH 17 0
BBX 16 19 2 0
BITMAP
00FC
03FE
078F
0E07
1C07
1C00
1E00
0F80
07F0
01FC
003E
000E
000E
E00E
E01E
F03C
7CF8
3FF0
0FC0
ENDCHAR
STARTCHAR T
ENCODING 84
SWIDTH 611 0
DWIDTH 15 0
BBX 15 19 4 0
BITMAP
FFFE
FFFE
0380
0380
0700
0700
0700
0700
0E00
0E00
0E00
0E00
1C00
1C00
1C00
1C00
3800
3800
3800
ENDCHAR
STARTCHAR U
ENCODING 85
SWIDTH 722 0
DWIDTH 19 0
BBX 18 19 3 0
BITMAP
1C01C0
1C01C0
1C01C0
1C01C0
380380
380380
380380
380380
700700
700700
700700
700F00
E00E00
E01E00
E01C00
F03C00
78F800
7FF000
1FC000
ENDCHAR
STARTCHAR V
ENCODING 86
SWIDTH 667 0
DWIDTH 18 0
BBX 16 19 5 0
BITMAP
E007
E007
E00E
E00E
E01C
701C
7038
7070
7070
70E0
70E0
71C0
7180
3380
3700
3F00
3E00
3C00
3C00
ENDCHAR
STARTCHAR W
ENCODING 87
SWIDTH 944 0
DWIDTH 23 0
BBX 21 19 5 0
BITMAP
E07038
E07038
E07070
E0F070
E0F0E0
E0F0E0
E1F0E0
E1F1C0
E3F1C0
E37380
E77380
E67380
EE7700
7C3700
7C3E00
783E00
783C00
703800
703800
ENDCHAR
STARTCHAR X
ENCODING 88
SWIDTH 667 0
DWIDTH 18 0
BBX 20 19 1 0
BITMAP
0E0070
0F00F0
0701E0
0783C0
038780
01CF00
01FC00
00F800
00F000
00F000
01F800
03B800
073C00
0E1C00
1E1E00
3C0E00
780F00
F00700
E00700
ENDCHAR
STARTCHAR Y
ENCODING 89
SWIDTH 667 0
DWIDTH 17 0
BBX 16 19 5 0
BITMAP
E00F
E01E
E03C
7078
7070
70E0
39C0
39C0
3B80
3F00
1F00
1E00
1C00
1C00
1C00
3800
3800
3800
3800
ENDCHAR
STARTCHAR Z
ENCODING 90
SWIDTH 611 0
DWIDTH 16 0
BBX 18 19 1 0
BITMAP
0FFFC0
0FFFC0
0003C0
000780
000F00
001E00
003C00
007800
00F000
01E000
03C000
078000
0F0000
1E0000
3C0000
780000
F00000
FFFE00
FFFE00
ENDCHAR
STARTCHAR bracketleft
ENCODING 91
SWIDTH 333 0
DWIDTH 8 0
BBX 10 24 0 -5
BITMAP
07C0
07C0
0700
0700
0E00
0E00
0E00
0E00
1C00
1C00
1C00
1C00
3800
3800
3800
3800
7000
7000
7000
7000
E000
E000
F800
F800
ENDCHAR
STARTCHAR backslash
ENCODING 92
SWIDTH 278 0
DWIDTH 8 0
BBX 3 19 5 0
BITMAP
C0
C0
C0
C0
C0
C0
C0
C0
C0
C0
60
60
60
60
60
60
60
60
60
ENDCHAR
STARTCHAR bracketright
ENCODING 93
SWIDTH 333 0
DWIDTH 8 0
BBX 10 24 1 -5
BITMAP
07C0
07C0
01C0
01C0
0380
0380
0380
0380
0700
0700
0700
0700
0E00
0E00
0E00
0E00
1C00
1C00
1C00
1C00
3800
3800
F800
F800
ENDCHAR
STARTCHAR asciicircum
ENCODING 94
SWIDTH 584 0
DWIDTH 14 0
BBX 12 9 3 10
BITMAP
0180
0380
07C0
0EC0
1CE0
1860
3870
7030
E030
ENDCHAR
STARTCHAR underscore
ENCODING 95
SWIDTH 556 0
DWIDTH 14 0
BBX 14 2 -1 -5
BITMAP
FFFC
FFFC
ENDCHAR
STARTCHAR grave
ENCODING 96
SWIDTH 333 0
DWIDTH 8 0
BBX 6 4 5 15
BITMAP
E0
70
38
1C
ENDCHAR
STARTCHAR a
ENCODING 97
SWIDTH 556 0
DWIDTH 14 0
BBX 12 14 2 0
BITMAP
07E0
1FF0
3C70
3870
00F0
07E0
1FE0
3CE0
70E0
E0E0
E1C0
E7C0
FFC0
79C0
ENDCHAR
STARTCHAR b
ENCODING 98
SWIDTH 611 0
DWIDTH 15 0
BBX 14 19 2 0
BITMAP
0E00
0E00
0E00
0E00
1C00
1DF0
1FF8
1F38
3C1C
381C
381C
381C
7038
7038
7070
7070
F9E0
FFC0
EF80
ENDCHAR
STARTCHAR c
ENCODING 99
SWIDTH 556 0
DWIDTH 13 0
BBX 12 14 2 0
BITMAP
03C0
0FE0
1E70
3830
7000
7000
E000
E000
E000
E000
E0E0
73C0
7F80
1E00
ENDCHAR
STARTCHAR d
ENCODING 100
SWIDTH 611 0
DWIDTH 15 0
BBX 15 19 2 0
BITMAP
000E
000E
000E
000E
001C
03DC
0FFC
1E7C
3838
7038
7038
E038
E038
E070
E070
E0F0
73E0
7FE0
1EE0
ENDCHAR
STARTCHAR e
ENCODING 101
SWIDTH 556 0
DWIDTH 14 0
BBX 13 14 2 0
BITMAP
03E0
0FF0
1E70
3838
7038
7038
FFF8
FFF0
E000
E000
E0E0
73C0
7F80
1E00
ENDCHAR
STARTCHAR f
ENCODING 102
SWIDTH 333 0
DWIDTH 9 0
BBX 9 19 3 0
BITMAP
0780
0F80
0E00
1C00
1C00
7F00
7F00
1C00
3800
3800
3800
3800
7000
7000
7000
7000
E000
E000
E000
ENDCHAR
STARTCHAR g
ENCODING 103
SWIDTH 611 0
DWIDTH 15 0
BBX 16 19 0 -5
BITMAP
00F7
03FF
079F
0E0E
1C0E
1C0E
380E
381C
381C
381C
383C
1CF8
1FF8
07B8
0038
E070
F0E0
7FE0
1F80
ENDCHAR
STARTCHAR h
ENCODING 104
SWIDTH 611 0
DWIDTH 15 0
BBX 13 19 2 0
BITMAP
0E00
0E00
0E00
0E00
1C00
1DE0
1FF0
1E38
3C38
3838
3838
3838
7070
7070
7070
7070
E0E0
E0E0
E0E0
ENDCHAR
STARTCHAR i
ENCODING 105
SWIDTH 278 0
DWIDTH 7 0
BBX 7 19 2 0
BITMAP
0E
0E
0E
00
00
1C
1C
1C
38
38
38
38
70
70
70
70
E0
E0
E0
ENDCHAR
STARTCHAR j
ENCODING 106
SWIDTH 278 0
DWIDTH 7 0
BBX 10 24 -1 -5
BITMAP
01C0
01C0
01C0
0000
0000
0380
0380
0380
0700
0700
0700
0700
0E00
0E00
0E00
0E00
1C00
1C00
1C00
3800
3800
3800
F000
F000
ENDCHAR
STARTCHAR k
ENCODING 107
SWIDTH 556 0
DWIDTH 14 0
BBX 13 19 2 0
BITMAP
0E00
0E00
0E00
0E00
1C00
1C38
1C70
1CE0
39C0
3F80
3F00
3F80
7380
71C0
71C0
70E0
E0E0
E070
E070
ENDCHAR
STARTCHAR l
ENCODING 108
SWIDTH 278 0
DWIDTH 7 0
BBX 7 19 2 0
BITMAP
0E
0E
0E
0E
1C
1C
1C
1C
38
38
38
38
70
70
70
70
E0
E0
E0
ENDCHAR
STARTCHAR m
ENCODING 109
SWIDTH 889 0
DWIDTH 21 0
BBX 19 14 2 0
BITMAP
1DE7C0
1FFFE0
1E7CE0
3C78E0
3870E0
3870E0
3870E0
70E1C0
70E1C0
70E1C0
70E1C0
E1C380
E1C380
E1C380
ENDCHAR
STARTCHAR n
ENCODING 110
SWIDTH 611 0
DWIDTH 15 0
BBX 13 14 2 0
BITMAP
1DE0
1FF0
1E38
3C38
3838
3838
3838
7070
7070
7070
7070
E0E0
E0E0
E0E0
ENDCHAR
STARTCHAR o
ENCODING 111
SWIDTH 611 0
DWIDTH 14 0
BBX 13 14 2 0
BITMAP
03C0
0FF0
1E70
3838
7038
7038
E038
E038
E070
E070
E0E0
73C0
7F80
1E00
ENDCHAR
STARTCHAR p
ENCODING 112
SWIDTH 611 0
DWIDTH 15 0
BBX 15 19 1 -5
BITMAP
0EF0
0FFC
0F9C
1E0E
1C0E
1C0E
380E
380E
381C
381C
3838
7CF0
7FE0
7780
7000
E000
E000
E000
E000
ENDCHAR
STARTCHAR q
ENCODING 113
SWIDTH 611 0
DWIDTH 15 0
BBX 14 19 2 -5
BITMAP
03DC
0FFC
1E7C
3838
7038
7038
E038
E038
E070
E070
E0F0
73E0
7FE0
1EE0
00E0
01C0
01C0
01C0
01C0
ENDCHAR
STARTCHAR r
ENCODING 114
SWIDTH 389 0
DWIDTH 10 0
BBX 10 14 2 0
BITMAP
1CC0
1DC0
1FC0
3E00
3C00
3800
3800
7000
7000
7000
7000
E000
E000
E000
ENDCHAR
STARTCHAR s
ENCODING 115
SWIDTH 556 0
DWIDTH 13 0
BBX 12 14 2 0
BITMAP
0FC0
3FE0
78F0
7070
7000
7C00
3F00
0FC0
01E0
E0E0
E0E0
F1E0
7FC0
3F00
ENDCHAR
STARTCHAR t
ENCODING 116
SWIDTH 333 0
DWIDTH 9 0
BBX 8 18 3 0
BITMAP
0E
0E
0E
1C
7F
7F
1C
38
38
38
38
70
70
70
E0
E0
F8
78
ENDCHAR
STARTCHAR u
ENCODING 117
SWIDTH 611 0
DWIDTH 15 0
BBX 13 14 3 0
BITMAP
3838
3838
3838
7070
7070
7070
7070
E0E0
E0E0
E1E0
E3E0
E7C0
7DC0
39C0
ENDCHAR
STARTCHAR v
ENCODING 118
SWIDTH 556 0
DWIDTH 14 0
BBX 12 14 4 0
BITMAP
E070
E0F0
E0E0
E1C0
E1C0
E380
E380
E700
E700
EE00
7C00
7C00
7800
7000
ENDCHAR
STARTCHAR w
ENCODING 119
SWIDTH 778 0
DWIDTH 19 0
BBX 19 14 3 0
BITMAP
E0E0E0
E1E0E0
E1E1C0
E3E380
E36380
E76700
E66700
EE6E00
EC6C00
7C7C00
787800
787800
707000
707000
ENDCHAR
STARTCHAR x
ENCODING 120
SWIDTH 556 0
DWIDTH 13 0
BBX 14 14 1 0
BITMAP
1C1C
1C38
0E70
0EE0
07C0
0780
0380
0780
0FC0
1CC0
38E0
70E0
E070
C070
ENDCHAR
STARTCHAR y
ENCODING 121
SWIDTH 556 0
DWIDTH 14 0
BBX 14 19 2 -5
BITMAP
701C
701C
7038
7038
3870
3870
38E0
38E0
1DC0
1DC0
1F80
0F00
0F00
0E00
0E00
1C00
3800
F800
F000
ENDCHAR
STARTCHAR z
ENCODING 122
SWIDTH 500 0
DWIDTH 13 0
BBX 13 14 1 0
BITMAP
1FF8
1FF8
0070
00E0
01C0
0380
0700
0E00
1C00
3800
7000
E000
FFE0
FFE0
ENDCHAR
STARTCHAR braceleft
ENCODING 123
SWIDTH 389 0
DWIDTH 10 0
BBX 10 24 3 -5
BITMAP
03C0
07C0
0E00
0C00
1C00
1800
1800
1800
1800
3800
F000
E000
3000
3000
3000
3000
6000
6000
6000
C000
C000
C000
F800
7800
ENDCHAR
STARTCHAR bar
ENCODING 124
SWIDTH 280 0
DWIDTH 7 0
BBX 8 24 1 -5
BITMAP
03
03
07
06
06
0E
0E
0C
0C
1C
1C
18
18
38
38
30
30
70
70
60
60
E0
C0
C0
ENDCHAR
STARTCHAR braceright
ENCODING 125
SWIDTH 389 0
DWIDTH 10 0
BBX 10 24 1 -5
BITMAP
0780
07C0
00C0
00C0
00C0
0180
0180
0180
0380
0300
03C0
01C0
0300
0300
0300
0600
0600
0600
0600
0E00
0C00
1C00
F800
F000
ENDCHAR
STARTCHAR asciitilde
ENCODING 126
SWIDTH 584 0
DWIDTH 14 0
BBX 12 4 2 5
BITMAP
3C30
7E70
E7E0
C3C0
ENDCHAR
STARTCHAR space
ENCODING 160
SWIDTH 278 0
DWIDTH 6 0
BBX 1 1 0 0
BITMAP
00
ENDCHAR
STARTCHAR exclamdown
ENCODING 161
SWIDTH 333 0
DWIDTH 8 0
BBX 8 19 1 -5
BITMAP
07
07
07
00
00
0C
0C
1C
18
18
38
38
38
70
70
70
E0
E0
E0
ENDCHAR
STARTCHAR cent
ENCODING 162
SWIDTH 556 0
DWIDTH 14 0
BBX 13 18 2 -2
BITMAP
0030
0070
07E0
0FF0
1EF8
3998
7180
7300
E300
E600
E600
EC00
ECE0
79C0
7F80
3F00
7000
6000
ENDCHAR
STARTCHAR sterling
ENCODING 163
SWIDTH 556 0
DWIDTH 14 0
BBX 14 18 1 0
BITMAP
01F0
03F8
071C
0E0C
0E00
0E00
0700
0700
3FF0
3FF0
0700
0E00
0E00
1C00
3800
7738
FFF8
F9F0
ENDCHAR
STARTCHAR currency
ENCODING 164
SWIDTH 556 0
DWIDTH 14 0
BBX 14 12 2 3
BITMAP
300C
3BDC
1FF8
0E70
1C70
3870
3870
38E0
39C0
7FE0
EF70
C030
ENDCHAR
STARTCHAR yen
ENCODING 165
SWIDTH 556 0
DWIDTH 14 0
BBX 16 18 2 0
BITMAP
3807
380E
381C
1838
1C70
1CE0
0DC0
0F80
7FF0
7FF0
0700
FFE0
FFE0
0E00
0E00
1C00
1C00
1C00
ENDCHAR
STARTCHAR brokenbar
ENCODING 166
SWIDTH 280 0
DWIDTH 7 0
BBX 8 23 1 -4
BITMAP
07
07
07
07
0E
0E
0E
1C
1C
1C
00
00
00
38
38
38
78
70
70
E0
E0
E0
E0
ENDCHAR
STARTCHAR section
ENCODING 167
SWIDTH 556 0
DWIDTH 14 0
BBX 15 24 1 -5
BITMAP
01F8
03FC
079C
070E
070E
0700
0380
0FC0
1FE0
3CF0
3870
3838
3838
1C38
1E78
0FF0
07E0
03C0
01C0
E1C0
E1C0
7380
7F80
3F00
ENDCHAR
STARTCHAR dieresis
ENCODING 168
SWIDTH 333 0
DWIDTH 10 0
BBX 8 2 5 16
BITMAP
E7
E7
ENDCHAR
STARTCHAR copyright
ENCODING 169
SWIDTH 737 0
DWIDTH 19 0
BBX 17 17 3 0
BITMAP
03F800
0F1E00
1C0700
380300
71F380
631980
E61980
CC0180
CC0180
CC0180
CC3380
CE6300
E7C700
600E00
701C00
3C7800
0FE000
ENDCHAR
STARTCHAR ordfeminine
ENCODING 170
SWIDTH 370 0
DWIDTH 10 0
BBX 9 12 3 7
BITMAP
1F00
3F80
3180
0F80
3F00
7300
6700
7F00
3B00
0000
FF00
FF00
ENDCHAR
STARTCHAR guillemotleft
ENCODING 171
SWIDTH 556 0
DWIDTH 13 0
BBX 10 8 3 3
BITMAP
1DC0
3B80
7700
EE00
CC00
EE00
7700
3B80
ENDCHAR
STARTCHAR logicalnot
ENCODING 172
SWIDTH 584 0
DWIDTH 15 0
BBX 12 7 3 3
BITMAP
FFF0
FFF0
0030
0030
0060
0060
0060
ENDCHAR
STARTCHAR hyphen
ENCODING 173
SWIDTH 333 0
DWIDTH 10 0
BBX 8 2 2 6
BITMAP
FF
FF
ENDCHAR
STARTCHAR registered
ENCODING 174
SWIDTH 737 0
DWIDTH 19 0
BBX 17 17 3 0
BITMAP
03F800
0F1E00
1C0700
380300
73F380
631980
E31980
C63180
C7E180
CCC180
CC6380
D83300
D83700
600E00
701C00
3C7800
0FE000
ENDCHAR
STARTCHAR macron
ENCODING 175
SWIDTH 333 0
DWIDTH 9 0
BBX 7 2 5 16
BITMAP
FE
FE
ENDCHAR
STARTCHAR degree
ENCODING 176
SWIDTH 400 0
DWIDTH 9 0
BBX 8 7 3 11
BITMAP
3C
66
C3
C3
C3
66
3C
ENDCHAR
STARTCHAR plusminus
ENCODING 177
SWIDTH 584 0
DWIDTH 15 0
BBX 12 13 2 0
BITMAP
01C0
01C0
0380
0380
3FF0
3FF0
0700
0700
0E00
0E00
0000
FFC0
FFC0
ENDCHAR
STARTCHAR twosuperior
ENCODING 178
SWIDTH 333 0
DWIDTH 7 0
BBX 7 10 2 8
BITMAP
1C
3E
66
06
0E
3C
70
E0
FC
FC
ENDCHAR
STARTCHAR threesuperior
ENCODING 179
SWIDTH 333 0
DWIDTH 7 0
BBX 8 10 2 8
BITMAP
1E
3F
63
06
1C
1E
06
C6
FC
78
ENDCHAR
STARTCHAR acute
ENCODING 180
SWIDTH 333 0
DWIDTH 8 0
BBX 6 4 5 15
BITMAP
1C
38
70
E0
ENDCHAR
STARTCHAR mu
ENCODING 181
SWIDTH 611 0
DWIDTH 15 0
BBX 15 19 1 -5
BITMAP
0E0E
0E0E
0E0E
1C1C
1C1C
1C1C
1C1C
3838
3838
3878
3878
7CF0
7FF0
6730
6000
E000
E000
E000
E000
ENDCHAR
STARTCHAR paragraph
ENCODING 182
SWIDTH 556 0
DWIDTH 13 0
BBX 13 24 4 -5
BITMAP
03F8
0FF8
3E60
7E60
7CC0
FCC0
FCC0
FCC0
F980
F980
7980
7980
3300
3300
3300
3300
6600
6600
6600
6600
CC00
CC00
CC00
CC00
ENDCHAR
STARTCHAR periodcentered
ENCODING 183
SWIDTH 278 0
DWIDTH 7 0
BBX 3 3 4 6
BITMAP
E0
E0
E0
ENDCHAR
STARTCHAR cedilla
ENCODING 184
SWIDTH 333 0
DWIDTH 9 0
BBX 6 6 3 -5
BITMAP
70
38
1C
CC
F8
70
ENDCHAR
STARTCHAR onesuperior
ENCODING 185
SWIDTH 333 0
DWIDTH 7 0
BBX 4 10 4 8
BITMAP
30
30
F0
F0
60
60
60
C0
C0
C0
ENDCHAR
STARTCHAR ordmasculine
ENCODING 186
SWIDTH 365 0
DWIDTH 10 0
BBX 9 12 3 7
BITMAP
0F00
1F80
3980
3180
6180
6300
6700
7E00
3C00
0000
FF00
FF00
ENDCHAR
STARTCHAR guillemotright
ENCODING 187
SWIDTH 556 0
DWIDTH 13 0
BBX 10 8 2 3
BITMAP
7700
3B80
1DC0
0CC0
1DC0
3B80
7700
EE00
ENDCHAR
STARTCHAR onequarter
ENCODING 188
SWIDTH 834 0
DWIDTH 19 0
BBX 15 18 4 0
BITMAP
3018
3038
F070
F060
60E0
61C0
6180
C380
C706
C60E
0E1E
1C3C
186C
38CC
71FE
61FE
E018
C018
ENDCHAR
STARTCHAR onehalf
ENCODING 189
SWIDTH 834 0
DWIDTH 19 0
BBX 16 18 4 0
BITMAP
3018
3038
F070
F060
60E0
61C0
6180
C380
C70E
C61F
0E33
1C03
1807
381E
7038
6070
E07E
C07E
ENDCHAR
STARTCHAR threequarters
ENCODING 190
SWIDTH 834 0
DWIDTH 19 0
BBX 17 18 2 0
BITMAP
1E0300
3F0700
630E00
060C00
1C1C00
1E3800
063000
C67000
FCE180
78C380
01C780
038F00
031B00
073300
0E7F80
0C7F80
1C0600
180600
ENDCHAR
STARTCHAR questiondown
ENCODING 191
SWIDTH 611 0
DWIDTH 15 0
BBX 12 19 1 -5
BITMAP
00E0
00E0
00E0
0000
0000
00E0
00E0
00E0
01C0
0380
0F00
3E00
7800
F070
E070
E0E0
F1E0
7FC0
3F00
ENDCHAR
STARTCHAR Agrave
ENCODING 192
SWIDTH 722 0
DWIDTH 18 0
BBX 16 24 1 0
BITMAP
01C0
00E0
0070
0038
0000
001C
003C
007C
007C
00EE
01CE
01CE
038E
070E
070E
0E0E
0E0E
1FFE
3FFF
3807
7007
7007
E007
E007
ENDCHAR
STARTCHAR Aacute
ENCODING 193
SWIDTH 722 0
DWIDTH 18 0
BBX 18 24 1 0
BITMAP
0001C0
000380
000700
000E00
000000
001C00
003C00
007C00
007C00
00EE00
01CE00
01CE00
038E00
070E00
070E00
0E0E00
0E0E00
1FFE00
3FFF00
380700
700700
700700
E00700
E00700
ENDCHAR
STARTCHAR Acircumflex
ENCODING 194
SWIDTH 722 0
DWIDTH 18 0
BBX 17 24 1 0
BITMAP
001C00
003E00
007700
00E380
000000
001C00
003C00
007C00
007C00
00EE00
01CE00
01CE00
038E00
070E00
070E00
0E0E00
0E0E00
1FFE00
3FFF00
380700
700700
700700
E00700
E00700
ENDCHAR
STARTCHAR Atilde
ENCODING 195
SWIDTH 722 0
DWIDTH 18 0
BBX 17 23 1 0
BITMAP
007980
00FF80
00CF00
000000
001C00
003C00
007C00
007C00
00EE00
01CE00
01CE00
038E00
070E00
070E00
0E0E00
0E0E00
1FFE00
3FFF00
380700
700700
700700
E00700
E00700
ENDCHAR
STARTCHAR Adieresis
ENCODING 196
SWIDTH 722 0
DWIDTH 18 0
BBX 16 23 1 0
BITMAP
00E7
00E7
0000
0000
001C
003C
007C
007C
00EE
01CE
01CE
038E
070E
070E
0E0E
0E0E
1FFE
3FFF
3807
7007
7007
E007
E007
ENDCHAR
STARTCHAR Aring
ENCODING 197
SWIDTH 722 0
DWIDTH 18 0
BBX 16 24 1 0
BITMAP
001E
0033
0033
0033
001E
001C
003C
007C
007C
00EE
01CE
01CE
038E
070E
070E
0E0E
0E0E
1FFE
3FFF
3807
7007
7007
E007
E007
ENDCHAR
STARTCHAR AE
ENCODING 198
SWIDTH 1000 0
DWIDTH 24 0
BBX 26 19 0 0
BITMAP
001FFFC0
003FFFC0
007B8000
00778000
00E70000
01C70000
01C70000
03870000
070FFE00
070FFE00
0E0E0000
0E0E0000
1FFC0000
3FFC0000
381C0000
701C0000
70380000
E03FFE00
E03FFE00
ENDCHAR
STARTCHAR Ccedilla
ENCODING 199
SWIDTH 722 0
DWIDTH 18 0
BBX 16 24 3 -5
BITMAP
01FC
07FE
0F8F
1E07
3807
7800
7000
F000
E000
E000
E000
E000
E000
E00E
F01E
703C
78F8
3FF0
1FC0
0700
0380
1980
1F00
0E00
ENDCHAR
STARTCHAR Egrave
ENCODING 200
SWIDTH 667 0
DWIDTH 16 0
BBX 16 24 2 0
BITMAP
0700
0380
01C0
00E0
0000
0FFF
0FFF
0E00
0E00
1C00
1C00
1C00
1C00
3FF8
3FF8
3800
3800
7000
7000
7000
7000
E000
FFF8
FFF8
ENDCHAR
STARTCHAR Eacute
ENCODING 201
SWIDTH 667 0
DWIDTH 16 0
BBX 16 24 2 0
BITMAP
001C
0038
0070
00E0
0000
0FFF
0FFF
0E00
0E00
1C00
1C00
1C00
1C00
3FF8
3FF8
3800
3800
7000
7000
7000
7000
E000
FFF8
FFF8
ENDCHAR
STARTCHAR Ecircumflex
ENCODING 202
SWIDTH 667 0
DWIDTH 16 0
BBX 16 24 2 0
BITMAP
0070
00F8
01DC
038E
0000
0FFF
0FFF
0E00
0E00
1C00
1C00
1C00
1C00
3FF8
3FF8
3800
3800
7000
7000
7000
7000
E000
FFF8
FFF8
ENDCHAR
STARTCHAR Edieresis
ENCODING 203
SWIDTH 667 0
DWIDTH 16 0
BBX 16 23 2 0
BITMAP
01CE
01CE
0000
0000
0FFF
0FFF
0E00
0E00
1C00
1C00
1C00
1C00
3FF8
3FF8
3800
3800
7000
7000
7000
7000
E000
FFF8
FFF8
ENDCHAR
STARTCHAR Igrave
ENCODING 204
SWIDTH 278 0
DWIDTH 7 0
BBX 8 24 2 0
BITMAP
38
1C
0E
07
00
0E
0E
0E
0E
1C
1C
1C
1C
38
38
38
38
70
70
70
70
E0
E0
E0
ENDCHAR
STARTCHAR Iacute
ENCODING 205
SWIDTH 278 0
DWIDTH 7 0
BBX 10 24 2 0
BITMAP
01C0
0380
0700
0E00
0000
0E00
0E00
0E00
0E00
1C00
1C00
1C00
1C00
3800
3800
3800
3800
7000
7000
7000
7000
E000
E000
E000
ENDCHAR
STARTCHAR Icircumflex
ENCODING 206
SWIDTH 278 0
DWIDTH 7 0
BBX 10 24 2 0
BITMAP
0E00
1F00
3B80
71C0
0000
0E00
0E00
0E00
0E00
1C00
1C00
1C00
1C00
3800
3800
3800
3800
7000
7000
7000
7000
E000
E000
E000
ENDCHAR
STARTCHAR Idieresis
ENCODING 207
SWIDTH 278 0
DWIDTH 7 0
BBX 10 23 2 0
BITMAP
39C0
39C0
0000
0000
0E00
0E00
0E00
0E00
1C00
1C00
1C00
1C00
3800
3800
3800
3800
7000
7000
7000
7000
E000
E000
E000
ENDCHAR
STARTCHAR Eth
ENCODING 208
SWIDTH 722 0
DWIDTH 19 0
BBX 18 19 2 0
BITMAP
0FFC00
0FFF00
0E0F80
0E0380
1C01C0
1C01C0
1C01C0
1C01C0
FF81C0
FF81C0
3801C0
380380
700380
700780
700F00
701E00
E07C00
FFF800
FFE000
ENDCHAR
STARTCHAR Ntilde
ENCODING 209
SWIDTH 722 0
DWIDTH 19 0
BBX 19 23 2 0
BITMAP
007980
00FF80
00CF00
000000
0E00E0
0E00E0
0F00E0
0F00E0
1F81C0
1D81C0
1DC1C0
19C1C0
39C380
38E380
38E380
386380
707300
707700
703700
703F00
E01E00
E01E00
E00E00
ENDCHAR
STARTCHAR Ograve
ENCODING 210
SWIDTH 778 0
DWIDTH 19 0
BBX 17 24 3 0
BITMAP
01C000
00E000
007000
003800
000000
01FC00
07FE00
0F8F00
1E0700
380780
780380
700380
F00380
E00380
E00380
E00380
E00780
E00700
E00F00
F01E00
703C00
78F800
3FF000
1FC000
ENDCHAR
STARTCHAR Oacute
ENCODING 211
SWIDTH 778 0
DWIDTH 19 0
BBX 17 24 3 0
BITMAP
000E00
001C00
003800
007000
000000
01FC00
07FE00
0F8F00
1E0700
380780
780380
700380
F00380
E00380
E00380
E00380
E00780
E00700
E00F00
F01E00
703C00
78F800
3FF000
1FC000
ENDCHAR
STARTCHAR Ocircumflex
ENCODING 212
SWIDTH 778 0
DWIDTH 19 0
BBX 17 24 3 0
BITMAP
007000
00F800
01DC00
038E00
000000
01FC00
07FE00
0F8F00
1E0700
380780
780380
700380
F00380
E00380
E00380
E00380
E00780
E00700
E00F00
F01E00
703C00
78F800
3FF000
1FC000
ENDCHAR
STARTCHAR Otilde
ENCODING 213
SWIDTH 778 0
DWIDTH 19 0
BBX 17 23 3 0
BITMAP
01E600
03FE00
033C00
000000
01FC00
07FE00
0F8F00
1E0700
380780
780380
700380
F00380
E00380
E00380
E00380
E00780
E00700
E00F00
F01E00
703C00
78F800
3FF000
1FC000
ENDCHAR
STARTCHAR Odieresis
ENCODING 214
SWIDTH 778 0
DWIDTH 19 0
BBX 17 23 3 0
BITMAP
01CE00
01CE00
000000
000000
01FC00
07FE00
0F8F00
1E0700
380780
780380
700380
F00380
E00380
E00380
E00380
E00780
E00700
E00F00
F01E00
703C00
78F800
3FF000
1FC000
ENDCHAR
STARTCHAR multiply
ENCODING 215
SWIDTH 584 0
DWIDTH 15 0
BBX 13 12 2 1
BITMAP
6018
7038
3870
1CE0
0FC0
0780
0F00
1F80
39C0
70E0
E070
C030
ENDCHAR
STARTCHAR Oslash
ENCODING 216
SWIDTH 778 0
DWIDTH 19 0
BBX 20 19 1 0
BITMAP
007F30
01FFE0
03E3C0
0781E0
0E03E0
1E06E0
1C0CE0
3C18E0
3830E0
3860E0
38C0E0
3981E0
3B01C0
3E03C0
3C0780
380F00
3C3E00
6FFC00
C7F000
ENDCHAR
STARTCHAR Ugrave
ENCODING 217
SWIDTH 722 0
DWIDTH 19 0
BBX 18 24 3 0
BITMAP
01C000
00E000
007000
003800
000000
1C01C0
1C01C0
1C01C0
1C01C0
380380
380380
380380
380380
700700
700700
700700
700F00
E00E00
E01E00
E01C00
F03C00
78F800
7FF000
1FC000
ENDCHAR
STARTCHAR Uacute
ENCODING 218
SWIDTH 722 0
DWIDTH 19 0
BBX 18 24 3 0
BITMAP
000E00
001C00
003800
007000
000000
1C01C0
1C01C0
1C01C0
1C01C0
380380
380380
380380
380380
700700
700700
700700
700F00
E00E00
E01E00
E01C00
F03C00
78F800
7FF000
1FC000
ENDCHAR
STARTCHAR Ucircumflex
ENCODING 219
SWIDTH 722 0
DWIDTH 19 0
BBX 18 24 3 0
BITMAP
007000
00F800
01DC00
038E00
000000
1C01C0
1C01C0
1C01C0
1C01C0
380380
380380
380380
380380
700700
700700
700700
700F00
E00E00
E01E00
E01C00
F03C00
78F800
7FF000
1FC000
ENDCHAR
STARTCHAR Udieresis
ENCODING 220
SWIDTH 722 0
DWIDTH 19 0
BBX 18 23 3 0
BITMAP
01CE00
01CE00
000000
000000
1C01C0
1C01C0
1C01C0
1C01C0
380380
380380
380380
380380
700700
700700
700700
700F00
E00E00
E01E00
E01C00
F03C00
78F800
7FF000
1FC000
ENDCHAR
STARTCHAR Yacute
ENCODING 221
SWIDTH 667 0
DWIDTH 17 0
BBX 16 24 5 0
BITMAP
0070
00E0
01C0
0380
0000
E00F
E01E
E03C
7078
7070
70E0
39C0
39C0
3B80
3F00
1F00
1E00
1C00
1C00
1C00
3800
3800
3800
3800
ENDCHAR
STARTCHAR Thorn
ENCODING 222
SWIDTH 667 0
DWIDTH 17 0
BBX 16 19 2 0
BITMAP
0E00
0E00
0E00
0E00
1FFC
1FFE
1C0F
1C07
3C07
3C07
380E
381E
7FFC
7FF0
7000
7000
E000
E000
E000
ENDCHAR
STARTCHAR germandbls
ENCODING 223
SWIDTH 611 0
DWIDTH 14 0
BBX 13 19 2 0
BITMAP
01E0
07F0
0770
0E38
0C38
1C38
1C70
1CF0
39C0
39E0
38E0
3870
7070
7070
7070
70E0
E1E0
E7C0
E700
ENDCHAR
STARTCHAR agrave
ENCODING 224
SWIDTH 556 0
DWIDTH 14 0
BBX 12 19 2 0
BITMAP
0E00
0700
0380
01C0
0000
07E0
1FF0
3C70
3870
00F0
07E0
1FE0
3CE0
70E0
E0E0
E1C0
E7C0
FFC0
79C0
ENDCHAR
STARTCHAR aacute
ENCODING 225
SWIDTH 556 0
DWIDTH 14 0
BBX 12 19 2 0
BITMAP
0070
00E0
01C0
0380
0000
07E0
1FF0
3C70
3870
00F0
07E0
1FE0
3CE0
70E0
E0E0
E1C0
E7C0
FFC0
79C0
ENDCHAR
STARTCHAR acircumflex
ENCODING 226
SWIDTH 556 0
DWIDTH 14 0
BBX 12 19 2 0
BITMAP
0380
07C0
0EE0
1C70
0000
07E0
1FF0
3C70
3870
00F0
07E0
1FE0
3CE0
70E0
E0E0
E1C0
E7C0
FFC0
79C0
ENDCHAR
STARTCHAR atilde
ENCODING 227
SWIDTH 556 0
DWIDTH 14 0
BBX 12 18 2 0
BITMAP
0F30
1FF0
19E0
0000
07E0
1FF0
3C70
3870
00F0
07E0
1FE0
3CE0
70E0
E0E0
E1C0
E7C0
FFC0
79C0
ENDCHAR
STARTCHAR adieresis
ENCODING 228
SWIDTH 556 0
DWIDTH 14 0
BBX 12 18 2 0
BITMAP
0E70
0E70
0000
0000
07E0
1FF0
3C70
3870
00F0
07E0
1FE0
3CE0
70E0
E0E0
E1C0
E7C0
FFC0
79C0
ENDCHAR
STARTCHAR aring
ENCODING 229
SWIDTH 556 0
DWIDTH 14 0
BBX 12 19 2 0
BITMAP
03C0
0660
0660
0660
03C0
07E0
1FF0
3C70
3870
00F0
07E0
1FE0
3CE0
70E0
E0E0
E1C0
E7C0
FFC0
79C0
ENDCHAR
STARTCHAR ae
ENCODING 230
SWIDTH 889 0
DWIDTH 22 0
BBX 21 14 2 0
BITMAP
07E3E0
1FFFF0
3C7E70
387838
00F038
07F038
1FFFF8
3CFFF0
70E000
E0E000
E1E070
E7F1E0
FF3FC0
7C1F00
ENDCHAR
STARTCHAR ccedilla
ENCODING 231
SWIDTH 556 0
DWIDTH 13 0
BBX 12 19 2 -5
BITMAP
03C0
0FE0
1E70
3830
7000
7000
E000
E000
E000
E000
E0E0
71C0
7F80
3F00
1C00
0E00
6600
7C00
3800
ENDCHAR
STARTCHAR egrave
ENCODING 232
SWIDTH 556 0
DWIDTH 14 0
BBX 13 19 2 0
BITMAP
0E00
0700
0380
01C0
0000
03E0
0FF0
1E70
3838
7038
7038
FFF8
FFF0
E000
E000
E0E0
73C0
7F80
1E00
ENDCHAR
STARTCHAR eacute
ENCODING 233
SWIDTH 556 0
DWIDTH 14 0
BBX 13 19 2 0
BITMAP
0070
00E0
01C0
0380
0000
03E0
0FF0
1E70
3838
7038
7038
FFF8
FFF0
E000
E000
E0E0
73C0
7F80
1E00
ENDCHAR
STARTCHAR ecircumflex
ENCODING 234
SWIDTH 556 0
DWIDTH 14 0
BBX 13 19 2 0
BITMAP
01C0
03E0
0770
0E38
0000
03E0
0FF0
1E70
3838
7038
7038
FFF8
FFF0
E000
E000
E0E0
73C0
7F80
1E00
ENDCHAR
STARTCHAR edieresis
ENCODING 235
SWIDTH 556 0
DWIDTH 14 0
BBX 13 18 2 0
BITMAP
0E70
0E70
0000
0000
03E0
0FF0
1E70
3838
7038
7038
FFF8
FFF0
E000
E000
E0E0
73C0
7F80
1E00
ENDCHAR
STARTCHAR igrave
ENCODING 236
SWIDTH 278 0
DWIDTH 7 0
BBX 6 19 2 0
BITMAP
E0
70
38
1C
00
1C
1C
1C
38
38
38
38
70
70
70
70
E0
E0
E0
ENDCHAR
STARTCHAR iacute
ENCODING 237
SWIDTH 278 0
DWIDTH 7 0
BBX 9 19 2 0
BITMAP
0380
0700
0E00
1C00
0000
1C00
1C00
1C00
3800
3800
3800
3800
7000
7000
7000
7000
E000
E000
E000
ENDCHAR
STARTCHAR icircumflex
ENCODING 238
SWIDTH 278 0
DWIDTH 7 0
BBX 9 19 2 0
BITMAP
1C00
3E00
7700
E380
0000
1C00
1C00
1C00
3800
3800
3800
3800
7000
7000
7000
7000
E000
E000
E000
ENDCHAR
STARTCHAR idieresis
ENCODING 239
SWIDTH 278 0
DWIDTH 7 0
BBX 9 18 2 0
BITMAP
7380
7380
0000
0000
1C00
1C00
1C00
3800
3800
3800
3800
7000
7000
7000
7000
E000
E000
E000
ENDCHAR
STARTCHAR eth
ENCODING 240
SWIDTH 611 0
DWIDTH 14 0
BBX 13 19 2 0
BITMAP
1C00
0F70
03C0
0FC0
18E0
03E0
0FF0
1E70
3838
7038
7038
E038
E038
E070
E070
E0E0
73C0
7F80
1E00
ENDCHAR
STARTCHAR ntilde
ENCODING 241
SWIDTH 611 0
DWIDTH 15 0
BBX 13 18 2 0
BITMAP
0798
0FF8
0CF0
0000
1DE0
1FF0
1E38
3C38
3838
3838
3838
7070
7070
7070
7070
E0E0
E0E0
E0E0
ENDCHAR
STARTCHAR ograve
ENCODING 242
SWIDTH 611 0
DWIDTH 14 0
BBX 13 19 2 0
BITMAP
1C00
0E00
0700
0380
0000
03C0
0FF0
1E70
3838
7038
7038
E038
E038
E070
E070
E0E0
73C0
7F80
1E00
ENDCHAR
STARTCHAR oacute
ENCODING 243
SWIDTH 611 0
DWIDTH 14 0
BBX 13 19 2 0
BITMAP
0070
00E0
01C0
0380
0000
03C0
0FF0
1E70
3838
7038
7038
E038
E038
E070
E070
E0E0
73C0
7F80
1E00
ENDCHAR
STARTCHAR ocircumflex
ENCODING 244
SWIDTH 611 0
DWIDTH 14 0
BBX 13 19 2 0
BITMAP
01C0
03E0
0770
0E38
0000
03C0
0FF0
1E70
3838
7038
7038
E038
E038
E070
E070
E0E0
73C0
7F80
1E00
ENDCHAR
STARTCHAR otilde
ENCODING 245
SWIDTH 611 0
DWIDTH 14 0
BBX 13 18 2 0
BITMAP
0798
0FF8
0CF0
0000
03C0
0FF0
1E70
3838
7038
7038
E038
E038
E070
E070
E0E0
73C0
7F80
1E00
ENDCHAR
STARTCHAR odieresis
ENCODING 246
SWIDTH 611 0
DWIDTH 14 0
BBX 13 18 2 0
BITMAP
0E70
0E70
0000
0000
03C0
0FF0
1E70
3838
7038
7038
E038
E038
E070
E070
E0E0
73C0
7F80
1E00
ENDCHAR
STARTCHAR divide
ENCODING 247
SWIDTH 584 0
DWIDTH 15 0
BBX 10 12 4 1
BITMAP
0E00
0E00
0E00
0000
0000
FFC0
FFC0
0000
0000
3800
3800
3800
ENDCHAR
STARTCHAR oslash
ENCODING 248
SWIDTH 611 0
DWIDTH 14 0
BBX 15 14 1 0
BITMAP
01E6
07FC
0F18
1C3C
386C
30CC
718C
631C
6618
6C38
7870
30E0
7FC0
CF00
ENDCHAR
STARTCHAR ugrave
ENCODING 249
SWIDTH 611 0
DWIDTH 15 0
BBX 13 19 3 0
BITMAP
1C00
0E00
0700
0380
0000
3838
3838
3838
7070
7070
7070
7070
E0E0
E0E0
E1E0
E3E0
E7C0
7DC0
39C0
ENDCHAR
STARTCHAR uacute
ENCODING 250
SWIDTH 611 0
DWIDTH 15 0
BBX 13 19 3 0
BITMAP
0070
00E0
01C0
0380
0000
3838
3838
3838
7070
7070
7070
7070
E0E0
E0E0
E1E0
E3E0
E7C0
7DC0
39C0
ENDCHAR
STARTCHAR ucircumflex
ENCODING 251
SWIDTH 611 0
DWIDTH 15 0
BBX 13 19 3 0
BITMAP
0380
07C0
0EE0
1C70
0000
3838
3838
3838
7070
7070
7070
7070
E0E0
E0E0
E1E0
E3E0
E7C0
7DC0
39C0
ENDCHAR
STARTCHAR udieresis
ENCODING 252
SWIDTH 611 0
DWIDTH 15 0
BBX 13 18 3 0
BITMAP
0E70
0E70
0000
0000
3838
3838
3838
7070
7070
7070
7070
E0E0
E0E0
E1E0
E3E0
E7C0
7DC0
39C0
ENDCHAR
STARTCHAR yacute
ENCODING 253
SWIDTH 556 0
DWIDTH 14 0
BBX 14 24 2 -5
BITMAP
0070
00E0
01C0
0380
0000
701C
701C
7038
7038
3870
3870
38E0
38E0
1DC0
1DC0
1F80
0F00
0F00
0E00
0E00
1C00
3800
F800
F000
ENDCHAR
STARTCHAR thorn
ENCODING 254
SWIDTH 611 0
DWIDTH 15 0
BBX 15 24 1 -5
BITMAP
0700
0700
0700
0700
0E00
0EF0
0FFC
0F9C
1E0E
1C0E
1C0E
380E
380E
381C
381C
3838
7CF0
7FE0
7780
7000
E000
E000
E000
E000
ENDCHAR
STARTCHAR ydieresis
ENCODING 255
SWIDTH 556 0
DWIDTH 15 0
BBX 14 23 3 -5
BITMAP
0E70
0E70
0000
0000
701C
701C
7038
7038
3870
3870
38E0
38E0
1DC0
1DC0
1F80
0F00
0F00
0E00
0E00
1C00
3800
F800
F000
ENDCHAR
STARTCHAR Amacron
ENCODING 256
SWIDTH 722 0
DWIDTH 18 0
BBX 16 22 1 0
BITMAP
01FC
01FC
0000
001C
003C
007C
007C
00EE
01CE
01CE
038E
070E
070E
0E0E
0E0E
1FFE
3FFF
3807
7007
7007
E007
E007
ENDCHAR
STARTCHAR amacron
ENCODING 257
SWIDTH 556 0
DWIDTH 14 0
BBX 12 17 2 0
BITMAP
1FC0
1FC0
0000
07E0
1FF0
3C70
3870
00F0
07E0
1FE0
3CE0
70E0
E0E0
E1C0
E7C0
FFC0
79C0
ENDCHAR
STARTCHAR Abreve
ENCODING 258
SWIDTH 722 0
DWIDTH 18 0
BBX 16 24 1 0
BITMAP
0306
038E
01FC
0070
0000
001C
003C
007C
007C
00EE
01CE
01CE
038E
070E
070E
0E0E
0E0E
1FFE
3FFF
3807
7007
7007
E007
E007
ENDCHAR
STARTCHAR abreve
ENCODING 259
SWIDTH 556 0
DWIDTH 14 0
BBX 12 19 2 0
BITMAP
3060
38E0
1FC0
0700
0000
07E0
1FF0
3C70
3870
00F0
07E0
1FE0
3CE0
70E0
E0E0
E1C0
E7C0
FFC0
79C0
ENDCHAR
STARTCHAR Aogonek
ENCODING 260
SWIDTH 722 0
DWIDTH 18 0
BBX 16 24 1 -5
BITMAP
001C
003C
007C
007C
00EE
01CE
01CE
038E
070E
070E
0E0E
0E0E
1FFE
3FFF
3807
7007
7007
E007
E1E7
0380
0700
0620
07E0
03C0
ENDCHAR
STARTCHAR aogonek
ENCODING 261
SWIDTH 556 0
DWIDTH 14 0
BBX 12 19 2 -5
BITMAP
07E0
1FF0
3C70
3870
00F0
07E0
1FE0
3CE0
70E0
E0E0
E1C0
E7C0
FFC0
7FC0
1C00
3800
3100
3F00
1E00
ENDCHAR
STARTCHAR Cacute
ENCODING 262
SWIDTH 722 0
DWIDTH 18 0
BBX 16 24 3 0
BITMAP
0038
0070
00E0
01C0
0000
01FC
07FE
0F8F
1E07
3807
7800
7000
F000
E000
E000
E000
E000
E000
E00E
F01E
703C
78F8
3FF0
1FC0
ENDCHAR
STARTCHAR cacute
ENCODING 263
SWIDTH 556 0
DWIDTH 13 0
BBX 12 19 2 0
BITMAP
00E0
01C0
0380
0700
0000
03C0
0FE0
1E70
3830
7000
7000
E000
E000
E000
E000
E0E0
73C0
7F80
1E00
ENDCHAR
STARTCHAR Ccircumflex
ENCODING 264
SWIDTH 722 0
DWIDTH 18 0
BBX 16 24 3 0
BITMAP
00E0
01F0
03B8
071C
0000
01FC
07FE
0F8F
1E07
3807
7800
7000
F000
E000
E000
E000
E000
E000
E00E
F01E
703C
78F8
3FF0
1FC0
ENDCHAR
STARTCHAR ccircumflex
ENCODING 265
SWIDTH 556 0
DWIDTH 13 0
BBX 12 19 2 0
BITMAP
0700
0F80
1DC0
38E0
0000
03C0
0FE0
1E70
3830
7000
7000
E000
E000
E000
E000
E0E0
73C0
7F80
1E00
ENDCHAR
STARTCHAR Cdotaccent
ENCODING 266
SWIDTH 722 0
DWIDTH 18 0
BBX 16 22 3 0
BITMAP
00E0
00E0
0000
01FC
07FE
0F8F
1E07
3807
7800
7000
F000
E000
E000
E000
E000
E000
E00E
F01E
703C
78F8
3FF0
1FC0
ENDCHAR
STARTCHAR cdotaccent
ENCODING 267
SWIDTH 556 0
DWIDTH 13 0
BBX 12 17 2 0
BITMAP
0700
0700
0000
03C0
0FE0
1E70
3830
7000
7000
E000
E000
E000
E000
E0E0
73C0
7F80
1E00
ENDCHAR
STARTCHAR Ccaron
ENCODING 268
SWIDTH 722 0
DWIDTH 18 0
BBX 16 24 3 0
BITMAP
071C
03B8
01F0
00E0
0000
01FC
07FE
0F8F
1E07
3807
7800
7000
F000
E000
E000
E000
E000
E000
E00E
F01E
703C
78F8
3FF0
1FC0
ENDCHAR
STARTCHAR ccaron
ENCODING 269
SWIDTH 556 0
DWIDTH 13 0
BBX 12 19 2 0
BITMAP
38E0
1DC0
0F80
0700
0000
03C0
0FE0
1E70
3830
7000
7000
E000
E000
E000
E000
E0E0
73C0
7F80
1E00
ENDCHAR
STARTCHAR Dcaron
ENCODING 270
SWIDTH 722 0
DWIDTH 19 0
BBX 18 24 2 0
BITMAP
071C00
03B800
01F000
00E000
000000
0FFC00
0FFF00
0E0F80
0E0380
1C01C0
1C01C0
1C01C0
1C01C0
3801C0
3801C0
3801C0
380380
700380
700780
700F00
701E00
E07C00
FFF800
FFE000
ENDCHAR
STARTCHAR dcaron
ENCODING 271
SWIDTH 858 0
DWIDTH 21 0
BBX 22 19 2 0
BITMAP
000E3C
000E3C
000E0C
000E38
001CE0
03DC00
0FFC00
1E7C00
383800
703800
703800
E03800
E03800
E07000
E07000
E0F000
73E000
7FE000
1EE000
ENDCHAR
STARTCHAR Dcroat
ENCODING 272
SWIDTH 722 0
DWIDTH 19 0
BBX 18 19 2 0
BITMAP
0FFC00
0FFF00
0E0F80
0E0380
1C01C0
1C01C0
1C01C0
1C01C0
FF81C0
FF81C0
3801C0
380380
700380
700780
700F00
701E00
E07C00
FFF800
FFE000
ENDCHAR
STARTCHAR dcroat
ENCODING 273
SWIDTH 611 0
DWIDTH 15 0
BBX 15 19 2 0
BITMAP
000E
000E
000E
00FE
00FE
03DC
0FFC
1E7C
3838
7038
7038
E038
E038
E070
E070
E0F0
73E0
7FE0
1EE0
ENDCHAR
STARTCHAR Emacron
ENCODING 274
SWIDTH 667 0
DWIDTH 16 0
BBX 16 22 2 0
BITMAP
07F0
07F0
0000
0FFF
0FFF
0E00
0E00
1C00
1C00
1C00
1C00
3FF8
3FF8
3800
3800
7000
7000
7000
7000
E000
FFF8
FFF8
ENDCHAR
STARTCHAR emacron
ENCODING 275
SWIDTH 556 0
DWIDTH 14 0
BBX 13 17 2 0
BITMAP
0FE0
0FE0
0000
03E0
0FF0
1E70
3838
7038
7038
FFF8
FFF0
E000
E000
E0E0
73C0
7F80
1E00
ENDCHAR
STARTCHAR Ebreve
ENCODING 276
SWIDTH 667 0
DWIDTH 16 0
BBX 16 24 2 0
BITMAP
0C18
0E38
07F0
01C0
0000
0FFF
0FFF
0E00
0E00
1C00
1C00
1C00
1C00
3FF8
3FF8
3800
3800
7000
7000
7000
7000
E000
FFF8
FFF8
ENDCHAR
STARTCHAR ebreve
ENCODING 277
SWIDTH 556 0
DWIDTH 14 0
BBX 13 19 2 0
BITMAP
1830
1C70
0FE0
0380
0000
03E0
0FF0
1E70
3838
7038
7038
FFF8
FFF0
E000
E000
E0E0
73C0
7F80
1E00
ENDCHAR
STARTCHAR Edotaccent
ENCODING 278
SWIDTH 667 0
DWIDTH 16 0
BBX 16 22 2 0
BITMAP
01C0
01C0
0000
0FFF
0FFF
0E00
0E00
1C00
1C00
1C00
1C00
3FF8
3FF8
3800
3800
7000
7000
7000
7000
E000
FFF8
FFF8
ENDCHAR
STARTCHAR edotaccent
ENCODING 279
SWIDTH 556 0
DWIDTH 14 0
BBX 13 17 2 0
BITMAP
0380
0380
0000
03E0
0FF0
1E70
3838
7038
7038
FFF8
FFF0
E000
E000
E0E0
73C0
7F80
1E00
ENDCHAR
STARTCHAR Eogonek
ENCODING 280
SWIDTH 667 0
DWIDTH 16 0
BBX 16 24 2 -5
BITMAP
0FFF
0FFF
0E00
0E00
1C00
1C00
1C00
1C00
3FF8
3FF8
3800
3800
7000
7000
7000
7000
E000
FFF8
FFF8
0E00
1C00
1880
1F80
0F00
ENDCHAR
STARTCHAR eogonek
ENCODING 281
SWIDTH 556 0
DWIDTH 14 0
BBX 13 19 2 -5
BITMAP
03E0
0FF0
1E70
3838
7038
7038
FFF8
FFF0
E000
E000
E0E0
73C0
7F80
1F00
1C00
3800
3100
3F00
1E00
ENDCHAR
STARTCHAR Ecaron
ENCODING 282
SWIDTH 667 0
DWIDTH 16 0
BBX 16 24 2 0
BITMAP
0E38
0770
03E0
01C0
0000
0FFF
0FFF
0E00
0E00
1C00
1C00
1C00
1C00
3FF8
3FF8
3800
3800
7000
7000
7000
7000
E000
FFF8
FFF8
ENDCHAR
STARTCHAR ecaron
ENCODING 283
SWIDTH 556 0
DWIDTH 14 0
BBX 13 19 2 0
BITMAP
1C70
0EE0
07C0
0380
0000
03E0
0FF0
1E70
3838
7038
7038
FFF8
FFF0
E000
E000
E0E0
73C0
7F80
1E00
ENDCHAR
STARTCHAR Gcircumflex
ENCODING 284
SWIDTH 778 0
DWIDTH 19 0
BBX 17 24 3 0
BITMAP
00E000
01F000
03B800
071C00
000000
01FC00
07FE00
0F8F00
1E0700
380700
780000
700000
F00000
E00000
E07F80
E07F80
E00700
E00700
E00F00
F00E00
701E00
787E00
3FFC00
1FCC00
ENDCHAR
STARTCHAR gcircumflex
ENCODING 285
SWIDTH 611 0
DWIDTH 15 0
BBX 16 24 0 -5
BITMAP
00E0
01F0
03B8
071C
0000
00F7
03FF
079F
0E0E
1C0E
1C0E
380E
381C
381C
381C
383C
1CF8
1FF8
07B8
0038
E070
F0E0
7FE0
1F80
ENDCHAR
STARTCHAR Gbreve
ENCODING 286
SWIDTH 778 0
DWIDTH 19 0
BBX 17 24 3 0
BITMAP
060C00
071C00
03F800
00E000
000000
01FC00
07FE00
0F8F00
1E0700
380700
780000
700000
F00000
E00000
E07F80
E07F80
E00700
E00700
E00F00
F00E00
701E00
787E00
3FFC00
1FCC00
ENDCHAR
STARTCHAR gbreve
ENCODING 287
SWIDTH 611 0
DWIDTH 15 0
BBX 16 24 0 -5
BITMAP
060C
071C
03F8
00E0
0000
00F7
03FF
079F
0E0E
1C0E
1C0E
380E
381C
381C
381C
383C
1CF8
1FF8
07B8
0038
E070
F0E0
7FE0
1F80
ENDCHAR
STARTCHAR Gdotaccent
ENCODING 288
SWIDTH 778 0
DWIDTH 19 0
BBX 17 22 3 0
BITMAP
00E000
00E000
000000
01FC00
07FE00
0F8F00
1E0700
380700
780000
700000
F00000
E00000
E07F80
E07F80
E00700
E00700
E00F00
F00E00
701E00
787E00
3FFC00
1FCC00
ENDCHAR
STARTCHAR gdotaccent
ENCODING 289
SWIDTH 611 0
DWIDTH 15 0
BBX 16 22 0 -5
BITMAP
00E0
00E0
0000
00F7
03FF
079F
0E0E
1C0E
1C0E
380E
381C
381C
381C
383C
1CF8
1FF8
07B8
0038
E070
F0E0
7FE0
1F80
ENDCHAR
STARTCHAR Gcommaaccent
ENCODING 290
SWIDTH 778 0
DWIDTH 19 0
BBX 17 26 3 -7
BITMAP
01FC00
07FE00
0F8F00
1E0700
380700
780000
700000
F00000
E00000
E07F80
E07F80
E00700
E00700
E00F00
F00E00
701E00
787E00
3FFC00
1FCC00
000000
01C000
01C000
01C000
00C000
018000
030000
ENDCHAR
STARTCHAR gcommaaccent
ENCODING 291
SWIDTH 611 0
DWIDTH 15 0
BBX 16 25 0 -5
BITMAP
0038
00E0
0180
01E0
01E0
0000
00F7
03FF
079F
0E0E
1C0E
1C0E
380E
381C
381C
381C
383C
1CF8
1FF8
07B8
0038
E070
F0E0
7FE0
1F80
ENDCHAR
STARTCHAR Hcircumflex
ENCODING 292
SWIDTH 722 0
DWIDTH 19 0
BBX 19 24 2 0
BITMAP
007000
00F800
01DC00
038E00
000000
0E00E0
0E00E0
0E00E0
0E00E0
1C01C0
1C01C0
1C01C0
1C01C0
3FFF80
3FFF80
380380
380380
700700
700700
700700
700700
E00E00
E00E00
E00E00
ENDCHAR
STARTCHAR hcircumflex
ENCODING 293
SWIDTH 611 0
DWIDTH 15 0
BBX 13 24 2 0
BITMAP
0E00
1F00
3B80
71C0
0000
0E00
0E00
0E00
0E00
1C00
1DE0
1FF0
1E38
3C38
3838
3838
3838
7070
7070
7070
7070
E0E0
E0E0
E0E0
ENDCHAR
STARTCHAR Hbar
ENCODING 294
SWIDTH 722 0
DWIDTH 19 0
BBX 19 19 2 0
BITMAP
0E00E0
0E00E0
0E00E0
0E00E0
FFFFE0
FFFFE0
1C01C0
1C01C0
3FFF80
3FFF80
380380
380380
700700
700700
700700
700700
E00E00
E00E00
E00E00
ENDCHAR
STARTCHAR hbar
ENCODING 295
SWIDTH 611 0
DWIDTH 15 0
BBX 13 19 2 0
BITMAP
0E00
0E00
0E00
FE00
FE00
1DE0
1FF0
1E38
3C38
3838
3838
3838
7070
7070
7070
7070
E0E0
E0E0
E0E0
ENDCHAR
STARTCHAR Itilde
ENCODING 296
SWIDTH 278 0
DWIDTH 7 0
BBX 9 23 2 0
BITMAP
7980
FF80
CF00
0000
0E00
0E00
0E00
0E00
1C00
1C00
1C00
1C00
3800
3800
3800
3800
7000
7000
7000
7000
E000
E000
E000
ENDCHAR
STARTCHAR itilde
ENCODING 297
SWIDTH 278 0
DWIDTH 7 0
BBX 9 18 1 0
BITMAP
7980
FF80
CF00
0000
0E00
0E00
0E00
1C00
1C00
1C00
1C00
3800
3800
3800
3800
7000
7000
7000
ENDCHAR
STARTCHAR Imacron
ENCODING 298
SWIDTH 278 0
DWIDTH 7 0
BBX 8 22 2 0
BITMAP
7F
7F
00
0E
0E
0E
0E
1C
1C
1C
1C
38
38
38
38
70
70
70
70
E0
E0
E0
ENDCHAR
STARTCHAR imacron
ENCODING 299
SWIDTH 278 0
DWIDTH 7 0
BBX 7 17 2 0
BITMAP
FE
FE
00
1C
1C
1C
38
38
38
38
70
70
70
70
E0
E0
E0
ENDCHAR
STARTCHAR Ibreve
ENCODING 300
SWIDTH 278 0
DWIDTH 7 0
BBX 9 24 2 0
BITMAP
C180
E380
7F00
1C00
0000
0E00
0E00
0E00
0E00
1C00
1C00
1C00
1C00
3800
3800
3800
3800
7000
7000
7000
7000
E000
E000
E000
ENDCHAR
STARTCHAR ibreve
ENCODING 301
SWIDTH 278 0
DWIDTH 7 0
BBX 9 19 1 0
BITMAP
C180
E380
7F00
1C00
0000
0E00
0E00
0E00
1C00
1C00
1C00
1C00
3800
3800
3800
3800
7000
7000
7000
ENDCHAR
STARTCHAR Iogonek
ENCODING 302
SWIDTH 278 0
DWIDTH 7 0
BBX 8 24 1 -5
BITMAP
07
07
07
07
0E
0E
0E
0E
1C
1C
1C
1C
38
38
38
38
70
70
7C
70
E0
C4
FC
78
ENDCHAR
STARTCHAR iogonek
ENCODING 303
SWIDTH 278 0
DWIDTH 7 0
BBX 8 24 1 -5
BITMAP
07
07
07
00
00
0E
0E
0E
1C
1C
1C
1C
38
38
38
38
70
70
7C
70
E0
C4
FC
78
ENDCHAR
STARTCHAR Idotaccent
ENCODING 304
SWIDTH 278 0
DWIDTH 7 0
BBX 7 22 2 0
BITMAP
1C
1C
00
0E
0E
0E
0E
1C
1C
1C
1C
38
38
38
38
70
70
70
70
E0
E0
E0
ENDCHAR
STARTCHAR dotlessi
ENCODING 305
SWIDTH 278 0
DWIDTH 7 0
BBX 6 14 2 0
BITMAP
1C
1C
1C
38
38
38
38
70
70
70
70
E0
E0
E0
ENDCHAR
STARTCHAR IJ
ENCODING 306
SWIDTH 820 0
DWIDTH 21 0
BBX 21 19 2 0
BITMAP
0E0038
0E0038
0E0038
0E0038
1C0070
1C0070
1C0070
1C0070
3800E0
3800E0
3800E0
3800E0
7001C0
71C1C0
71C3C0
71C380
E1C780
E1FF00
E0FE00
ENDCHAR
STARTCHAR ij
ENCODING 307
SWIDTH 542 0
DWIDTH 14 0
BBX 14 24 2 -5
BITMAP
0E1C
0E1C
0E1C
0000
0000
1C38
1C38
1C38
3870
3870
3870
3870
70E0
70E0
70E0
70E0
E1C0
E1C0
E1C0
0380
0380
0380
0F00
0F00
ENDCHAR
STARTCHAR Jcircumflex
ENCODING 308
SWIDTH 556 0
DWIDTH 14 0
BBX 15 24 2 0
BITMAP
0070
00F8
01DC
038E
0000
001C
001C
001C
001C
0038
0038
0038
0038
0070
0070
0070
0070
00E0
E0E0
E1E0
E1C0
E3C0
FF80
7F00
ENDCHAR
STARTCHAR jcircumflex
ENCODING 309
SWIDTH 278 0
DWIDTH 7 0
BBX 11 24 -1 -5
BITMAP
0700
0F80
1DC0
38E0
0000
0380
0380
0380
0700
0700
0700
0700
0E00
0E00
0E00
0E00
1C00
1C00
1C00
3800
3800
3800
F000
F000
ENDCHAR
STARTCHAR Kcommaaccent
ENCODING 310
SWIDTH 722 0
DWIDTH 18 0
BBX 18 26 2 -7
BITMAP
0E03C0
0E0780
0E0F00
0E1E00
1C3800
1CF000
1DE000
1FC000
3F8000
3FC000
39E000
38E000
707000
707800
703C00
701C00
E00E00
E00F00
E00700
000000
01C000
01C000
01C000
00C000
018000
030000
ENDCHAR
STARTCHAR kcommaaccent
ENCODING 311
SWIDTH 556 0
DWIDTH 14 0
BBX 13 26 2 -7
BITMAP
0E00
0E00
0E00
0E00
1C00
1C38
1C70
1CE0
39C0
3F80
3F00
3F80
7380
71C0
71C0
70E0
E0E0
E070
E070
0000
0700
0700
0700
0300
0600
0C00
ENDCHAR
STARTCHAR kgreenlandic
ENCODING 312
SWIDTH 556 0
DWIDTH 14 0
BBX 13 14 2 0
BITMAP
1C38
1C70
1CE0
39C0
3F80
3F00
3F80
7380
71C0
71C0
70E0
E0E0
E070
E070
ENDCHAR
STARTCHAR Lacute
ENCODING 313
SWIDTH 611 0
DWIDTH 15 0
BBX 12 24 2 0
BITMAP
0380
0700
0E00
1C00
0000
0E00
0E00
0E00
0E00
1C00
1C00
1C00
1C00
3800
3800
3800
3800
7000
7000
7000
7000
E000
FFF0
FFF0
ENDCHAR
STARTCHAR lacute
ENCODING 314
SWIDTH 278 0
DWIDTH 7 0
BBX 8 24 2 0
BITMAP
07
0E
1C
38
00
0E
0E
0E
0E
1C
1C
1C
1C
38
38
38
38
70
70
70
70
E0
E0
E0
ENDCHAR
STARTCHAR Lcommaaccent
ENCODING 315
SWIDTH 611 0
DWIDTH 15 0
BBX 12 26 2 -7
BITMAP
0E00
0E00
0E00
0E00
1C00
1C00
1C00
1C00
3800
3800
3800
3800
7000
7000
7000
7000
E000
FFF0
FFF0
0000
0E00
0E00
0E00
0600
0C00
1800
ENDCHAR
STARTCHAR lcommaaccent
ENCODING 316
SWIDTH 278 0
DWIDTH 7 0
BBX 7 26 2 -7
BITMAP
0E
0E
0E
0E
1C
1C
1C
1C
38
38
38
38
70
70
70
70
E0
E0
E0
00
70
70
70
30
60
C0
ENDCHAR
STARTCHAR Lcaron
ENCODING 317
SWIDTH 858 0
DWIDTH 21 0
BBX 22 19 2 0
BITMAP
0E003C
0E003C
0E000C
0E0038
1C00E0
1C0000
1C0000
1C0000
380000
380000
380000
380000
700000
700000
700000
700000
E00000
FFF000
FFF000
ENDCHAR
STARTCHAR lcaron
ENCODING 318
SWIDTH 542 0
DWIDTH 14 0
BBX 15 19 2 0
BITMAP
0E1E
0E1E
0E06
0E1C
1C70
1C00
1C00
1C00
3800
3800
3800
3800
7000
7000
7000
7000
E000
E000
E000
ENDCHAR
STARTCHAR Ldot
ENCODING 319
SWIDTH 858 0
DWIDTH 21 0
BBX 19 19 2 0
BITMAP
0E0000
0E0000
0E0000
0E0000
1C0000
1C0000
1C0000
1C0000
380000
380000
3800E0
3800E0
7000E0
700000
700000
700000
E00000
FFF000
FFF000
ENDCHAR
STARTCHAR ldot
ENCODING 320
SWIDTH 542 0
DWIDTH 14 0
BBX 12 19 2 0
BITMAP
0E00
0E00
0E00
0E00
1C00
1C00
1C00
1C00
3800
3800
3870
3870
7070
7000
7000
7000
E000
E000
E000
ENDCHAR
STARTCHAR Lslash
ENCODING 321
SWIDTH 611 0
DWIDTH 15 0
BBX 12 19 2 0
BITMAP
0E00
0E00
0E00
0E00
1C00
1C00
1CC0
1F80
1E00
7C00
F800
3800
7000
7000
7000
7000
E000
FFF0
FFF0
ENDCHAR
STARTCHAR lslash
ENCODING 322
SWIDTH 278 0
DWIDTH 7 0
BBX 8 19 2 0
BITMAP
0E
0E
0E
0E
1C
1C
1F
1E
3C
78
F8
38
70
70
70
70
E0
E0
E0
ENDCHAR
STARTCHAR Nacute
ENCODING 323
SWIDTH 722 0
DWIDTH 19 0
BBX 19 24 2 0
BITMAP
001C00
003800
007000
00E000
000000
0E00E0
0E00E0
0F00E0
0F00E0
1F81C0
1D81C0
1DC1C0
19C1C0
39C380
38E380
38E380
386380
707300
707700
703700
703F00
E01E00
E01E00
E00E00
ENDCHAR
STARTCHAR nacute
ENCODING 324
SWIDTH 611 0
DWIDTH 15 0
BBX 13 19 2 0
BITMAP
00E0
01C0
0380
0700
0000
1DE0
1FF0
1E38
3C38
3838
3838
3838
7070
7070
7070
7070
E0E0
E0E0
E0E0
ENDCHAR
STARTCHAR Ncommaaccent
ENCODING 325
SWIDTH 722 0
DWIDTH 19 0
BBX 19 26 2 -7
BITMAP
0E00E0
0E00E0
0F00E0
0F00E0
1F81C0
1D81C0
1DC1C0
19C1C0
39C380
38E380
38E380
386380
707300
707700
703700
703F00
E01E00
E01E00
E00E00
000000
00E000
00E000
00E000
006000
00C000
018000
ENDCHAR
STARTCHAR ncommaaccent
ENCODING 326
SWIDTH 611 0
DWIDTH 15 0
BBX 13 21 2 -7
BITMAP
1DE0
1FF0
1E38
3C38
3838
3838
3838
7070
7070
7070
7070
E0E0
E0E0
E0E0
0000
0700
0700
0700
0300
0600
0C00
ENDCHAR
STARTCHAR Ncaron
ENCODING 327
SWIDTH 722 0
DWIDTH 19 0
BBX 19 24 2 0
BITMAP
038E00
01DC00
00F800
007000
000000
0E00E0
0E00E0
0F00E0
0F00E0
1F81C0
1D81C0
1DC1C0
19C1C0
39C380
38E380
38E380
386380
707300
707700
703700
703F00
E01E00
E01E00
E00E00
ENDCHAR
STARTCHAR ncaron
ENCODING 328
SWIDTH 611 0
DWIDTH 15 0
BBX 13 19 2 0
BITMAP
1C70
0EE0
07C0
0380
0000
1DE0
1FF0
1E38
3C38
3838
3838
3838
7070
7070
7070
7070
E0E0
E0E0
E0E0
ENDCHAR
STARTCHAR napostrophe
ENCODING 329
SWIDTH 875 0
DWIDTH 22 0
BBX 18 19 4 0
BITMAP
3C0000
3C0000
0C0000
380000
E00000
00EF00
00FF80
00F1C0
01E1C0
01C1C0
01C1C0
01C1C0
038380
038380
038380
038380
070700
070700
070700
ENDCHAR
STARTCHAR Eng
ENCODING 330
SWIDTH 722 0
DWIDTH 19 0
BBX 19 24 2 -5
BITMAP
0E00E0
0E00E0
0F00E0
0F00E0
1F81C0
1D81C0
1DC1C0
19C1C0
39C380
38E380
38E380
386380
707300
707700
703700
703F00
E01E00
E01E00
E00E00
001C00
001C00
001C00
007800
007800
ENDCHAR
STARTCHAR eng
ENCODING 331
SWIDTH 611 0
DWIDTH 15 0
BBX 13 19 2 -5
BITMAP
1DE0
1FF0
1E38
3C38
3838
3838
3838
7070
7070
7070
7070
E0E0
E0E0
E0E0
01C0
01C0
01C0
0780
0780
ENDCHAR
STARTCHAR Omacron
ENCODING 332
SWIDTH 778 0
DWIDTH 19 0
BBX 17 22 3 0
BITMAP
03F800
03F800
000000
01FC00
07FE00
0F8F00
1E0700
380780
780380
700380
F00380
E00380
E00380
E00380
E00780
E00700
E00F00
F01E00
703C00
78F800
3FF000
1FC000
ENDCHAR
STARTCHAR omacron
ENCODING 333
SWIDTH 611 0
DWIDTH 14 0
BBX 13 17 2 0
BITMAP
0FE0
0FE0
0000
03C0
0FF0
1E70
3838
7038
7038
E038
E038
E070
E070
E0E0
73C0
7F80
1E00
ENDCHAR
STARTCHAR Obreve
ENCODING 334
SWIDTH 778 0
DWIDTH 19 0
BBX 17 24 3 0
BITMAP
060C00
071C00
03F800
00E000
000000
01FC00
07FE00
0F8F00
1E0700
380780
780380
700380
F00380
E00380
E00380
E00380
E00780
E00700
E00F00
F01E00
703C00
78F800
3FF000
1FC000
ENDCHAR
STARTCHAR obreve
ENCODING 335
SWIDTH 611 0
DWIDTH 14 0
BBX 13 19 2 0
BITMAP
1830
1C70
0FE0
0380
0000
03C0
0FF0
1E70
3838
7038
7038
E038
E038
E070
E070
E0E0
73C0
7F80
1E00
ENDCHAR
STARTCHAR Ohungarumlaut
ENCODING 336
SWIDTH 778 0
DWIDTH 19 0
BBX 17 23 3 0
BITMAP
01CE00
039C00
073800
000000
01FC00
07FE00
0F8F00
1E0700
380780
780380
700380
F00380
E00380
E00380
E00380
E00780
E00700
E00F00
F01E00
703C00
78F800
3FF000
1FC000
ENDCHAR
STARTCHAR ohungarumlaut
ENCODING 337
SWIDTH 611 0
DWIDTH 14 0
BBX 13 18 2 0
BITMAP
0738
0E70
1CE0
0000
03C0
0FF0
1E70
3838
7038
7038
E038
E038
E070
E070
E0E0
73C0
7F80
1E00
ENDCHAR
STARTCHAR OE
ENCODING 338
SWIDTH 1000 0
DWIDTH 26 0
BBX 24 19 3 0
BITMAP
01FBFF
07FFFF
0F8F00
1E0700
380E00
780E00
700E00
F00E00
E01C00
E01FFC
E01FFC
E01C00
E03800
E03800
F03800
703800
78F000
3FFFFC
1FBFFC
ENDCHAR
STARTCHAR oe
ENCODING 339
SWIDTH 944 0
DWIDTH 23 0
BBX 22 14 2 0
BITMAP
03C1F0
0FF7F8
1E7F38
383C1C
70381C
70381C
E03FFC
E03FF8
E07000
E07000
E0F038
73F8F0
7FBFE0
1E0F80
ENDCHAR
STARTCHAR Racute
ENCODING 340
SWIDTH 722 0
DWIDTH 17 0
BBX 17 24 2 0
BITMAP
003800
007000
00E000
01C000
000000
0FFE00
0FFF00
0E0780
0E0380
1C0380
1C0380
1C0700
1C0F00
3FFE00
3FFC00
381E00
380E00
700E00
700E00
700E00
700E00
E01C00
E01C00
E01C00
ENDCHAR
STARTCHAR racute
ENCODING 341
SWIDTH 389 0
DWIDTH 10 0
BBX 10 19 2 0
BITMAP
0380
0700
0E00
1C00
0000
1CC0
1DC0
1FC0
3E00
3C00
3800
3800
7000
7000
7000
7000
E000
E000
E000
ENDCHAR
STARTCHAR Rcommaaccent
ENCODING 342
SWIDTH 722 0
DWIDTH 17 0
BBX 17 26 2 -7
BITMAP
0FFE00
0FFF00
0E0780
0E0380
1C0380
1C0380
1C0700
1C0F00
3FFE00
3FFC00
381E00
380E00
700E00
700E00
700E00
700E00
E01C00
E01C00
E01C00
000000
038000
038000
038000
018000
030000
060000
ENDCHAR
STARTCHAR rcommaaccent
ENCODING 343
SWIDTH 389 0
DWIDTH 10 0
BBX 10 21 2 -7
BITMAP
1CC0
1DC0
1FC0
3E00
3C00
3800
3800
7000
7000
7000
7000
E000
E000
E000
0000
3800
3800
3800
1800
3000
6000
ENDCHAR
STARTCHAR Rcaron
ENCODING 344
SWIDTH 722 0
DWIDTH 17 0
BBX 17 24 2 0
BITMAP
071C00
03B800
01F000
00E000
000000
0FFE00
0FFF00
0E0780
0E0380
1C0380
1C0380
1C0700
1C0F00
3FFE00
3FFC00
381E00
380E00
700E00
700E00
700E00
700E00
E01C00
E01C00
E01C00
ENDCHAR
STARTCHAR rcaron
ENCODING 345
SWIDTH 389 0
DWIDTH 10 0
BBX 10 19 2 0
BITMAP
71C0
3B80
1F00
0E00
0000
1CC0
1DC0
1FC0
3E00
3C00
3800
3800
7000
7000
7000
7000
E000
E000
E000
ENDCHAR
STARTCHAR Sacute
ENCODING 346
SWIDTH 667 0
DWIDTH 17 0
BBX 16 24 2 0
BITMAP
0038
0070
00E0
01C0
0000
00FC
03FE
078F
0E07
1C07
1C00
1E00
0F80
07F0
01FC
003E
000E
000E
E00E
E01E
F03C
7CF8
3FF0
0FC0
ENDCHAR
STARTCHAR sacute
ENCODING 347
SWIDTH 556 0
DWIDTH 13 0
BBX 12 19 2 0
BITMAP
01C0
0380
0700
0E00
0000
0FC0
3FE0
78F0
7070
7000
7C00
3F00
0FC0
01E0
E0E0
E0E0
F1E0
7FC0
3F00
ENDCHAR
STARTCHAR Scircumflex
ENCODING 348
SWIDTH 667 0
DWIDTH 17 0
BBX 16 24 2 0
BITMAP
00E0
01F0
03B8
071C
0000
00FC
03FE
078F
0E07
1C07
1C00
1E00
0F80
07F0
01FC
003E
000E
000E
E00E
E01E
F03C
7CF8
3FF0
0FC0
ENDCHAR
STARTCHAR scircumflex
ENCODING 349
SWIDTH 556 0
DWIDTH 13 0
BBX 12 19 2 0
BITMAP
0700
0F80
1DC0
38E0
0000
0FC0
3FE0
78F0
7070
7000
7C00
3F00
0FC0
01E0
E0E0
E0E0
F1E0
7FC0
3F00
ENDCHAR
STARTCHAR Scedilla
ENCODING 350
SWIDTH 667 0
DWIDTH 17 0
BBX 16 24 2 -5
BITMAP
00FC
03FE
078F
0E07
1C07
1C00
1E00
0F80
07F0
01FC
003E
000E
000E
E00E
E01E
F03C
7CF8
3FF0
0FC0
0380
01C0
0CC0
0F80
0700
ENDCHAR
STARTCHAR scedilla
ENCODING 351
SWIDTH 556 0
DWIDTH 13 0
BBX 12 19 2 -5
BITMAP
0FC0
3FE0
78F0
7070
7000
7C00
3F00
0FC0
01E0
E0E0
E0E0
F1E0
7FC0
3F00
0700
0380
1980
1F00
0E00
ENDCHAR
STARTCHAR Scaron
ENCODING 352
SWIDTH 667 0
DWIDTH 17 0
BBX 16 24 2 0
BITMAP
01C7
00EE
007C
0038
0000
00FC
03FE
078F
0E07
1C07
1C00
1E00
0F80
07F0
01FC
003E
000E
000E
E00E
E01E
F03C
7CF8
3FF0
0FC0
ENDCHAR
STARTCHAR scaron
ENCODING 353
SWIDTH 556 0
DWIDTH 13 0
BBX 12 19 2 0
BITMAP
1C70
0EE0
07C0
0380
0000
07C0
1FE0
3CE0
70E0
7000
7C00
3F00
0FC0
01E0
E0E0
E0E0
F3E0
7FC0
3F00
ENDCHAR
STARTCHAR Tcommaaccent
ENCODING 354
SWIDTH 611 0
DWIDTH 15 0
BBX 15 24 4 -5
BITMAP
FFFE
FFFE
0380
0380
0700
0700
0700
0700
0E00
0E00
0E00
0E00
1C00
1C00
1C00
1C00
3800
3800
3C00
0E00
0700
3300
3E00
1C00
ENDCHAR
STARTCHAR tcommaaccent
ENCODING 355
SWIDTH 333 0
DWIDTH 9 0
BBX 8 23 3 -5
BITMAP
0E
0E
0E
1C
7F
7F
1C
38
38
38
38
70
70
70
E0
E0
F8
78
38
1C
CC
F8
70
ENDCHAR
STARTCHAR Tcaron
ENCODING 356
SWIDTH 611 0
DWIDTH 15 0
BBX 15 24 4 0
BITMAP
1C70
0EE0
07C0
0380
0000
FFFE
FFFE
0380
0380
0700
0700
0700
0700
0E00
0E00
0E00
0E00
1C00
1C00
1C00
1C00
3800
3800
3800
ENDCHAR
STARTCHAR tcaron
ENCODING 357
SWIDTH 594 0
DWIDTH 16 0
BBX 16 19 3 0
BITMAP
000F
0E0F
0E03
0E0E
1C38
7F00
7F00
1C00
3800
3800
3800
3800
7000
7000
7000
E000
E000
F800
7800
ENDCHAR
STARTCHAR Tbar
ENCODING 358
SWIDTH 611 0
DWIDTH 15 0
BBX 15 19 4 0
BITMAP
FFFE
FFFE
0380
0380
0700
0700
0700
0700
0FE0
0FE0
0E00
0E00
1C00
1C00
1C00
1C00
3800
3800
3800
ENDCHAR
STARTCHAR tbar
ENCODING 359
SWIDTH 333 0
DWIDTH 9 0
BBX 8 18 3 0
BITMAP
0E
0E
0E
1C
7F
7F
1C
38
38
38
7F
7F
70
70
E0
E0
F8
78
ENDCHAR
STARTCHAR Utilde
ENCODING 360
SWIDTH 722 0
DWIDTH 19 0
BBX 18 23 3 0
BITMAP
03CC00
07FC00
067800
000000
1C01C0
1C01C0
1C01C0
1C01C0
380380
380380
380380
380380
700700
700700
700700
700F00
E00E00
E01E00
E01C00
F03C00
78F800
7FF000
1FC000
ENDCHAR
STARTCHAR utilde
ENCODING 361
SWIDTH 611 0
DWIDTH 15 0
BBX 13 18 3 0
BITMAP
0F30
1FF0
19E0
0000
3838
3838
3838
7070
7070
7070
7070
E0E0
E0E0
E1E0
E3E0
E7C0
7DC0
39C0
ENDCHAR
STARTCHAR Umacron
ENCODING 362
SWIDTH 722 0
DWIDTH 19 0
BBX 18 22 3 0
BITMAP
03F800
03F800
000000
1C01C0
1C01C0
1C01C0
1C01C0
380380
380380
380380
380380
700700
700700
700700
700F00
E00E00
E01E00
E01C00
F03C00
78F800
7FF000
1FC000
ENDCHAR
STARTCHAR umacron
ENCODING 363
SWIDTH 611 0
DWIDTH 15 0
BBX 13 17 3 0
BITMAP
0FE0
0FE0
0000
3838
3838
3838
7070
7070
7070
7070
E0E0
E0E0
E1E0
E3E0
E7C0
7DC0
39C0
ENDCHAR
STARTCHAR Ubreve
ENCODING 364
SWIDTH 722 0
DWIDTH 19 0
BBX 18 24 3 0
BITMAP
060C00
071C00
03F800
00E000
000000
1C01C0
1C01C0
1C01C0
1C01C0
380380
380380
380380
380380
700700
700700
700700
700F00
E00E00
E01E00
E01C00
F03C00
78F800
7FF000
1FC000
ENDCHAR
STARTCHAR ubreve
ENCODING 365
SWIDTH 611 0
DWIDTH 15 0
BBX 13 19 3 0
BITMAP
1830
1C70
0FE0
0380
0000
3838
3838
3838
7070
7070
7070
7070
E0E0
E0E0
E1E0
E3E0
E7C0
7DC0
39C0
ENDCHAR
STARTCHAR Uring
ENCODING 366
SWIDTH 722 0
DWIDTH 19 0
BBX 18 25 3 0
BITMAP
00F000
019800
019800
019800
00F000
000000
1C01C0
1C01C0
1C01C0
1C01C0
380380
380380
380380
380380
700700
700700
700700
700F00
E00E00
E01E00
E01C00
F03C00
78F800
7FF000
1FC000
ENDCHAR
STARTCHAR uring
ENCODING 367
SWIDTH 611 0
DWIDTH 15 0
BBX 13 20 3 0
BITMAP
0780
0CC0
0CC0
0CC0
0780
0000
3838
3838
3838
7070
7070
7070
7070
E0E0
E0E0
E1E0
E3E0
E7C0
7DC0
39C0
ENDCHAR
STARTCHAR Uhungarumlaut
ENCODING 368
SWIDTH 722 0
DWIDTH 19 0
BBX 18 23 3 0
BITMAP
00E700
01CE00
039C00
000000
1C01C0
1C01C0
1C01C0
1C01C0
380380
380380
380380
380380
700700
700700
700700
700F00
E00E00
E01E00
E01C00
F03C00
78F800
7FF000
1FC000
ENDCHAR
STARTCHAR uhungarumlaut
ENCODING 369
SWIDTH 611 0
DWIDTH 15 0
BBX 13 18 3 0
BITMAP
0738
0E70
1CE0
0000
3838
3838
3838
7070
7070
7070
7070
E0E0
E0E0
E1E0
E3E0
E7C0
7DC0
39C0
ENDCHAR
STARTCHAR Uogonek
ENCODING 370
SWIDTH 722 0
DWIDTH 19 0
BBX 18 24 3 -5
BITMAP
1C01C0
1C01C0
1C01C0
1C01C0
380380
380380
380380
380380
700700
700700
700700
700F00
E00E00
E01E00
E01C00
F03C00
78F800
7FF000
1FC000
070000
0E0000
0C4000
0FC000
078000
ENDCHAR
STARTCHAR uogonek
ENCODING 371
SWIDTH 611 0
DWIDTH 15 0
BBX 13 19 3 -5
BITMAP
3838
3838
3838
7070
7070
7070
7070
E0E0
E0E0
E1E0
E3E0
E7C0
7DC0
3FC0
0E00
1C00
1880
1F80
0F00
ENDCHAR
STARTCHAR Wcircumflex
ENCODING 372
SWIDTH 944 0
DWIDTH 23 0
BBX 21 24 5 0
BITMAP
007000
00F800
01DC00
038E00
000000
E07038
E07038
E07070
E0F070
E0F0E0
E0F0E0
E1F0E0
E1F1C0
E3F1C0
E37380
E77380
E67380
EE7700
7C3700
7C3E00
783E00
783C00
703800
703800
ENDCHAR
STARTCHAR wcircumflex
ENCODING 373
SWIDTH 778 0
DWIDTH 19 0
BBX 19 19 3 0
BITMAP
00E000
01F000
03B800
071C00
000000
E0E0E0
E1E0E0
E1E1C0
E3E380
E36380
E76700
E66700
EE6E00
EC6C00
7C7C00
787800
787800
707000
707000
ENDCHAR
STARTCHAR Ycircumflex
ENCODING 374
SWIDTH 667 0
DWIDTH 17 0
BBX 16 24 5 0
BITMAP
0380
07C0
0EE0
1C70
0000
E00F
E01E
E03C
7078
7070
70E0
39C0
39C0
3B80
3F00
1F00
1E00
1C00
1C00
1C00
3800
3800
3800
3800
ENDCHAR
STARTCHAR ycircumflex
ENCODING 375
SWIDTH 556 0
DWIDTH 14 0
BBX 14 24 2 -5
BITMAP
0380
07C0
0EE0
1C70
0000
701C
701C
7038
7038
3870
3870
38E0
38E0
1DC0
1DC0
1F80
0F00
0F00
0E00
0E00
1C00
3800
F800
F000
ENDCHAR
STARTCHAR Ydieresis
ENCODING 376
SWIDTH 667 0
DWIDTH 17 0
BBX 16 22 5 0
BITMAP
0E70
0E70
0000
E00F
E01E
E03C
7078
7070
70E0
39C0
39C0
3B80
3F00
1F00
1E00
1C00
1C00
1C00
3800
3800
3800
3800
ENDCHAR
STARTCHAR Zacute
ENCODING 377
SWIDTH 611 0
DWIDTH 16 0
BBX 18 24 1 0
BITMAP
000E00
001C00
003800
007000
000000
0FFFC0
0FFFC0
0003C0
000780
000F00
001E00
003C00
007800
00F000
01E000
03C000
078000
0F0000
1E0000
3C0000
780000
F00000
FFFE00
FFFE00
ENDCHAR
STARTCHAR zacute
ENCODING 378
SWIDTH 500 0
DWIDTH 13 0
BBX 13 19 1 0
BITMAP
00E0
01C0
0380
0700
0000
1FF8
1FF8
0070
00E0
01C0
0380
0700
0E00
1C00
3800
7000
E000
FFE0
FFE0
ENDCHAR
STARTCHAR Zdotaccent
ENCODING 379
SWIDTH 611 0
DWIDTH 16 0
BBX 18 22 1 0
BITMAP
003800
003800
000000
0FFFC0
0FFFC0
0003C0
000780
000F00
001E00
003C00
007800
00F000
01E000
03C000
078000
0F0000
1E0000
3C0000
780000
F00000
FFFE00
FFFE00
ENDCHAR
STARTCHAR zdotaccent
ENCODING 380
SWIDTH 500 0
DWIDTH 13 0
BBX 13 17 1 0
BITMAP
0380
0380
0000
1FF8
1FF8
0070
00E0
01C0
0380
0700
0E00
1C00
3800
7000
E000
FFE0
FFE0
ENDCHAR
STARTCHAR Zcaron
ENCODING 381
SWIDTH 611 0
DWIDTH 16 0
BBX 18 24 1 0
BITMAP
01C700
00EE00
007C00
003800
000000
0FFFC0
0FFFC0
0003C0
000780
000F00
001E00
003C00
007800
00F000
01E000
03C000
078000
0F0000
1E0000
3C0000
780000
F00000
FFFE00
FFFE00
ENDCHAR
STARTCHAR zcaron
ENCODING 382
SWIDTH 500 0
DWIDTH 13 0
BBX 13 19 1 0
BITMAP
0E38
0770
03E0
01C0
0000
1FF8
1FF8
0070
00E0
01C0
0380
0700
0E00
1C00
3800
7000
E000
FFE0
FFE0
ENDCHAR
STARTCHAR uni0186
ENCODING 390
SWIDTH 722 0
DWIDTH 18 0
BBX 16 19 3 0
BITMAP
03F8
0FFC
1F1E
3C0E
780F
7007
0007
0007
0007
0007
0007
000F
000E
001E
E01C
E078
F1F0
7FE0
3F80
ENDCHAR
STARTCHAR uni0189
ENCODING 393
SWIDTH 722 0
DWIDTH 19 0
BBX 18 19 2 0
BITMAP
0FFC00
0FFF00
0E0F80
0E0380
1C01C0
1C01C0
1C01C0
1C01C0
FF81C0
FF81C0
3801C0
380380
700380
700780
700F00
701E00
E07C00
FFF800
FFE000
ENDCHAR
STARTCHAR uni018E
ENCODING 398
SWIDTH 667 0
DWIDTH 16 0
BBX 16 19 2 0
BITMAP
1FFF
1FFF
0007
000E
000E
000E
000E
001C
001C
1FFC
1FFC
0038
0038
0038
0038
0070
0070
FFF0
FFF0
ENDCHAR
STARTCHAR florin
ENCODING 402
SWIDTH 556 0
DWIDTH 14 0
BBX 14 23 -1 -5
BITMAP
003C
00FC
00E0
01C0
01C0
01C0
0FF8
0FF8
0380
0380
0380
0700
0700
0700
0700
0600
0E00
0E00
0E00
1C00
3C00
F800
F000
ENDCHAR
STARTCHAR uni0197
ENCODING 407
SWIDTH 278 0
DWIDTH 7 0
BBX 7 19 2 0
BITMAP
0E
0E
0E
0E
1C
1C
1C
1C
FE
FE
38
38
70
70
70
70
E0
E0
E0
ENDCHAR
STARTCHAR uni019A
ENCODING 410
SWIDTH 278 0
DWIDTH 7 0
BBX 7 19 2 0
BITMAP
0E
0E
0E
0E
1C
1C
1C
1C
FE
FE
38
38
70
70
70
70
E0
E0
E0
ENDCHAR
STARTCHAR uni019D
ENCODING 413
SWIDTH 722 0
DWIDTH 19 0
BBX 22 24 -1 -5
BITMAP
01C01C
01C01C
01E01C
01E01C
03F038
03B038
03B838
033838
073870
071C70
071C70
070C70
0E0E60
0E0EE0
0E06E0
0E07E0
1C03C0
1C03C0
1C01C0
380000
380000
380000
F00000
F00000
ENDCHAR
STARTCHAR uni019F
ENCODING 415
SWIDTH 778 0
DWIDTH 19 0
BBX 17 19 3 0
BITMAP
01FC00
07FE00
0F8F00
1E0700
380780
780380
700380
F00380
FFFF80
FFFF80
E00380
E00780
E00700
E00F00
F01E00
703C00
78F800
3FF000
1FC000
ENDCHAR
STARTCHAR Ohorn
ENCODING 416
SWIDTH 778 0
DWIDTH 19 0
BBX 21 19 3 0
BITMAP
01FC78
07FE78
0F8F18
1E0770
3807C0
780380
700380
F00380
E00380
E00380
E00380
E00780
E00700
E00F00
F01E00
703C00
78F800
3FF000
1FC000
ENDCHAR
STARTCHAR ohorn
ENCODING 417
SWIDTH 611 0
DWIDTH 14 0
BBX 18 14 2 0
BITMAP
03C3C0
0FF3C0
1E70C0
383B80
703E00
703800
E03800
E03800
E07000
E07000
E0E000
73C000
7F8000
1E0000
ENDCHAR
STARTCHAR Uhorn
ENCODING 431
SWIDTH 722 0
DWIDTH 19 0
BBX 22 19 3 0
BITMAP
1C01FC
1C01FC
1C01CC
1C01F8
3803E0
380380
380380
380380
700700
700700
700700
700F00
E00E00
E01E00
E01C00
F03C00
78F800
7FF000
1FC000
ENDCHAR
STARTCHAR uhorn
ENCODING 432
SWIDTH 611 0
DWIDTH 15 0
BBX 18 14 3 0
BITMAP
383BC0
383BC0
3838C0
707380
707E00
707000
707000
E0E000
E0E000
E1E000
E3E000
E7C000
7DC000
39C000
ENDCHAR
STARTCHAR uni01B5
ENCODING 437
SWIDTH 611 0
DWIDTH 16 0
BBX 18 19 1 0
BITMAP
0FFFC0
0FFFC0
0003C0
000780
000F00
001E00
003C00
007800
03F800
03F800
03C000
078000
0F0000
1E0000
3C0000
780000
F00000
FFFE00
FFFE00
ENDCHAR
STARTCHAR uni01B6
ENCODING 438
SWIDTH 500 0
DWIDTH 13 0
BBX 13 14 1 0
BITMAP
1FF8
1FF8
0070
00E0
01C0
0380
1FC0
1FC0
1C00
3800
7000
E000
FFE0
FFE0
ENDCHAR
STARTCHAR uni01BB
ENCODING 443
SWIDTH 556 0
DWIDTH 13 0
BBX 15 18 0 0
BITMAP
01F8
07FC
0F1E
1E0E
1C0E
000E
001C
003C
FFFE
FFFE
0780
0F00
1C00
3800
7000
E000
FFF0
FFF0
ENDCHAR
STARTCHAR uni01BC
ENCODING 444
SWIDTH 556 0
DWIDTH 13 0
BBX 14 18 1 0
BITMAP
0FFC
0FFC
0E00
1C00
1C00
1C00
3FC0
3FE0
38F0
0070
0070
0070
0070
E0F0
E0E0
F3C0
7F80
3F00
ENDCHAR
STARTCHAR uni01C0
ENCODING 448
SWIDTH 280 0
DWIDTH 7 0
BBX 8 24 1 -5
BITMAP
03
03
07
06
06
0E
0E
0C
0C
1C
1C
18
18
38
38
30
30
70
70
60
60
E0
C0
C0
ENDCHAR
STARTCHAR uni01C2
ENCODING 450
SWIDTH 584 0
DWIDTH 14 0
BBX 11 24 3 -5
BITMAP
00C0
00C0
01C0
0180
0180
0380
0380
0300
0300
7FE0
7FE0
0600
0600
FFC0
FFC0
0C00
0C00
1C00
1C00
1800
1800
3800
3000
3000
ENDCHAR
STARTCHAR uni01C3
ENCODING 451
SWIDTH 333 0
DWIDTH 8 0
BBX 8 19 2 0
BITMAP
07
07
07
0E
0E
0E
1C
1C
1C
18
18
38
30
30
00
00
E0
E0
E0
ENDCHAR
STARTCHAR uni01CD
ENCODING 461
SWIDTH 722 0
DWIDTH 18 0
BBX 16 24 1 0
BITMAP
038E
01DC
00F8
0070
0000
001C
003C
007C
007C
00EE
01CE
01CE
038E
070E
070E
0E0E
0E0E
1FFE
3FFF
3807
7007
7007
E007
E007
ENDCHAR
STARTCHAR uni01CE
ENCODING 462
SWIDTH 556 0
DWIDTH 14 0
BBX 12 19 2 0
BITMAP
38E0
1DC0
0F80
0700
0000
07E0
1FF0
3C70
3870
00F0
07E0
1FE0
3CE0
70E0
E0E0
E1C0
E7C0
FFC0
79C0
ENDCHAR
STARTCHAR uni01CF
ENCODING 463
SWIDTH 278 0
DWIDTH 7 0
BBX 9 24 2 0
BITMAP
E380
7700
3E00
1C00
0000
0E00
0E00
0E00
0E00
1C00
1C00
1C00
1C00
3800
3800
3800
3800
7000
7000
7000
7000
E000
E000
E000
ENDCHAR
STARTCHAR uni01D0
ENCODING 464
SWIDTH 278 0
DWIDTH 7 0
BBX 9 19 1 0
BITMAP
E380
7700
3E00
1C00
0000
0E00
0E00
0E00
1C00
1C00
1C00
1C00
3800
3800
3800
3800
7000
7000
7000
ENDCHAR
STARTCHAR uni01D1
ENCODING 465
SWIDTH 778 0
DWIDTH 19 0
BBX 17 24 3 0
BITMAP
071C00
03B800
01F000
00E000
000000
01FC00
07FE00
0F8F00
1E0700
380780
780380
700380
F00380
E00380
E00380
E00380
E00780
E00700
E00F00
F01E00
703C00
78F800
3FF000
1FC000
ENDCHAR
STARTCHAR uni01D2
ENCODING 466
SWIDTH 611 0
DWIDTH 14 0
BBX 13 19 2 0
BITMAP
1C70
0EE0
07C0
0380
0000
03C0
0FF0
1E70
3838
7038
7038
E038
E038
E070
E070
E0E0
73C0
7F80
1E00
ENDCHAR
STARTCHAR uni01D3
ENCODING 467
SWIDTH 722 0
DWIDTH 19 0
BBX 18 24 3 0
BITMAP
071C00
03B800
01F000
00E000
000000
1C01C0
1C01C0
1C01C0
1C01C0
380380
380380
380380
380380
700700
700700
700700
700F00
E00E00
E01E00
E01C00
F03C00
78F800
7FF000
1FC000
ENDCHAR
STARTCHAR uni01D4
ENCODING 468
SWIDTH 611 0
DWIDTH 15 0
BBX 13 19 3 0
BITMAP
1C70
0EE0
07C0
0380
0000
3838
3838
3838
7070
7070
7070
7070
E0E0
E0E0
E1E0
E3E0
E7C0
7DC0
39C0
ENDCHAR
STARTCHAR uni01D5
ENCODING 469
SWIDTH 722 0
DWIDTH 19 0
BBX 18 26 3 0
BITMAP
01FC00
01FC00
000000
01CE00
01CE00
000000
000000
1C01C0
1C01C0
1C01C0
1C01C0
380380
380380
380380
380380
700700
700700
700700
700F00
E00E00
E01E00
E01C00
F03C00
78F800
7FF000
1FC000
ENDCHAR
STARTCHAR uni01D6
ENCODING 470
SWIDTH 611 0
DWIDTH 15 0
BBX 13 21 3 0
BITMAP
0FE0
0FE0
0000
0E70
0E70
0000
0000
3838
3838
3838
7070
7070
7070
7070
E0E0
E0E0
E1E0
E3E0
E7C0
7DC0
39C0
ENDCHAR
STARTCHAR uni01D7
ENCODING 471
SWIDTH 722 0
DWIDTH 19 0
BBX 18 28 3 0
BITMAP
001C00
003800
007000
00E000
000000
01CE00
01CE00
000000
000000
1C01C0
1C01C0
1C01C0
1C01C0
380380
380380
380380
380380
700700
700700
700700
700F00
E00E00
E01E00
E01C00
F03C00
78F800
7FF000
1FC000
ENDCHAR
STARTCHAR uni01D8
ENCODING 472
SWIDTH 611 0
DWIDTH 15 0
BBX 13 23 3 0
BITMAP
00E0
01C0
0380
0700
0000
0E70
0E70
0000
0000
3838
3838
3838
7070
7070
7070
7070
E0E0
E0E0
E1E0
E3E0
E7C0
7DC0
39C0
ENDCHAR
STARTCHAR uni01D9
ENCODING 473
SWIDTH 722 0
DWIDTH 19 0
BBX 18 28 3 0
BITMAP
038E00
01DC00
00F800
007000
000000
01CE00
01CE00
000000
000000
1C01C0
1C01C0
1C01C0
1C01C0
380380
380380
380380
380380
700700
700700
700700
700F00
E00E00
E01E00
E01C00
F03C00
78F800
7FF000
1FC000
ENDCHAR
STARTCHAR uni01DA
ENCODING 474
SWIDTH 611 0
DWIDTH 15 0
BBX 13 23 3 0
BITMAP
1C70
0EE0
07C0
0380
0000
0E70
0E70
0000
0000
3838
3838
3838
7070
7070
7070
7070
E0E0
E0E0
E1E0
E3E0
E7C0
7DC0
39C0
ENDCHAR
STARTCHAR uni01DB
ENCODING 475
SWIDTH 722 0
DWIDTH 19 0
BBX 18 28 3 0
BITMAP
01C000
00E000
007000
003800
000000
01CE00
01CE00
000000
000000
1C01C0
1C01C0
1C01C0
1C01C0
380380
380380
380380
380380
700700
700700
700700
700F00
E00E00
E01E00
E01C00
F03C00
78F800
7FF000
1FC000
ENDCHAR
STARTCHAR uni01DC
ENCODING 476
SWIDTH 611 0
DWIDTH 15 0
BBX 13 23 3 0
BITMAP
0E00
0700
0380
01C0
0000
0E70
0E70
0000
0000
3838
3838
3838
7070
7070
7070
7070
E0E0
E0E0
E1E0
E3E0
E7C0
7DC0
39C0
ENDCHAR
STARTCHAR uni01DD
ENCODING 477
SWIDTH 556 0
DWIDTH 14 0
BBX 13 14 2 0
BITMAP
03C0
0FF0
1E70
3838
0038
0038
7FF8
FFF8
E070
E070
E0E0
73C0
7F80
3E00
ENDCHAR
STARTCHAR uni01DE
ENCODING 478
SWIDTH 722 0
DWIDTH 18 0
BBX 16 26 1 0
BITMAP
01FC
01FC
0000
00E7
00E7
0000
0000
001C
003C
007C
007C
00EE
01CE
01CE
038E
070E
070E
0E0E
0E0E
1FFE
3FFF
3807
7007
7007
E007
E007
ENDCHAR
STARTCHAR uni01DF
ENCODING 479
SWIDTH 556 0
DWIDTH 14 0
BBX 12 21 2 0
BITMAP
0FE0
0FE0
0000
0E70
0E70
0000
0000
07E0
1FF0
3C70
3870
00F0
07E0
1FE0
3CE0
70E0
E0E0
E1C0
E7C0
FFC0
79C0
ENDCHAR
STARTCHAR uni01E0
ENCODING 480
SWIDTH 722 0
DWIDTH 18 0
BBX 16 25 1 0
BITMAP
01FC
01FC
0000
0070
0070
0000
001C
003C
007C
007C
00EE
01CE
01CE
038E
070E
070E
0E0E
0E0E
1FFE
3FFF
3807
7007
7007
E007
E007
ENDCHAR
STARTCHAR uni01E1
ENCODING 481
SWIDTH 556 0
DWIDTH 14 0
BBX 12 20 2 0
BITMAP
1FC0
1FC0
0000
0700
0700
0000
07E0
1FF0
3C70
3870
00F0
07E0
1FE0
3CE0
70E0
E0E0
E1C0
E7C0
FFC0
79C0
ENDCHAR
STARTCHAR uni01E2
ENCODING 482
SWIDTH 1000 0
DWIDTH 24 0
BBX 26 22 0 0
BITMAP
000FE000
000FE000
00000000
001FFFC0
003FFFC0
007B8000
00778000
00E70000
01C70000
01C70000
03870000
070FFE00
070FFE00
0E0E0000
0E0E0000
1FFC0000
3FFC0000
381C0000
701C0000
70380000
E03FFE00
E03FFE00
ENDCHAR
STARTCHAR uni01E3
ENCODING 483
SWIDTH 889 0
DWIDTH 22 0
BBX 21 17 2 0
BITMAP
00FE00
00FE00
000000
07E3E0
1FFFF0
3C7E70
387838
00F038
07F038
1FFFF8
3CFFF0
70E000
E0E000
E1E070
E7F1E0
FF3FC0
7C1F00
ENDCHAR
STARTCHAR uni01E4
ENCODING 484
SWIDTH 778 0
DWIDTH 19 0
BBX 18 19 3 0
BITMAP
01FC00
07FE00
0F8F00
1E0700
380700
780000
700000
F00000
E00000
E07F80
E07F80
E00700
E00700
E01FC0
F01FC0
701E00
787E00
3FFC00
1FCC00
ENDCHAR
STARTCHAR uni01E5
ENCODING 485
SWIDTH 611 0
DWIDTH 15 0
BBX 16 19 0 -5
BITMAP
00F7
03FF
079F
0E0E
1C0E
1C0E
380E
381C
381C
381C
383C
1CF8
1FF8
FFFF
FFFF
E070
F0E0
7FE0
1F80
ENDCHAR
STARTCHAR Gcaron
ENCODING 486
SWIDTH 778 0
DWIDTH 19 0
BBX 17 24 3 0
BITMAP
071C00
03B800
01F000
00E000
000000
01FC00
07FE00
0F8F00
1E0700
380700
780000
700000
F00000
E00000
E07F80
E07F80
E00700
E00700
E00F00
F00E00
701E00
787E00
3FFC00
1FCC00
ENDCHAR
STARTCHAR gcaron
ENCODING 487
SWIDTH 611 0
DWIDTH 15 0
BBX 16 24 0 -5
BITMAP
071C
03B8
01F0
00E0
0000
00F7
03FF
079F
0E0E
1C0E
1C0E
380E
381C
381C
381C
383C
1CF8
1FF8
07B8
0038
E070
F0E0
7FE0
1F80
ENDCHAR
STARTCHAR uni01E8
ENCODING 488
SWIDTH 722 0
DWIDTH 18 0
BBX 18 24 2 0
BITMAP
071C00
03B800
01F000
00E000
000000
0E03C0
0E0780
0E0F00
0E1E00
1C3800
1CF000
1DE000
1FC000
3F8000
3FC000
39E000
38E000
707000
707800
703C00
701C00
E00E00
E00F00
E00700
ENDCHAR
STARTCHAR uni01E9
ENCODING 489
SWIDTH 556 0
DWIDTH 14 0
BBX 13 24 2 0
BITMAP
71C0
3B80
1F00
0E00
0000
0E00
0E00
0E00
0E00
1C00
1C38
1C70
1CE0
39C0
3F80
3F00
3F80
7380
71C0
71C0
70E0
E0E0
E070
E070
ENDCHAR
STARTCHAR uni01EA
ENCODING 490
SWIDTH 778 0
DWIDTH 19 0
BBX 17 24 3 -5
BITMAP
01FC00
07FE00
0F8F00
1E0700
380780
780380
700380
F00380
E00380
E00380
E00380
E00780
E00700
E00F00
F01E00
703C00
78F800
3FF000
1FC000
070000
0E0000
0C4000
0FC000
078000
ENDCHAR
STARTCHAR uni01EB
ENCODING 491
SWIDTH 611 0
DWIDTH 14 0
BBX 13 19 2 -5
BITMAP
03C0
0FF0
1E70
3838
7038
7038
E038
E038
E070
E070
E0E0
73C0
7F80
1F00
1C00
3800
3100
3F00
1E00
ENDCHAR
STARTCHAR uni01EC
ENCODING 492
SWIDTH 778 0
DWIDTH 19 0
BBX 17 27 3 -5
BITMAP
03F800
03F800
000000
01FC00
07FE00
0F8F00
1E0700
380780
780380
700380
F00380
E00380
E00380
E00380
E00780
E00700
E00F00
F01E00
703C00
78F800
3FF000
1FC000
070000
0E0000
0C4000
0FC000
078000
ENDCHAR
STARTCHAR uni01ED
ENCODING 493
SWIDTH 611 0
DWIDTH 14 0
BBX 13 22 2 -5
BITMAP
0FE0
0FE0
0000
03C0
0FF0
1E70
3838
7038
7038
E038
E038
E070
E070
E0E0
73C0
7F80
1F00
1C00
3800
3100
3F00
1E00
ENDCHAR
STARTCHAR uni01F0
ENCODING 496
SWIDTH 278 0
DWIDTH 7 0
BBX 11 24 -1 -5
BITMAP
38E0
1DC0
0F80
0700
0000
0380
0380
0380
0700
0700
0700
0700
0E00
0E00
0E00
0E00
1C00
1C00
1C00
3800
3800
3800
F000
F000
ENDCHAR
STARTCHAR uni01F4
ENCODING 500
SWIDTH 778 0
DWIDTH 19 0
BBX 17 24 3 0
BITMAP
003800
007000
00E000
01C000
000000
01FC00
07FE00
0F8F00
1E0700
380700
780000
700000
F00000
E00000
E07F80
E07F80
E00700
E00700
E00F00
F00E00
701E00
787E00
3FFC00
1FCC00
ENDCHAR
STARTCHAR uni01F5
ENCODING 501
SWIDTH 611 0
DWIDTH 15 0
BBX 16 24 0 -5
BITMAP
0038
0070
00E0
01C0
0000
00F7
03FF
079F
0E0E
1C0E
1C0E
380E
381C
381C
381C
383C
1CF8
1FF8
07B8
0038
E070
F0E0
7FE0
1F80
ENDCHAR
STARTCHAR uni01F8
ENCODING 504
SWIDTH 722 0
DWIDTH 19 0
BBX 19 24 2 0
BITMAP
01C000
00E000
007000
003800
000000
0E00E0
0E00E0
0F00E0
0F00E0
1F81C0
1D81C0
1DC1C0
19C1C0
39C380
38E380
38E380
386380
707300
707700
703700
703F00
E01E00
E01E00
E00E00
ENDCHAR
STARTCHAR uni01F9
ENCODING 505
SWIDTH 611 0
DWIDTH 15 0
BBX 13 19 2 0
BITMAP
1C00
0E00
0700
0380
0000
1DE0
1FF0
1E38
3C38
3838
3838
3838
7070
7070
7070
7070
E0E0
E0E0
E0E0
ENDCHAR
STARTCHAR Aringacute
ENCODING 506
SWIDTH 722 0
DWIDTH 18 0
BBX 16 29 1 0
BITMAP
000E
001C
0038
0070
0000
001E
0033
0033
0033
001E
001C
003C
007C
007C
00EE
01CE
01CE
038E
070E
070E
0E0E
0E0E
1FFE
3FFF
3807
7007
7007
E007
E007
ENDCHAR
STARTCHAR aringacute
ENCODING 507
SWIDTH 556 0
DWIDTH 14 0
BBX 12 24 2 0
BITMAP
00E0
01C0
0380
0700
0000
03C0
0660
0660
0660
03C0
07E0
1FF0
3C70
3870
00F0
07E0
1FE0
3CE0
70E0
E0E0
E1C0
E7C0
FFC0
79C0
ENDCHAR
STARTCHAR AEacute
ENCODING 508
SWIDTH 1000 0
DWIDTH 24 0
BBX 26 24 0 0
BITMAP
0000E000
0001C000
00038000
00070000
00000000
001FFFC0
003FFFC0
007B8000
00778000
00E70000
01C70000
01C70000
03870000
070FFE00
070FFE00
0E0E0000
0E0E0000
1FFC0000
3FFC0000
381C0000
701C0000
70380000
E03FFE00
E03FFE00
ENDCHAR
STARTCHAR aeacute
ENCODING 509
SWIDTH 889 0
DWIDTH 22 0
BBX 21 19 2 0
BITMAP
000E00
001C00
003800
007000
000000
07E3E0
1FFFF0
3C7E70
387838
00F038
07F038
1FFFF8
3CFFF0
70E000
E0E000
E1E070
E7F1E0
FF3FC0
7C1F00
ENDCHAR
STARTCHAR Oslashacute
ENCODING 510
SWIDTH 778 0
DWIDTH 19 0
BBX 20 24 1 0
BITMAP
000E00
001C00
003800
007000
000000
007F30
01FFE0
03E3C0
0781E0
0E03E0
1E06E0
1C0CE0
3C18E0
3830E0
3860E0
38C0E0
3981E0
3B01C0
3E03C0
3C0780
380F00
3C3E00
6FFC00
C7F000
ENDCHAR
STARTCHAR oslashacute
ENCODING 511
SWIDTH 611 0
DWIDTH 14 0
BBX 15 19 1 0
BITMAP
0070
00E0
01C0
0380
0000
01E6
07FC
0F18
1C3C
386C
30CC
718C
631C
6618
6C38
7870
30E0
7FC0
CF00
ENDCHAR
STARTCHAR Scommaaccent
ENCODING 536
SWIDTH 667 0
DWIDTH 17 0
BBX 16 26 2 -7
BITMAP
00FC
03FE
078F
0E07
1C07
1C00
1E00
0F80
07F0
01FC
003E
000E
000E
E00E
E01E
F03C
7CF8
3FF0
0FC0
0000
0380
0380
0380
0180
0300
0600
ENDCHAR
STARTCHAR scommaaccent
ENCODING 537
SWIDTH 556 0
DWIDTH 13 0
BBX 12 21 2 -7
BITMAP
0FC0
3FE0
78F0
7070
7000
7C00
3F00
0FC0
01E0
E0E0
E0E0
F1E0
7FC0
3F00
0000
0E00
0E00
0E00
0600
0C00
1800
ENDCHAR
STARTCHAR Tcommaaccent
ENCODING 538
SWIDTH 611 0
DWIDTH 15 0
BBX 15 26 4 -7
BITMAP
FFFE
FFFE
0380
0380
0700
0700
0700
0700
0E00
0E00
0E00
0E00
1C00
1C00
1C00
1C00
3800
3800
3800
0000
0E00
0E00
0E00
0600
0C00
1800
ENDCHAR
STARTCHAR tcommaaccent
ENCODING 539
SWIDTH 333 0
DWIDTH 9 0
BBX 8 25 3 -7
BITMAP
0E
0E
0E
1C
7F
7F
1C
38
38
38
38
70
70
70
E0
E0
F8
78
00
38
38
38
18
30
60
ENDCHAR
STARTCHAR uni021E
ENCODING 542
SWIDTH 722 0
DWIDTH 19 0
BBX 19 24 2 0
BITMAP
038E00
01DC00
00F800
007000
000000
0E00E0
0E00E0
0E00E0
0E00E0
1C01C0
1C01C0
1C01C0
1C01C0
3FFF80
3FFF80
380380
380380
700700
700700
700700
700700
E00E00
E00E00
E00E00
ENDCHAR
STARTCHAR uni021F
ENCODING 543
SWIDTH 611 0
DWIDTH 15 0
BBX 13 24 2 0
BITMAP
71C0
3B80
1F00
0E00
0000
0E00
0E00
0E00
0E00
1C00
1DE0
1FF0
1E38
3C38
3838
3838
3838
7070
7070
7070
7070
E0E0
E0E0
E0E0
ENDCHAR
STARTCHAR uni0226
ENCODING 550
SWIDTH 722 0
DWIDTH 18 0
BBX 16 22 1 0
BITMAP
0070
0070
0000
001C
003C
007C
007C
00EE
01CE
01CE
038E
070E
070E
0E0E
0E0E
1FFE
3FFF
3807
7007
7007
E007
E007
ENDCHAR
STARTCHAR uni0227
ENCODING 551
SWIDTH 556 0
DWIDTH 14 0
BBX 12 17 2 0
BITMAP
0700
0700
0000
07E0
1FF0
3C70
3870
00F0
07E0
1FE0
3CE0
70E0
E0E0
E1C0
E7C0
FFC0
79C0
ENDCHAR
STARTCHAR uni0228
ENCODING 552
SWIDTH 667 0
DWIDTH 16 0
BBX 16 24 2 -5
BITMAP
0FFF
0FFF
0E00
0E00
1C00
1C00
1C00
1C00
3FF8
3FF8
3800
3800
7000
7000
7000
7000
E000
FFF8
FFF8
0700
0380
1980
1F00
0E00
ENDCHAR
STARTCHAR uni0229
ENCODING 553
SWIDTH 556 0
DWIDTH 14 0
BBX 13 19 2 -5
BITMAP
03E0
0FF0
1E70
3838
7038
7038
FFF8
FFF0
E000
E000
E0E0
73C0
7F80
1E00
0700
0380
1980
1F00
0E00
ENDCHAR
STARTCHAR uni022A
ENCODING 554
SWIDTH 778 0
DWIDTH 19 0
BBX 17 26 3 0
BITMAP
03F800
03F800
000000
01CE00
01CE00
000000
000000
01FC00
07FE00
0F8F00
1E0700
380780
780380
700380
F00380
E00380
E00380
E00380
E00780
E00700
E00F00
F01E00
703C00
78F800
3FF000
1FC000
ENDCHAR
STARTCHAR uni022B
ENCODING 555
SWIDTH 611 0
DWIDTH 14 0
BBX 13 21 2 0
BITMAP
0FE0
0FE0
0000
0E70
0E70
0000
0000
03C0
0FF0
1E70
3838
7038
7038
E038
E038
E070
E070
E0E0
73C0
7F80
1E00
ENDCHAR
STARTCHAR uni022C
ENCODING 556
SWIDTH 778 0
DWIDTH 19 0
BBX 17 26 3 0
BITMAP
03F800
03F800
000000
01E600
03FE00
033C00
000000
01FC00
07FE00
0F8F00
1E0700
380780
780380
700380
F00380
E00380
E00380
E00380
E00780
E00700
E00F00
F01E00
703C00
78F800
3FF000
1FC000
ENDCHAR
STARTCHAR uni022D
ENCODING 557
SWIDTH 611 0
DWIDTH 14 0
BBX 13 21 2 0
BITMAP
0FE0
0FE0
0000
0798
0FF8
0CF0
0000
03C0
0FF0
1E70
3838
7038
7038
E038
E038
E070
E070
E0E0
73C0
7F80
1E00
ENDCHAR
STARTCHAR uni022E
ENCODING 558
SWIDTH 778 0
DWIDTH 19 0
BBX 17 22 3 0
BITMAP
00E000
00E000
000000
01FC00
07FE00
0F8F00
1E0700
380780
780380
700380
F00380
E00380
E00380
E00380
E00780
E00700
E00F00
F01E00
703C00
78F800
3FF000
1FC000
ENDCHAR
STARTCHAR uni022F
ENCODING 559
SWIDTH 611 0
DWIDTH 14 0
BBX 13 17 2 0
BITMAP
0380
0380
0000
03C0
0FF0
1E70
3838
7038
7038
E038
E038
E070
E070
E0E0
73C0
7F80
1E00
ENDCHAR
STARTCHAR uni0230
ENCODING 560
SWIDTH 778 0
DWIDTH 19 0
BBX 17 25 3 0
BITMAP
03F800
03F800
000000
00E000
00E000
000000
01FC00
07FE00
0F8F00
1E0700
380780
780380
700380
F00380
E00380
E00380
E00380
E00780
E00700
E00F00
F01E00
703C00
78F800
3FF000
1FC000
ENDCHAR
STARTCHAR uni0231
ENCODING 561
SWIDTH 611 0
DWIDTH 14 0
BBX 13 20 2 0
BITMAP
0FE0
0FE0
0000
0380
0380
0000
03C0
0FF0
1E70
3838
7038
7038
E038
E038
E070
E070
E0E0
73C0
7F80
1E00
ENDCHAR
STARTCHAR uni0232
ENCODING 562
SWIDTH 667 0
DWIDTH 17 0
BBX 16 22 5 0
BITMAP
0FE0
0FE0
0000
E00F
E01E
E03C
7078
7070
70E0
39C0
39C0
3B80
3F00
1F00
1E00
1C00
1C00
1C00
3800
3800
3800
3800
ENDCHAR
STARTCHAR uni0233
ENCODING 563
SWIDTH 556 0
DWIDTH 14 0
BBX 14 22 2 -5
BITMAP
0FE0
0FE0
0000
701C
701C
7038
7038
3870
3870
38E0
38E0
1DC0
1DC0
1F80
0F00
0F00
0E00
0E00
1C00
3800
F800
F000
ENDCHAR
STARTCHAR uni0250
ENCODING 592
SWIDTH 556 0
DWIDTH 14 0
BBX 12 14 2 0
BITMAP
39E0
3FF0
3E70
3870
7070
70E0
73C0
7F80
7E00
F000
E1C0
E3C0
FF80
7E00
ENDCHAR
STARTCHAR uni0259
ENCODING 601
SWIDTH 556 0
DWIDTH 14 0
BBX 13 14 2 0
BITMAP
03C0
0FF0
1E70
3838
0038
0038
7FF8
FFF8
E070
E070
E0E0
73C0
7F80
3E00
ENDCHAR
STARTCHAR uni025F
ENCODING 607
SWIDTH 333 0
DWIDTH 9 0
BBX 9 19 3 -5
BITMAP
0380
0380
0380
0700
0700
0700
0700
0E00
0E00
0E00
0E00
1C00
7F00
7F00
1C00
1C00
3800
F800
F000
ENDCHAR
STARTCHAR uni0265
ENCODING 613
SWIDTH 611 0
DWIDTH 15 0
BBX 13 19 2 -5
BITMAP
3838
3838
3838
7070
7070
7070
7070
E0E0
E0E0
E0E0
E1E0
E3C0
7FC0
3DC0
01C0
0380
0380
0380
0380
ENDCHAR
STARTCHAR uni0275
ENCODING 629
SWIDTH 611 0
DWIDTH 14 0
BBX 13 14 2 0
BITMAP
03C0
0FF0
1E70
3838
7038
7038
FFF8
FFF8
E070
E070
E0E0
73C0
7F80
1E00
ENDCHAR
STARTCHAR uni0279
ENCODING 633
SWIDTH 389 0
DWIDTH 10 0
BBX 10 14 2 0
BITMAP
01C0
01C0
01C0
0380
0380
0380
0380
0700
0700
0F00
1F00
FE00
EE00
CE00
ENDCHAR
STARTCHAR uni0287
ENCODING 647
SWIDTH 333 0
DWIDTH 9 0
BBX 8 18 3 0
BITMAP
1E
1F
07
07
0E
0E
0E
1C
1C
1C
1C
38
FE
FE
38
70
70
70
ENDCHAR
STARTCHAR uni0289
ENCODING 649
SWIDTH 611 0
DWIDTH 15 0
BBX 13 14 3 0
BITMAP
3838
3838
3838
7070
7070
7070
FFF8
FFF8
E0E0
E1E0
E3E0
E7C0
7DC0
39C0
ENDCHAR
STARTCHAR uni028C
ENCODING 652
SWIDTH 556 0
DWIDTH 14 0
BBX 12 14 4 0
BITMAP
00E0
01E0
03E0
03E0
0770
0E70
0E70
1C70
1C70
3870
3870
7070
F070
E070
ENDCHAR
STARTCHAR uni028D
ENCODING 653
SWIDTH 778 0
DWIDTH 19 0
BBX 19 14 3 0
BITMAP
01C1C0
01C1C0
03C3C0
03C3C0
07C7C0
06C6E0
0ECEE0
1CCCE0
1CDCE0
38D8E0
38F8E0
70F0E0
E0F0E0
E0E0E0
ENDCHAR
STARTCHAR uni028E
ENCODING 654
SWIDTH 556 0
DWIDTH 14 0
BBX 14 19 2 0
BITMAP
003C
007C
0070
00E0
01C0
01C0
03C0
03C0
07E0
0EE0
0EE0
1C70
1C70
3870
3870
7038
7038
E038
E038
ENDCHAR
STARTCHAR uni029E
ENCODING 670
SWIDTH 556 0
DWIDTH 14 0
BBX 13 19 2 -5
BITMAP
7038
7038
3838
3870
1C70
1C70
0E70
0FE0
07E0
0FE0
1CE0
39C0
71C0
E1C0
01C0
0380
0380
0380
0380
ENDCHAR
STARTCHAR uni02BB
ENCODING 699
SWIDTH 278 0
DWIDTH 7 0
BBX 6 5 4 14
BITMAP
1C
70
C0
F0
F0
ENDCHAR
STARTCHAR afii57929
ENCODING 700
SWIDTH 278 0
DWIDTH 7 0
BBX 6 5 4 14
BITMAP
3C
3C
0C
38
E0
ENDCHAR
STARTCHAR afii64937
ENCODING 701
SWIDTH 278 0
DWIDTH 7 0
BBX 6 5 4 14
BITMAP
F0
F0
C0
70
1C
ENDCHAR
STARTCHAR circumflex
ENCODING 710
SWIDTH 333 0
DWIDTH 9 0
BBX 9 4 4 15
BITMAP
1C00
3E00
7700
E380
ENDCHAR
STARTCHAR caron
ENCODING 711
SWIDTH 333 0
DWIDTH 9 0
BBX 9 4 4 15
BITMAP
E380
7700
3E00
1C00
ENDCHAR
STARTCHAR uni02C8
ENCODING 712
SWIDTH 238 0
DWIDTH 6 0
BBX 3 5 5 14
BITMAP
60
60
E0
C0
80
ENDCHAR
STARTCHAR macron
ENCODING 713
SWIDTH 333 0
DWIDTH 9 0
BBX 7 2 5 16
BITMAP
FE
FE
ENDCHAR
STARTCHAR uni02CA
ENCODING 714
SWIDTH 333 0
DWIDTH 8 0
BBX 6 4 5 15
BITMAP
1C
38
70
E0
ENDCHAR
STARTCHAR uni02CB
ENCODING 715
SWIDTH 333 0
DWIDTH 8 0
BBX 6 4 5 15
BITMAP
E0
70
38
1C
ENDCHAR
STARTCHAR uni02CD
ENCODING 717
SWIDTH 333 0
DWIDTH 9 0
BBX 7 2 5 -3
BITMAP
FE
FE
ENDCHAR
STARTCHAR uni02CE
ENCODING 718
SWIDTH 333 0
DWIDTH 8 0
BBX 6 4 5 -5
BITMAP
E0
70
38
1C
ENDCHAR
STARTCHAR uni02CF
ENCODING 719
SWIDTH 333 0
DWIDTH 8 0
BBX 6 4 5 -5
BITMAP
1C
38
70
E0
ENDCHAR
STARTCHAR breve
ENCODING 728
SWIDTH 333 0
DWIDTH 9 0
BBX 9 4 4 15
BITMAP
C180
E380
7F00
1C00
ENDCHAR
STARTCHAR dotaccent
ENCODING 729
SWIDTH 333 0
DWIDTH 7 0
BBX 3 2 6 16
BITMAP
E0
E0
ENDCHAR
STARTCHAR ring
ENCODING 730
SWIDTH 333 0
DWIDTH 7 0
BBX 6 5 4 14
BITMAP
78
CC
CC
CC
78
ENDCHAR
STARTCHAR ogonek
ENCODING 731
SWIDTH 333 0
DWIDTH 8 0
BBX 6 6 0 -5
BITMAP
3C
70
E0
C4
FC
78
ENDCHAR
STARTCHAR tilde
ENCODING 732
SWIDTH 333 0
DWIDTH 9 0
BBX 9 3 4 15
BITMAP
7980
FF80
CF00
ENDCHAR
STARTCHAR hungarumlaut
ENCODING 733
SWIDTH 333 0
DWIDTH 10 0
BBX 10 3 4 16
BITMAP
39C0
7380
E700
ENDCHAR
STARTCHAR uni02EE
ENCODING 750
SWIDTH 500 0
DWIDTH 12 0
BBX 11 5 4 14
BITMAP
3DE0
3DE0
0C60
39C0
E700
ENDCHAR
STARTCHAR uni037E
ENCODING 894
SWIDTH 333 0
DWIDTH 8 0
BBX 7 17 2 -3
BITMAP
0E
0E
0E
00
00
00
00
00
00
00
00
70
70
70
30
60
C0
ENDCHAR
STARTCHAR tonos
ENCODING 900
SWIDTH 333 0
DWIDTH 8 0
BBX 6 4 5 15
BITMAP
1C
38
70
E0
ENDCHAR
STARTCHAR dieresistonos
ENCODING 901
SWIDTH 333 0
DWIDTH 10 0
BBX 8 7 5 16
BITMAP
07
0E
1C
38
00
E7
E7
ENDCHAR
STARTCHAR anoteleia
ENCODING 903
SWIDTH 278 0
DWIDTH 7 0
BBX 3 3 4 6
BITMAP
E0
E0
E0
ENDCHAR
STARTCHAR mu
ENCODING 956
SWIDTH 611 0
DWIDTH 15 0
BBX 15 19 1 -5
BITMAP
0E0E
0E0E
0E0E
1C1C
1C1C
1C1C
1C1C
3838
3838
3878
3878
7CF0
7FF0
6730
6000
E000
E000
E000
E000
ENDCHAR
STARTCHAR uni1E00
ENCODING 7680
SWIDTH 722 0
DWIDTH 18 0
BBX 16 25 1 -6
BITMAP
001C
003C
007C
007C
00EE
01CE
01CE
038E
070E
070E
0E0E
0E0E
1FFE
3FFF
3807
7007
7007
E007
E007
0000
03C0
0660
0660
0660
03C0
ENDCHAR
STARTCHAR uni1E01
ENCODING 7681
SWIDTH 556 0
DWIDTH 14 0
BBX 12 20 2 -6
BITMAP
07E0
1FF0
3C70
3870
00F0
07E0
1FE0
3CE0
70E0
E0E0
E1C0
E7C0
FFC0
79C0
0000
1E00
3300
3300
3300
1E00
ENDCHAR
STARTCHAR uni1E02
ENCODING 7682
SWIDTH 722 0
DWIDTH 18 0
BBX 17 22 2 0
BITMAP
00E000
00E000
000000
0FFE00
0FFF00
0E0780
0E0380
1C0380
1C0380
1C0780
1C0F00
3FFE00
3FFE00
380700
380700
700700
700700
700F00
E01E00
E07C00
FFF800
FFE000
ENDCHAR
STARTCHAR uni1E03
ENCODING 7683
SWIDTH 611 0
DWIDTH 15 0
BBX 14 22 2 0
BITMAP
0E00
0E00
0000
0E00
0E00
0E00
0E00
1C00
1DF0
1FF8
1F38
3C1C
381C
381C
381C
7038
7038
7070
7070
F9E0
FFC0
EF80
ENDCHAR
STARTCHAR uni1E04
ENCODING 7684
SWIDTH 722 0
DWIDTH 18 0
BBX 17 22 2 -3
BITMAP
0FFE00
0FFF00
0E0780
0E0380
1C0380
1C0380
1C0780
1C0F00
3FFE00
3FFE00
380700
380700
700700
700700
700F00
E01E00
E07C00
FFF800
FFE000
000000
038000
038000
ENDCHAR
STARTCHAR uni1E05
ENCODING 7685
SWIDTH 611 0
DWIDTH 15 0
BBX 14 22 2 -3
BITMAP
0E00
0E00
0E00
0E00
1C00
1DF0
1FF8
1F38
3C1C
381C
381C
381C
7038
7038
7070
7070
F9E0
FFC0
EF80
0000
0E00
0E00
ENDCHAR
STARTCHAR uni1E06
ENCODING 7686
SWIDTH 722 0
DWIDTH 18 0
BBX 17 22 2 -3
BITMAP
0FFE00
0FFF00
0E0780
0E0380
1C0380
1C0380
1C0780
1C0F00
3FFE00
3FFE00
380700
380700
700700
700700
700F00
E01E00
E07C00
FFF800
FFE000
000000
0FE000
0FE000
ENDCHAR
STARTCHAR uni1E07
ENCODING 7687
SWIDTH 611 0
DWIDTH 15 0
BBX 14 22 2 -3
BITMAP
0E00
0E00
0E00
0E00
1C00
1DF0
1FF8
1F38
3C1C
381C
381C
381C
7038
7038
7070
7070
F9E0
FFC0
EF80
0000
3F80
3F80
ENDCHAR
STARTCHAR uni1E08
ENCODING 7688
SWIDTH 722 0
DWIDTH 18 0
BBX 16 29 3 -5
BITMAP
0070
00E0
01C0
0380
0000
01FC
07FE
0F8F
1E07
3807
7800
7000
F000
E000
E000
E000
E000
E000
E00E
F01E
703C
78F8
3FF0
1FC0
0700
0380
1980
1F00
0E00
ENDCHAR
STARTCHAR uni1E09
ENCODING 7689
SWIDTH 556 0
DWIDTH 13 0
BBX 12 24 2 -5
BITMAP
01C0
0380
0700
0E00
0000
03C0
0FE0
1E70
3830
7000
7000
E000
E000
E000
E000
E0E0
71C0
7F80
3F00
1C00
0E00
6600
7C00
3800
ENDCHAR
STARTCHAR uni1E0A
ENCODING 7690
SWIDTH 722 0
DWIDTH 19 0
BBX 18 22 2 0
BITMAP
00E000
00E000
000000
0FFC00
0FFF00
0E0F80
0E0380
1C01C0
1C01C0
1C01C0
1C01C0
3801C0
3801C0
3801C0
380380
700380
700780
700F00
701E00
E07C00
FFF800
FFE000
ENDCHAR
STARTCHAR uni1E0B
ENCODING 7691
SWIDTH 611 0
DWIDTH 15 0
BBX 15 22 2 0
BITMAP
0038
0038
0000
000E
000E
000E
000E
001C
03DC
0FFC
1E7C
3838
7038
7038
E038
E038
E070
E070
E0F0
73E0
7FE0
1EE0
ENDCHAR
STARTCHAR uni1E0C
ENCODING 7692
SWIDTH 722 0
DWIDTH 19 0
BBX 18 22 2 -3
BITMAP
0FFC00
0FFF00
0E0F80
0E0380
1C01C0
1C01C0
1C01C0
1C01C0
3801C0
3801C0
3801C0
380380
700380
700780
700F00
701E00
E07C00
FFF800
FFE000
000000
038000
038000
ENDCHAR
STARTCHAR uni1E0D
ENCODING 7693
SWIDTH 611 0
DWIDTH 15 0
BBX 15 22 2 -3
BITMAP
000E
000E
000E
000E
001C
03DC
0FFC
1E7C
3838
7038
7038
E038
E038
E070
E070
E0F0
73E0
7FE0
1EE0
0000
0700
0700
ENDCHAR
STARTCHAR uni1E0E
ENCODING 7694
SWIDTH 722 0
DWIDTH 19 0
BBX 18 22 2 -3
BITMAP
0FFC00
0FFF00
0E0F80
0E0380
1C01C0
1C01C0
1C01C0
1C01C0
3801C0
3801C0
3801C0
380380
700380
700780
700F00
701E00
E07C00
FFF800
FFE000
000000
0FE000
0FE000
ENDCHAR
STARTCHAR uni1E0F
ENCODING 7695
SWIDTH 611 0
DWIDTH 15 0
BBX 15 22 2 -3
BITMAP
000E
000E
000E
000E
001C
03DC
0FFC
1E7C
3838
7038
7038
E038
E038
E070
E070
E0F0
73E0
7FE0
1EE0
0000
1FC0
1FC0
ENDCHAR
STARTCHAR uni1E10
ENCODING 7696
SWIDTH 722 0
DWIDTH 19 0
BBX 18 24 2 -5
BITMAP
0FFC00
0FFF00
0E0F80
0E0380
1C01C0
1C01C0
1C01C0
1C01C0
3801C0
3801C0
3801C0
380380
700380
700780
700F00
701E00
E07C00
FFF800
FFE000
01C000
00E000
066000
07C000
038000
ENDCHAR
STARTCHAR uni1E11
ENCODING 7697
SWIDTH 611 0
DWIDTH 15 0
BBX 15 24 2 -5
BITMAP
000E
000E
000E
000E
001C
03DC
0FFC
1E7C
3838
7038
7038
E038
E038
E070
E070
E0F0
73E0
7FE0
1FE0
0380
01C0
0CC0
0F80
0700
ENDCHAR
STARTCHAR uni1E12
ENCODING 7698
SWIDTH 722 0
DWIDTH 19 0
BBX 18 24 2 -5
BITMAP
0FFC00
0FFF00
0E0F80
0E0380
1C01C0
1C01C0
1C01C0
1C01C0
3801C0
3801C0
3801C0
380380
700380
700780
700F00
701E00
E07C00
FFF800
FFE000
000000
038000
07C000
0EE000
1C7000
ENDCHAR
STARTCHAR uni1E13
ENCODING 7699
SWIDTH 611 0
DWIDTH 15 0
BBX 15 24 2 -5
BITMAP
000E
000E
000E
000E
001C
03DC
0FFC
1E7C
3838
7038
7038
E038
E038
E070
E070
E0F0
73E0
7FE0
1EE0
0000
0700
0F80
1DC0
38E0
ENDCHAR
STARTCHAR uni1E14
ENCODING 7700
SWIDTH 667 0
DWIDTH 16 0
BBX 16 27 2 0
BITMAP
0700
0380
01C0
00E0
0000
07F0
07F0
0000
0FFF
0FFF
0E00
0E00
1C00
1C00
1C00
1C00
3FF8
3FF8
3800
3800
7000
7000
7000
7000
E000
FFF8
FFF8
ENDCHAR
STARTCHAR uni1E15
ENCODING 7701
SWIDTH 556 0
DWIDTH 14 0
BBX 13 22 2 0
BITMAP
0E00
0700
0380
01C0
0000
0FE0
0FE0
0000
03E0
0FF0
1E70
3838
7038
7038
FFF8
FFF0
E000
E000
E0E0
73C0
7F80
1E00
ENDCHAR
STARTCHAR uni1E16
ENCODING 7702
SWIDTH 667 0
DWIDTH 16 0
BBX 16 27 2 0
BITMAP
0070
00E0
01C0
0380
0000
07F0
07F0
0000
0FFF
0FFF
0E00
0E00
1C00
1C00
1C00
1C00
3FF8
3FF8
3800
3800
7000
7000
7000
7000
E000
FFF8
FFF8
ENDCHAR
STARTCHAR uni1E17
ENCODING 7703
SWIDTH 556 0
DWIDTH 14 0
BBX 13 22 2 0
BITMAP
00E0
01C0
0380
0700
0000
0FE0
0FE0
0000
03E0
0FF0
1E70
3838
7038
7038
FFF8
FFF0
E000
E000
E0E0
73C0
7F80
1E00
ENDCHAR
STARTCHAR uni1E18
ENCODING 7704
SWIDTH 667 0
DWIDTH 16 0
BBX 16 24 2 -5
BITMAP
0FFF
0FFF
0E00
0E00
1C00
1C00
1C00
1C00
3FF8
3FF8
3800
3800
7000
7000
7000
7000
E000
FFF8
FFF8
0000
0700
0F80
1DC0
38E0
ENDCHAR
STARTCHAR uni1E19
ENCODING 7705
SWIDTH 556 0
DWIDTH 14 0
BBX 13 19 2 -5
BITMAP
03E0
0FF0
1E70
3838
7038
7038
FFF8
FFF0
E000
E000
E0E0
73C0
7F80
1E00
0000
0E00
1F00
3B80
71C0
ENDCHAR
STARTCHAR uni1E1A
ENCODING 7706
SWIDTH 667 0
DWIDTH 16 0
BBX 16 23 2 -4
BITMAP
0FFF
0FFF
0E00
0E00
1C00
1C00
1C00
1C00
3FF8
3FF8
3800
3800
7000
7000
7000
7000
E000
FFF8
FFF8
0000
1E60
3FE0
33C0
ENDCHAR
STARTCHAR uni1E1B
ENCODING 7707
SWIDTH 556 0
DWIDTH 14 0
BBX 13 18 2 -4
BITMAP
03E0
0FF0
1E70
3838
7038
7038
FFF8
FFF0
E000
E000
E0E0
73C0
7F80
1E00
0000
3CC0
7FC0
6780
ENDCHAR
STARTCHAR uni1E1C
ENCODING 7708
SWIDTH 667 0
DWIDTH 16 0
BBX 16 29 2 -5
BITMAP
0C18
0E38
07F0
01C0
0000
0FFF
0FFF
0E00
0E00
1C00
1C00
1C00
1C00
3FF8
3FF8
3800
3800
7000
7000
7000
7000
E000
FFF8
FFF8
0700
0380
1980
1F00
0E00
ENDCHAR
STARTCHAR uni1E1D
ENCODING 7709
SWIDTH 556 0
DWIDTH 14 0
BBX 13 24 2 -5
BITMAP
1830
1C70
0FE0
0380
0000
03E0
0FF0
1E70
3838
7038
7038
FFF8
FFF0
E000
E000
E0E0
73C0
7F80
1E00
0700
0380
1980
1F00
0E00
ENDCHAR
STARTCHAR uni1E1E
ENCODING 7710
SWIDTH 611 0
DWIDTH 15 0
BBX 16 22 2 0
BITMAP
01C0
01C0
0000
0FFF
0FFF
0E00
0E00
1C00
1C00
1C00
1C00
3FF8
3FF8
3800
3800
7000
7000
7000
7000
E000
E000
E000
ENDCHAR
STARTCHAR uni1E1F
ENCODING 7711
SWIDTH 333 0
DWIDTH 9 0
BBX 9 22 3 0
BITMAP
0E00
0E00
0000
0780
0F80
0E00
1C00
1C00
7F00
7F00
1C00
3800
3800
3800
3800
7000
7000
7000
7000
E000
E000
E000
ENDCHAR
STARTCHAR uni1E20
ENCODING 7712
SWIDTH 778 0
DWIDTH 19 0
BBX 17 22 3 0
BITMAP
03F800
03F800
000000
01FC00
07FE00
0F8F00
1E0700
380700
780000
700000
F00000
E00000
E07F80
E07F80
E00700
E00700
E00F00
F00E00
701E00
787E00
3FFC00
1FCC00
ENDCHAR
STARTCHAR uni1E21
ENCODING 7713
SWIDTH 611 0
DWIDTH 15 0
BBX 16 22 0 -5
BITMAP
03F8
03F8
0000
00F7
03FF
079F
0E0E
1C0E
1C0E
380E
381C
381C
381C
383C
1CF8
1FF8
07B8
0038
E070
F0E0
7FE0
1F80
ENDCHAR
STARTCHAR uni1E22
ENCODING 7714
SWIDTH 722 0
DWIDTH 19 0
BBX 19 22 2 0
BITMAP
007000
007000
000000
0E00E0
0E00E0
0E00E0
0E00E0
1C01C0
1C01C0
1C01C0
1C01C0
3FFF80
3FFF80
380380
380380
700700
700700
700700
700700
E00E00
E00E00
E00E00
ENDCHAR
STARTCHAR uni1E23
ENCODING 7715
SWIDTH 611 0
DWIDTH 15 0
BBX 13 22 2 0
BITMAP
0E00
0E00
0000
0E00
0E00
0E00
0E00
1C00
1DE0
1FF0
1E38
3C38
3838
3838
3838
7070
7070
7070
7070
E0E0
E0E0
E0E0
ENDCHAR
STARTCHAR uni1E24
ENCODING 7716
SWIDTH 722 0
DWIDTH 19 0
BBX 19 22 2 -3
BITMAP
0E00E0
0E00E0
0E00E0
0E00E0
1C01C0
1C01C0
1C01C0
1C01C0
3FFF80
3FFF80
380380
380380
700700
700700
700700
700700
E00E00
E00E00
E00E00
000000
01C000
01C000
ENDCHAR
STARTCHAR uni1E25
ENCODING 7717
SWIDTH 611 0
DWIDTH 15 0
BBX 13 22 2 -3
BITMAP
0E00
0E00
0E00
0E00
1C00
1DE0
1FF0
1E38
3C38
3838
3838
3838
7070
7070
7070
7070
E0E0
E0E0
E0E0
0000
0700
0700
ENDCHAR
STARTCHAR uni1E26
ENCODING 7718
SWIDTH 722 0
DWIDTH 19 0
BBX 19 22 2 0
BITMAP
01CE00
01CE00
000000
0E00E0
0E00E0
0E00E0
0E00E0
1C01C0
1C01C0
1C01C0
1C01C0
3FFF80
3FFF80
380380
380380
700700
700700
700700
700700
E00E00
E00E00
E00E00
ENDCHAR
STARTCHAR uni1E27
ENCODING 7719
SWIDTH 611 0
DWIDTH 15 0
BBX 13 22 2 0
BITMAP
39C0
39C0
0000
0E00
0E00
0E00
0E00
1C00
1DE0
1FF0
1E38
3C38
3838
3838
3838
7070
7070
7070
7070
E0E0
E0E0
E0E0
ENDCHAR
STARTCHAR uni1E28
ENCODING 7720
SWIDTH 722 0
DWIDTH 19 0
BBX 19 24 2 -5
BITMAP
0E00E0
0E00E0
0E00E0
0E00E0
1C01C0
1C01C0
1C01C0
1C01C0
3FFF80
3FFF80
380380
380380
700700
700700
700700
700700
E00E00
E00E00
E38E00
01C000
00E000
066000
07C000
038000
ENDCHAR
STARTCHAR uni1E29
ENCODING 7721
SWIDTH 611 0
DWIDTH 15 0
BBX 13 24 2 -5
BITMAP
0E00
0E00
0E00
0E00
1C00
1DE0
1FF0
1E38
3C38
3838
3838
3838
7070
7070
7070
7070
E0E0
E0E0
EEE0
0700
0380
1980
1F00
0E00
ENDCHAR
STARTCHAR uni1E2A
ENCODING 7722
SWIDTH 722 0
DWIDTH 19 0
BBX 19 24 2 -5
BITMAP
0E00E0
0E00E0
0E00E0
0E00E0
1C01C0
1C01C0
1C01C0
1C01C0
3FFF80
3FFF80
380380
380380
700700
700700
700700
700700
E00E00
E00E00
E00E00
000000
0C1800
0E3800
07F000
01C000
ENDCHAR
STARTCHAR uni1E2B
ENCODING 7723
SWIDTH 611 0
DWIDTH 15 0
BBX 13 24 2 -5
BITMAP
0E00
0E00
0E00
0E00
1C00
1DE0
1FF0
1E38
3C38
3838
3838
3838
7070
7070
7070
7070
E0E0
E0E0
E0E0
0000
3060
38E0
1FC0
0700
ENDCHAR
STARTCHAR uni1E2C
ENCODING 7724
SWIDTH 278 0
DWIDTH 7 0
BBX 9 23 0 -4
BITMAP
0380
0380
0380
0380
0700
0700
0700
0700
0E00
0E00
0E00
0E00
1C00
1C00
1C00
1C00
3800
3800
3800
0000
7980
FF80
CF00
ENDCHAR
STARTCHAR uni1E2D
ENCODING 7725
SWIDTH 278 0
DWIDTH 7 0
BBX 9 23 0 -4
BITMAP
0380
0380
0380
0000
0000
0700
0700
0700
0E00
0E00
0E00
0E00
1C00
1C00
1C00
1C00
3800
3800
3800
0000
7980
FF80
CF00
ENDCHAR
STARTCHAR uni1E2E
ENCODING 7726
SWIDTH 278 0
DWIDTH 7 0
BBX 10 28 2 0
BITMAP
0380
0700
0E00
1C00
0000
39C0
39C0
0000
0000
0E00
0E00
0E00
0E00
1C00
1C00
1C00
1C00
3800
3800
3800
3800
7000
7000
7000
7000
E000
E000
E000
ENDCHAR
STARTCHAR uni1E2F
ENCODING 7727
SWIDTH 278 0
DWIDTH 7 0
BBX 9 23 2 0
BITMAP
0700
0E00
1C00
3800
0000
7380
7380
0000
0000
1C00
1C00
1C00
3800
3800
3800
3800
7000
7000
7000
7000
E000
E000
E000
ENDCHAR
STARTCHAR uni1E30
ENCODING 7728
SWIDTH 722 0
DWIDTH 18 0
BBX 18 24 2 0
BITMAP
003800
007000
00E000
01C000
000000
0E03C0
0E0780
0E0F00
0E1E00
1C3800
1CF000
1DE000
1FC000
3F8000
3FC000
39E000
38E000
707000
707800
703C00
701C00
E00E00
E00F00
E00700
ENDCHAR
STARTCHAR uni1E31
ENCODING 7729
SWIDTH 556 0
DWIDTH 14 0
BBX 13 24 2 0
BITMAP
0380
0700
0E00
1C00
0000
0E00
0E00
0E00
0E00
1C00
1C38
1C70
1CE0
39C0
3F80
3F00
3F80
7380
71C0
71C0
70E0
E0E0
E070
E070
ENDCHAR
STARTCHAR uni1E32
ENCODING 7730
SWIDTH 722 0
DWIDTH 18 0
BBX 18 22 2 -3
BITMAP
0E03C0
0E0780
0E0F00
0E1E00
1C3800
1CF000
1DE000
1FC000
3F8000
3FC000
39E000
38E000
707000
707800
703C00
701C00
E00E00
E00F00
E00700
000000
01C000
01C000
ENDCHAR
STARTCHAR uni1E33
ENCODING 7731
SWIDTH 556 0
DWIDTH 14 0
BBX 13 22 2 -3
BITMAP
0E00
0E00
0E00
0E00
1C00
1C38
1C70
1CE0
39C0
3F80
3F00
3F80
7380
71C0
71C0
70E0
E0E0
E070
E070
0000
0700
0700
ENDCHAR
STARTCHAR uni1E34
ENCODING 7732
SWIDTH 722 0
DWIDTH 18 0
BBX 18 22 2 -3
BITMAP
0E03C0
0E0780
0E0F00
0E1E00
1C3800
1CF000
1DE000
1FC000
3F8000
3FC000
39E000
38E000
707000
707800
703C00
701C00
E00E00
E00F00
E00700
000000
07F000
07F000
ENDCHAR
STARTCHAR uni1E35
ENCODING 7733
SWIDTH 556 0
DWIDTH 14 0
BBX 13 22 2 -3
BITMAP
0E00
0E00
0E00
0E00
1C00
1C38
1C70
1CE0
39C0
3F80
3F00
3F80
7380
71C0
71C0
70E0
E0E0
E070
E070
0000
1FC0
1FC0
ENDCHAR
STARTCHAR uni1E36
ENCODING 7734
SWIDTH 611 0
DWIDTH 15 0
BBX 12 22 2 -3
BITMAP
0E00
0E00
0E00
0E00
1C00
1C00
1C00
1C00
3800
3800
3800
3800
7000
7000
7000
7000
E000
FFF0
FFF0
0000
0E00
0E00
ENDCHAR
STARTCHAR uni1E37
ENCODING 7735
SWIDTH 278 0
DWIDTH 7 0
BBX 7 22 2 -3
BITMAP
0E
0E
0E
0E
1C
1C
1C
1C
38
38
38
38
70
70
70
70
E0
E0
E0
00
70
70
ENDCHAR
STARTCHAR uni1E38
ENCODING 7736
SWIDTH 611 0
DWIDTH 15 0
BBX 12 25 2 -3
BITMAP
3F80
3F80
0000
0E00
0E00
0E00
0E00
1C00
1C00
1C00
1C00
3800
3800
3800
3800
7000
7000
7000
7000
E000
FFF0
FFF0
0000
0E00
0E00
ENDCHAR
STARTCHAR uni1E39
ENCODING 7737
SWIDTH 278 0
DWIDTH 7 0
BBX 8 25 2 -3
BITMAP
7F
7F
00
0E
0E
0E
0E
1C
1C
1C
1C
38
38
38
38
70
70
70
70
E0
E0
E0
00
70
70
ENDCHAR
STARTCHAR uni1E3A
ENCODING 7738
SWIDTH 611 0
DWIDTH 15 0
BBX 12 22 2 -3
BITMAP
0E00
0E00
0E00
0E00
1C00
1C00
1C00
1C00
3800
3800
3800
3800
7000
7000
7000
7000
E000
FFF0
FFF0
0000
3F80
3F80
ENDCHAR
STARTCHAR uni1E3B
ENCODING 7739
SWIDTH 278 0
DWIDTH 7 0
BBX 8 22 1 -3
BITMAP
07
07
07
07
0E
0E
0E
0E
1C
1C
1C
1C
38
38
38
38
70
70
70
00
FE
FE
ENDCHAR
STARTCHAR uni1E3C
ENCODING 7740
SWIDTH 611 0
DWIDTH 15 0
BBX 12 24 2 -5
BITMAP
0E00
0E00
0E00
0E00
1C00
1C00
1C00
1C00
3800
3800
3800
3800
7000
7000
7000
7000
E000
FFF0
FFF0
0000
0E00
1F00
3B80
71C0
ENDCHAR
STARTCHAR uni1E3D
ENCODING 7741
SWIDTH 278 0
DWIDTH 7 0
BBX 9 24 0 -5
BITMAP
0380
0380
0380
0380
0700
0700
0700
0700
0E00
0E00
0E00
0E00
1C00
1C00
1C00
1C00
3800
3800
3800
0000
1C00
3E00
7700
E380
ENDCHAR
STARTCHAR uni1E3E
ENCODING 7742
SWIDTH 833 0
DWIDTH 23 0
BBX 23 24 2 0
BITMAP
000380
000700
000E00
001C00
000000
0E000E
0E001E
0F003E
0F003E
1F007C
1F80FC
1F81DC
1D81DC
3983B8
39C738
39C738
39CE38
71DC70
71DC70
70F870
70F070
E0F0E0
E0E0E0
E0E0E0
ENDCHAR
STARTCHAR uni1E3F
ENCODING 7743
SWIDTH 889 0
DWIDTH 21 0
BBX 19 19 2 0
BITMAP
001C00
003800
007000
00E000
000000
1DE7C0
1FFFE0
1E7CE0
3C78E0
3870E0
3870E0
3870E0
70E1C0
70E1C0
70E1C0
70E1C0
E1C380
E1C380
E1C380
ENDCHAR
STARTCHAR uni1E40
ENCODING 7744
SWIDTH 833 0
DWIDTH 23 0
BBX 23 22 2 0
BITMAP
001C00
001C00
000000
0E000E
0E001E
0F003E
0F003E
1F007C
1F80FC
1F81DC
1D81DC
3983B8
39C738
39C738
39CE38
71DC70
71DC70
70F870
70F070
E0F0E0
E0E0E0
E0E0E0
ENDCHAR
STARTCHAR uni1E41
ENCODING 7745
SWIDTH 889 0
DWIDTH 21 0
BBX 19 17 2 0
BITMAP
007000
007000
000000
1DE7C0
1FFFE0
1E7CE0
3C78E0
3870E0
3870E0
3870E0
70E1C0
70E1C0
70E1C0
70E1C0
E1C380
E1C380
E1C380
ENDCHAR
STARTCHAR uni1E42
ENCODING 7746
SWIDTH 833 0
DWIDTH 23 0
BBX 23 22 2 -3
BITMAP
0E000E
0E001E
0F003E
0F003E
1F007C
1F80FC
1F81DC
1D81DC
3983B8
39C738
39C738
39CE38
71DC70
71DC70
70F870
70F070
E0F0E0
E0E0E0
E0E0E0
000000
007000
007000
ENDCHAR
STARTCHAR uni1E43
ENCODING 7747
SWIDTH 889 0
DWIDTH 21 0
BBX 19 17 2 -3
BITMAP
1DE7C0
1FFFE0
1E7CE0
3C78E0
3870E0
3870E0
3870E0
70E1C0
70E1C0
70E1C0
70E1C0
E1C380
E1C380
E1C380
000000
00E000
00E000
ENDCHAR
STARTCHAR uni1E44
ENCODING 7748
SWIDTH 722 0
DWIDTH 19 0
BBX 19 22 2 0
BITMAP
007000
007000
000000
0E00E0
0E00E0
0F00E0
0F00E0
1F81C0
1D81C0
1DC1C0
19C1C0
39C380
38E380
38E380
386380
707300
707700
703700
703F00
E01E00
E01E00
E00E00
ENDCHAR
STARTCHAR uni1E45
ENCODING 7749
SWIDTH 611 0
DWIDTH 15 0
BBX 13 17 2 0
BITMAP
0380
0380
0000
1DE0
1FF0
1E38
3C38
3838
3838
3838
7070
7070
7070
7070
E0E0
E0E0
E0E0
ENDCHAR
STARTCHAR uni1E46
ENCODING 7750
SWIDTH 722 0
DWIDTH 19 0
BBX 19 22 2 -3
BITMAP
0E00E0
0E00E0
0F00E0
0F00E0
1F81C0
1D81C0
1DC1C0
19C1C0
39C380
38E380
38E380
386380
707300
707700
703700
703F00
E01E00
E01E00
E00E00
000000
01C000
01C000
ENDCHAR
STARTCHAR uni1E47
ENCODING 7751
SWIDTH 611 0
DWIDTH 15 0
BBX 13 17 2 -3
BITMAP
1DE0
1FF0
1E38
3C38
3838
3838
3838
7070
7070
7070
7070
E0E0
E0E0
E0E0
0000
0700
0700
ENDCHAR
STARTCHAR uni1E48
ENCODING 7752
SWIDTH 722 0
DWIDTH 19 0
BBX 19 22 2 -3
BITMAP
0E00E0
0E00E0
0F00E0
0F00E0
1F81C0
1D81C0
1DC1C0
19C1C0
39C380
38E380
38E380
386380
707300
707700
703700
703F00
E01E00
E01E00
E00E00
000000
07F000
07F000
ENDCHAR
STARTCHAR uni1E49
ENCODING 7753
SWIDTH 611 0
DWIDTH 15 0
BBX 13 17 2 -3
BITMAP
1DE0
1FF0
1E38
3C38
3838
3838
3838
7070
7070
7070
7070
E0E0
E0E0
E0E0
0000
1FC0
1FC0
ENDCHAR
STARTCHAR uni1E4A
ENCODING 7754
SWIDTH 722 0
DWIDTH 19 0
BBX 19 24 2 -5
BITMAP
0E00E0
0E00E0
0F00E0
0F00E0
1F81C0
1D81C0
1DC1C0
19C1C0
39C380
38E380
38E380
386380
707300
707700
703700
703F00
E01E00
E01E00
E00E00
000000
01C000
03E000
077000
0E3800
ENDCHAR
STARTCHAR uni1E4B
ENCODING 7755
SWIDTH 611 0
DWIDTH 15 0
BBX 13 19 2 -5
BITMAP
1DE0
1FF0
1E38
3C38
3838
3838
3838
7070
7070
7070
7070
E0E0
E0E0
E0E0
0000
0700
0F80
1DC0
38E0
ENDCHAR
STARTCHAR uni1E4C
ENCODING 7756
SWIDTH 778 0
DWIDTH 19 0
BBX 17 28 3 0
BITMAP
003800
007000
00E000
01C000
000000
01E600
03FE00
033C00
000000
01FC00
07FE00
0F8F00
1E0700
380780
780380
700380
F00380
E00380
E00380
E00380
E00780
E00700
E00F00
F01E00
703C00
78F800
3FF000
1FC000
ENDCHAR
STARTCHAR uni1E4D
ENCODING 7757
SWIDTH 611 0
DWIDTH 14 0
BBX 13 23 2 0
BITMAP
00E0
01C0
0380
0700
0000
0798
0FF8
0CF0
0000
03C0
0FF0
1E70
3838
7038
7038
E038
E038
E070
E070
E0E0
73C0
7F80
1E00
ENDCHAR
STARTCHAR uni1E4E
ENCODING 7758
SWIDTH 778 0
DWIDTH 19 0
BBX 17 26 3 0
BITMAP
039C00
039C00
000000
01E600
03FE00
033C00
000000
01FC00
07FE00
0F8F00
1E0700
380780
780380
700380
F00380
E00380
E00380
E00380
E00780
E00700
E00F00
F01E00
703C00
78F800
3FF000
1FC000
ENDCHAR
STARTCHAR uni1E4F
ENCODING 7759
SWIDTH 611 0
DWIDTH 14 0
BBX 13 21 2 0
BITMAP
0E70
0E70
0000
0798
0FF8
0CF0
0000
03C0
0FF0
1E70
3838
7038
7038
E038
E038
E070
E070
E0E0
73C0
7F80
1E00
ENDCHAR
STARTCHAR uni1E50
ENCODING 7760
SWIDTH 778 0
DWIDTH 19 0
BBX 17 27 3 0
BITMAP
038000
01C000
00E000
007000
000000
03F800
03F800
000000
01FC00
07FE00
0F8F00
1E0700
380780
780380
700380
F00380
E00380
E00380
E00380
E00780
E00700
E00F00
F01E00
703C00
78F800
3FF000
1FC000
ENDCHAR
STARTCHAR uni1E51
ENCODING 7761
SWIDTH 611 0
DWIDTH 14 0
BBX 13 22 2 0
BITMAP
0E00
0700
0380
01C0
0000
0FE0
0FE0
0000
03C0
0FF0
1E70
3838
7038
7038
E038
E038
E070
E070
E0E0
73C0
7F80
1E00
ENDCHAR
STARTCHAR uni1E52
ENCODING 7762
SWIDTH 778 0
DWIDTH 19 0
BBX 17 27 3 0
BITMAP
003800
007000
00E000
01C000
000000
03F800
03F800
000000
01FC00
07FE00
0F8F00
1E0700
380780
780380
700380
F00380
E00380
E00380
E00380
E00780
E00700
E00F00
F01E00
703C00
78F800
3FF000
1FC000
ENDCHAR
STARTCHAR uni1E53
ENCODING 7763
SWIDTH 611 0
DWIDTH 14 0
BBX 13 22 2 0
BITMAP
00E0
01C0
0380
0700
0000
0FE0
0FE0
0000
03C0
0FF0
1E70
3838
7038
7038
E038
E038
E070
E070
E0E0
73C0
7F80
1E00
ENDCHAR
STARTCHAR uni1E54
ENCODING 7764
SWIDTH 667 0
DWIDTH 17 0
BBX 17 24 2 0
BITMAP
003800
007000
00E000
01C000
000000
0FFE00
0FFF00
0E0780
0E0380
1C0380
1C0380
1C0700
1C0F00
3FFE00
3FF800
380000
380000
700000
700000
700000
700000
E00000
E00000
E00000
ENDCHAR
STARTCHAR uni1E55
ENCODING 7765
SWIDTH 611 0
DWIDTH 15 0
BBX 15 24 1 -5
BITMAP
0070
00E0
01C0
0380
0000
0EF0
0FFC
0F9C
1E0E
1C0E
1C0E
380E
380E
381C
381C
3838
7CF0
7FE0
7780
7000
E000
E000
E000
E000
ENDCHAR
STARTCHAR uni1E56
ENCODING 7766
SWIDTH 667 0
DWIDTH 17 0
BBX 17 22 2 0
BITMAP
00E000
00E000
000000
0FFE00
0FFF00
0E0780
0E0380
1C0380
1C0380
1C0700
1C0F00
3FFE00
3FF800
380000
380000
700000
700000
700000
700000
E00000
E00000
E00000
ENDCHAR
STARTCHAR uni1E57
ENCODING 7767
SWIDTH 611 0
DWIDTH 15 0
BBX 15 22 1 -5
BITMAP
01C0
01C0
0000
0EF0
0FFC
0F9C
1E0E
1C0E
1C0E
380E
380E
381C
381C
3838
7CF0
7FE0
7780
7000
E000
E000
E000
E000
ENDCHAR
STARTCHAR uni1E58
ENCODING 7768
SWIDTH 722 0
DWIDTH 17 0
BBX 17 22 2 0
BITMAP
00E000
00E000
000000
0FFE00
0FFF00
0E0780
0E0380
1C0380
1C0380
1C0700
1C0F00
3FFE00
3FFC00
381E00
380E00
700E00
700E00
700E00
700E00
E01C00
E01C00
E01C00
ENDCHAR
STARTCHAR uni1E59
ENCODING 7769
SWIDTH 389 0
DWIDTH 10 0
BBX 10 17 2 0
BITMAP
0E00
0E00
0000
1CC0
1DC0
1FC0
3E00
3C00
3800
3800
7000
7000
7000
7000
E000
E000
E000
ENDCHAR
STARTCHAR uni1E5A
ENCODING 7770
SWIDTH 722 0
DWIDTH 17 0
BBX 17 22 2 -3
BITMAP
0FFE00
0FFF00
0E0780
0E0380
1C0380
1C0380
1C0700
1C0F00
3FFE00
3FFC00
381E00
380E00
700E00
700E00
700E00
700E00
E01C00
E01C00
E01C00
000000
038000
038000
ENDCHAR
STARTCHAR uni1E5B
ENCODING 7771
SWIDTH 389 0
DWIDTH 10 0
BBX 10 17 2 -3
BITMAP
1CC0
1DC0
1FC0
3E00
3C00
3800
3800
7000
7000
7000
7000
E000
E000
E000
0000
7000
7000
ENDCHAR
STARTCHAR uni1E5C
ENCODING 7772
SWIDTH 722 0
DWIDTH 17 0
BBX 17 25 2 -3
BITMAP
03F800
03F800
000000
0FFE00
0FFF00
0E0780
0E0380
1C0380
1C0380
1C0700
1C0F00
3FFE00
3FFC00
381E00
380E00
700E00
700E00
700E00
700E00
E01C00
E01C00
E01C00
000000
038000
038000
ENDCHAR
STARTCHAR uni1E5D
ENCODING 7773
SWIDTH 389 0
DWIDTH 10 0
BBX 10 20 2 -3
BITMAP
3F80
3F80
0000
1CC0
1DC0
1FC0
3E00
3C00
3800
3800
7000
7000
7000
7000
E000
E000
E000
0000
7000
7000
ENDCHAR
STARTCHAR uni1E5E
ENCODING 7774
SWIDTH 722 0
DWIDTH 17 0
BBX 17 22 2 -3
BITMAP
0FFE00
0FFF00
0E0780
0E0380
1C0380
1C0380
1C0700
1C0F00
3FFE00
3FFC00
381E00
380E00
700E00
700E00
700E00
700E00
E01C00
E01C00
E01C00
000000
0FE000
0FE000
ENDCHAR
STARTCHAR uni1E5F
ENCODING 7775
SWIDTH 389 0
DWIDTH 10 0
BBX 11 17 1 -3
BITMAP
0E60
0EE0
0FE0
1F00
1E00
1C00
1C00
3800
3800
3800
3800
7000
7000
7000
0000
FE00
FE00
ENDCHAR
STARTCHAR uni1E60
ENCODING 7776
SWIDTH 667 0
DWIDTH 17 0
BBX 16 22 2 0
BITMAP
00E0
00E0
0000
00FC
03FE
078F
0E07
1C07
1C00
1E00
0F80
07F0
01FC
003E
000E
000E
E00E
E01E
F03C
7CF8
3FF0
0FC0
ENDCHAR
STARTCHAR uni1E61
ENCODING 7777
SWIDTH 556 0
DWIDTH 13 0
BBX 12 17 2 0
BITMAP
0700
0700
0000
0FC0
3FE0
78F0
7070
7000
7C00
3F00
0FC0
01E0
E0E0
E0E0
F1E0
7FC0
3F00
ENDCHAR
STARTCHAR uni1E62
ENCODING 7778
SWIDTH 667 0
DWIDTH 17 0
BBX 16 22 2 -3
BITMAP
00FC
03FE
078F
0E07
1C07
1C00
1E00
0F80
07F0
01FC
003E
000E
000E
E00E
E01E
F03C
7CF8
3FF0
0FC0
0000
0380
0380
ENDCHAR
STARTCHAR uni1E63
ENCODING 7779
SWIDTH 556 0
DWIDTH 13 0
BBX 12 17 2 -3
BITMAP
0FC0
3FE0
78F0
7070
7000
7C00
3F00
0FC0
01E0
E0E0
E0E0
F1E0
7FC0
3F00
0000
0E00
0E00
ENDCHAR
STARTCHAR uni1E64
ENCODING 7780
SWIDTH 667 0
DWIDTH 17 0
BBX 16 27 2 0
BITMAP
00E0
00E0
0000
0038
0070
00E0
01C0
0000
00FC
03FE
078F
0E07
1C07
1C00
1E00
0F80
07F0
01FC
003E
000E
000E
E00E
E01E
F03C
7CF8
3FF0
0FC0
ENDCHAR
STARTCHAR uni1E65
ENCODING 7781
SWIDTH 556 0
DWIDTH 13 0
BBX 12 22 2 0
BITMAP
0700
0700
0000
01C0
0380
0700
0E00
0000
0FC0
3FE0
78F0
7070
7000
7C00
3F00
0FC0
01E0
E0E0
E0E0
F1E0
7FC0
3F00
ENDCHAR
STARTCHAR uni1E66
ENCODING 7782
SWIDTH 667 0
DWIDTH 17 0
BBX 16 27 2 0
BITMAP
0070
0070
0000
01C7
00EE
007C
0038
0000
00FC
03FE
078F
0E07
1C07
1C00
1E00
0F80
07F0
01FC
003E
000E
000E
E00E
E01E
F03C
7CF8
3FF0
0FC0
ENDCHAR
STARTCHAR uni1E67
ENCODING 7783
SWIDTH 556 0
DWIDTH 13 0
BBX 12 22 2 0
BITMAP
0380
0380
0000
1C70
0EE0
07C0
0380
0000
07C0
1FE0
3CE0
70E0
7000
7C00
3F00
0FC0
01E0
E0E0
E0E0
F3E0
7FC0
3F00
ENDCHAR
STARTCHAR uni1E68
ENCODING 7784
SWIDTH 667 0
DWIDTH 17 0
BBX 16 25 2 -3
BITMAP
00E0
00E0
0000
00FC
03FE
078F
0E07
1C07
1C00
1E00
0F80
07F0
01FC
003E
000E
000E
E00E
E01E
F03C
7CF8
3FF0
0FC0
0000
0380
0380
ENDCHAR
STARTCHAR uni1E69
ENCODING 7785
SWIDTH 556 0
DWIDTH 13 0
BBX 12 20 2 -3
BITMAP
0700
0700
0000
0FC0
3FE0
78F0
7070
7000
7C00
3F00
0FC0
01E0
E0E0
E0E0
F1E0
7FC0
3F00
0000
0E00
0E00
ENDCHAR
STARTCHAR uni1E6A
ENCODING 7786
SWIDTH 611 0
DWIDTH 15 0
BBX 15 22 4 0
BITMAP
0380
0380
0000
FFFE
FFFE
0380
0380
0700
0700
0700
0700
0E00
0E00
0E00
0E00
1C00
1C00
1C00
1C00
3800
3800
3800
ENDCHAR
STARTCHAR uni1E6B
ENCODING 7787
SWIDTH 333 0
DWIDTH 9 0
BBX 8 21 3 0
BITMAP
1C
1C
00
0E
0E
0E
1C
7F
7F
1C
38
38
38
38
70
70
70
E0
E0
F8
78
ENDCHAR
STARTCHAR uni1E6C
ENCODING 7788
SWIDTH 611 0
DWIDTH 15 0
BBX 15 22 4 -3
BITMAP
FFFE
FFFE
0380
0380
0700
0700
0700
0700
0E00
0E00
0E00
0E00
1C00
1C00
1C00
1C00
3800
3800
3800
0000
0E00
0E00
ENDCHAR
STARTCHAR uni1E6D
ENCODING 7789
SWIDTH 333 0
DWIDTH 9 0
BBX 8 21 3 -3
BITMAP
0E
0E
0E
1C
7F
7F
1C
38
38
38
38
70
70
70
E0
E0
F8
78
00
70
70
ENDCHAR
STARTCHAR uni1E6E
ENCODING 7790
SWIDTH 611 0
DWIDTH 15 0
BBX 15 22 4 -3
BITMAP
FFFE
FFFE
0380
0380
0700
0700
0700
0700
0E00
0E00
0E00
0E00
1C00
1C00
1C00
1C00
3800
3800
3800
0000
3F80
3F80
ENDCHAR
STARTCHAR uni1E6F
ENCODING 7791
SWIDTH 333 0
DWIDTH 9 0
BBX 9 21 2 -3
BITMAP
0700
0700
0700
0E00
3F80
3F80
0E00
1C00
1C00
1C00
1C00
3800
3800
3800
7000
7000
7C00
3C00
0000
FE00
FE00
ENDCHAR
STARTCHAR uni1E70
ENCODING 7792
SWIDTH 611 0
DWIDTH 15 0
BBX 15 24 4 -5
BITMAP
FFFE
FFFE
0380
0380
0700
0700
0700
0700
0E00
0E00
0E00
0E00
1C00
1C00
1C00
1C00
3800
3800
3800
0000
0E00
1F00
3B80
71C0
ENDCHAR
STARTCHAR uni1E71
ENCODING 7793
SWIDTH 333 0
DWIDTH 9 0
BBX 10 23 1 -5
BITMAP
0380
0380
0380
0700
1FC0
1FC0
0700
0E00
0E00
0E00
0E00
1C00
1C00
1C00
3800
3800
3E00
1E00
0000
1C00
3E00
7700
E380
ENDCHAR
STARTCHAR uni1E72
ENCODING 7794
SWIDTH 722 0
DWIDTH 19 0
BBX 18 22 3 -3
BITMAP
1C01C0
1C01C0
1C01C0
1C01C0
380380
380380
380380
380380
700700
700700
700700
700F00
E00E00
E01E00
E01C00
F03C00
78F800
7FF000
1FC000
000000
0E7000
0E7000
ENDCHAR
STARTCHAR uni1E73
ENCODING 7795
SWIDTH 611 0
DWIDTH 15 0
BBX 13 17 3 -3
BITMAP
3838
3838
3838
7070
7070
7070
7070
E0E0
E0E0
E1E0
E3E0
E7C0
7DC0
39C0
0000
39C0
39C0
ENDCHAR
STARTCHAR uni1E74
ENCODING 7796
SWIDTH 722 0
DWIDTH 19 0
BBX 18 23 3 -4
BITMAP
1C01C0
1C01C0
1C01C0
1C01C0
380380
380380
380380
380380
700700
700700
700700
700F00
E00E00
E01E00
E01C00
F03C00
78F800
7FF000
1FC000
000000
0F3000
1FF000
19E000
ENDCHAR
STARTCHAR uni1E75
ENCODING 7797
SWIDTH 611 0
DWIDTH 15 0
BBX 13 18 3 -4
BITMAP
3838
3838
3838
7070
7070
7070
7070
E0E0
E0E0
E1E0
E3E0
E7C0
7DC0
39C0
0000
3CC0
7FC0
6780
ENDCHAR
STARTCHAR uni1E76
ENCODING 7798
SWIDTH 722 0
DWIDTH 19 0
BBX 18 24 3 -5
BITMAP
1C01C0
1C01C0
1C01C0
1C01C0
380380
380380
380380
380380
700700
700700
700700
700F00
E00E00
E01E00
E01C00
F03C00
78F800
7FF000
1FC000
000000
038000
07C000
0EE000
1C7000
ENDCHAR
STARTCHAR uni1E77
ENCODING 7799
SWIDTH 611 0
DWIDTH 15 0
BBX 13 19 3 -5
BITMAP
3838
3838
3838
7070
7070
7070
7070
E0E0
E0E0
E1E0
E3E0
E7C0
7DC0
39C0
0000
0E00
1F00
3B80
71C0
ENDCHAR
STARTCHAR uni1E78
ENCODING 7800
SWIDTH 722 0
DWIDTH 19 0
BBX 18 28 3 0
BITMAP
003800
007000
00E000
01C000
000000
03CC00
07FC00
067800
000000
1C01C0
1C01C0
1C01C0
1C01C0
380380
380380
380380
380380
700700
700700
700700
700F00
E00E00
E01E00
E01C00
F03C00
78F800
7FF000
1FC000
ENDCHAR
STARTCHAR uni1E79
ENCODING 7801
SWIDTH 611 0
DWIDTH 15 0
BBX 13 23 3 0
BITMAP
00E0
01C0
0380
0700
0000
0F30
1FF0
19E0
0000
3838
3838
3838
7070
7070
7070
7070
E0E0
E0E0
E1E0
E3E0
E7C0
7DC0
39C0
ENDCHAR
STARTCHAR uni1E7A
ENCODING 7802
SWIDTH 722 0
DWIDTH 19 0
BBX 18 25 3 0
BITMAP
039C00
039C00
000000
03F800
03F800
000000
1C01C0
1C01C0
1C01C0
1C01C0
380380
380380
380380
380380
700700
700700
700700
700F00
E00E00
E01E00
E01C00
F03C00
78F800
7FF000
1FC000
ENDCHAR
STARTCHAR uni1E7B
ENCODING 7803
SWIDTH 611 0
DWIDTH 15 0
BBX 13 20 3 0
BITMAP
1CE0
1CE0
0000
0FE0
0FE0
0000
3838
3838
3838
7070
7070
7070
7070
E0E0
E0E0
E1E0
E3E0
E7C0
7DC0
39C0
ENDCHAR
STARTCHAR uni1E7C
ENCODING 7804
SWIDTH 667 0
DWIDTH 18 0
BBX 16 23 5 0
BITMAP
0F30
1FF0
19E0
0000
E007
E007
E00E
E00E
E01C
701C
7038
7070
7070
70E0
70E0
71C0
7180
3380
3700
3F00
3E00
3C00
3C00
ENDCHAR
STARTCHAR uni1E7D
ENCODING 7805
SWIDTH 556 0
DWIDTH 14 0
BBX 12 18 4 0
BITMAP
3CC0
7FC0
6780
0000
E070
E0F0
E0E0
E1C0
E1C0
E380
E380
E700
E700
EE00
7C00
7C00
7800
7000
ENDCHAR
STARTCHAR uni1E7E
ENCODING 7806
SWIDTH 667 0
DWIDTH 18 0
BBX 16 22 5 -3
BITMAP
E007
E007
E00E
E00E
E01C
701C
7038
7070
7070
70E0
70E0
71C0
7180
3380
3700
3F00
3E00
3C00
3C00
0000
0E00
0E00
ENDCHAR
STARTCHAR uni1E7F
ENCODING 7807
SWIDTH 556 0
DWIDTH 14 0
BBX 12 17 4 -3
BITMAP
E070
E0F0
E0E0
E1C0
E1C0
E380
E380
E700
E700
EE00
7C00
7C00
7800
7000
0000
1C00
1C00
ENDCHAR
STARTCHAR Wgrave
ENCODING 7808
SWIDTH 944 0
DWIDTH 23 0
BBX 21 24 5 0
BITMAP
01C000
00E000
007000
003800
000000
E07038
E07038
E07070
E0F070
E0F0E0
E0F0E0
E1F0E0
E1F1C0
E3F1C0
E37380
E77380
E67380
EE7700
7C3700
7C3E00
783E00
783C00
703800
703800
ENDCHAR
STARTCHAR wgrave
ENCODING 7809
SWIDTH 778 0
DWIDTH 19 0
BBX 19 19 3 0
BITMAP
038000
01C000
00E000
007000
000000
E0E0E0
E1E0E0
E1E1C0
E3E380
E36380
E76700
E66700
EE6E00
EC6C00
7C7C00
787800
787800
707000
707000
ENDCHAR
STARTCHAR Wacute
ENCODING 7810
SWIDTH 944 0
DWIDTH 23 0
BBX 21 24 5 0
BITMAP
001C00
003800
007000
00E000
000000
E07038
E07038
E07070
E0F070
E0F0E0
E0F0E0
E1F0E0
E1F1C0
E3F1C0
E37380
E77380
E67380
EE7700
7C3700
7C3E00
783E00
783C00
703800
703800
ENDCHAR
STARTCHAR wacute
ENCODING 7811
SWIDTH 778 0
DWIDTH 19 0
BBX 19 19 3 0
BITMAP
003800
007000
00E000
01C000
000000
E0E0E0
E1E0E0
E1E1C0
E3E380
E36380
E76700
E66700
EE6E00
EC6C00
7C7C00
787800
787800
707000
707000
ENDCHAR
STARTCHAR Wdieresis
ENCODING 7812
SWIDTH 944 0
DWIDTH 23 0
BBX 21 22 5 0
BITMAP
039C00
039C00
000000
E07038
E07038
E07070
E0F070
E0F0E0
E0F0E0
E1F0E0
E1F1C0
E3F1C0
E37380
E77380
E67380
EE7700
7C3700
7C3E00
783E00
783C00
703800
703800
ENDCHAR
STARTCHAR wdieresis
ENCODING 7813
SWIDTH 778 0
DWIDTH 19 0
BBX 19 17 3 0
BITMAP
073800
073800
000000
E0E0E0
E1E0E0
E1E1C0
E3E380
E36380
E76700
E66700
EE6E00
EC6C00
7C7C00
787800
787800
707000
707000
ENDCHAR
STARTCHAR uni1E86
ENCODING 7814
SWIDTH 944 0
DWIDTH 23 0
BBX 21 22 5 0
BITMAP
007000
007000
000000
E07038
E07038
E07070
E0F070
E0F0E0
E0F0E0
E1F0E0
E1F1C0
E3F1C0
E37380
E77380
E67380
EE7700
7C3700
7C3E00
783E00
783C00
703800
703800
ENDCHAR
STARTCHAR uni1E87
ENCODING 7815
SWIDTH 778 0
DWIDTH 19 0
BBX 19 17 3 0
BITMAP
00E000
00E000
000000
E0E0E0
E1E0E0
E1E1C0
E3E380
E36380
E76700
E66700
EE6E00
EC6C00
7C7C00
787800
787800
707000
707000
ENDCHAR
STARTCHAR uni1E88
ENCODING 7816
SWIDTH 944 0
DWIDTH 23 0
BBX 21 22 5 -3
BITMAP
E07038
E07038
E07070
E0F070
E0F0E0
E0F0E0
E1F0E0
E1F1C0
E3F1C0
E37380
E77380
E67380
EE7700
7C3700
7C3E00
783E00
783C00
703800
703800
000000
01C000
01C000
ENDCHAR
STARTCHAR uni1E89
ENCODING 7817
SWIDTH 778 0
DWIDTH 19 0
BBX 19 17 3 -3
BITMAP
E0E0E0
E1E0E0
E1E1C0
E3E380
E36380
E76700
E66700
EE6E00
EC6C00
7C7C00
787800
787800
707000
707000
000000
038000
038000
ENDCHAR
STARTCHAR uni1E8A
ENCODING 7818
SWIDTH 667 0
DWIDTH 18 0
BBX 20 22 1 0
BITMAP
003800
003800
000000
0E0070
0F00F0
0701E0
0783C0
038780
01CF00
01FC00
00F800
00F000
00F000
01F800
03B800
073C00
0E1C00
1E1E00
3C0E00
780F00
F00700
E00700
ENDCHAR
STARTCHAR uni1E8B
ENCODING 7819
SWIDTH 556 0
DWIDTH 13 0
BBX 14 17 1 0
BITMAP
0380
0380
0000
1C1C
1C38
0E70
0EE0
07C0
0780
0380
0780
0FC0
1CC0
38E0
70E0
E070
C070
ENDCHAR
STARTCHAR uni1E8C
ENCODING 7820
SWIDTH 667 0
DWIDTH 18 0
BBX 20 22 1 0
BITMAP
01CE00
01CE00
000000
0E0070
0F00F0
0701E0
0783C0
038780
01CF00
01FC00
00F800
00F000
00F000
01F800
03B800
073C00
0E1C00
1E1E00
3C0E00
780F00
F00700
E00700
ENDCHAR
STARTCHAR uni1E8D
ENCODING 7821
SWIDTH 556 0
DWIDTH 13 0
BBX 14 17 1 0
BITMAP
0E70
0E70
0000
1C1C
1C38
0E70
0EE0
07C0
0780
0380
0780
0FC0
1CC0
38E0
70E0
E070
C070
ENDCHAR
STARTCHAR uni1E8E
ENCODING 7822
SWIDTH 667 0
DWIDTH 17 0
BBX 16 22 5 0
BITMAP
0380
0380
0000
E00F
E01E
E03C
7078
7070
70E0
39C0
39C0
3B80
3F00
1F00
1E00
1C00
1C00
1C00
3800
3800
3800
3800
ENDCHAR
STARTCHAR uni1E8F
ENCODING 7823
SWIDTH 556 0
DWIDTH 14 0
BBX 14 22 2 -5
BITMAP
0380
0380
0000
701C
701C
7038
7038
3870
3870
38E0
38E0
1DC0
1DC0
1F80
0F00
0F00
0E00
0E00
1C00
3800
F800
F000
ENDCHAR
STARTCHAR uni1E90
ENCODING 7824
SWIDTH 611 0
DWIDTH 16 0
BBX 18 24 1 0
BITMAP
003800
007C00
00EE00
01C700
000000
0FFFC0
0FFFC0
0003C0
000780
000F00
001E00
003C00
007800
00F000
01E000
03C000
078000
0F0000
1E0000
3C0000
780000
F00000
FFFE00
FFFE00
ENDCHAR
STARTCHAR uni1E91
ENCODING 7825
SWIDTH 500 0
DWIDTH 13 0
BBX 13 19 1 0
BITMAP
0380
07C0
0EE0
1C70
0000
1FF8
1FF8
0070
00E0
01C0
0380
0700
0E00
1C00
3800
7000
E000
FFE0
FFE0
ENDCHAR
STARTCHAR uni1E92
ENCODING 7826
SWIDTH 611 0
DWIDTH 16 0
BBX 18 22 1 -3
BITMAP
0FFFC0
0FFFC0
0003C0
000780
000F00
001E00
003C00
007800
00F000
01E000
03C000
078000
0F0000
1E0000
3C0000
780000
F00000
FFFE00
FFFE00
000000
038000
038000
ENDCHAR
STARTCHAR uni1E93
ENCODING 7827
SWIDTH 500 0
DWIDTH 13 0
BBX 13 17 1 -3
BITMAP
1FF8
1FF8
0070
00E0
01C0
0380
0700
0E00
1C00
3800
7000
E000
FFE0
FFE0
0000
0E00
0E00
ENDCHAR
STARTCHAR uni1E94
ENCODING 7828
SWIDTH 611 0
DWIDTH 16 0
BBX 18 22 1 -3
BITMAP
0FFFC0
0FFFC0
0003C0
000780
000F00
001E00
003C00
007800
00F000
01E000
03C000
078000
0F0000
1E0000
3C0000
780000
F00000
FFFE00
FFFE00
000000
0FE000
0FE000
ENDCHAR
STARTCHAR uni1E95
ENCODING 7829
SWIDTH 500 0
DWIDTH 13 0
BBX 13 17 1 -3
BITMAP
1FF8
1FF8
0070
00E0
01C0
0380
0700
0E00
1C00
3800
7000
E000
FFE0
FFE0
0000
3F80
3F80
ENDCHAR
STARTCHAR uni1E96
ENCODING 7830
SWIDTH 611 0
DWIDTH 15 0
BBX 13 22 2 -3
BITMAP
0E00
0E00
0E00
0E00
1C00
1DE0
1FF0
1E38
3C38
3838
3838
3838
7070
7070
7070
7070
E0E0
E0E0
E0E0
0000
1FC0
1FC0
ENDCHAR
STARTCHAR uni1E97
ENCODING 7831
SWIDTH 333 0
DWIDTH 9 0
BBX 9 21 3 0
BITMAP
7380
7380
0000
0E00
0E00
0E00
1C00
7F00
7F00
1C00
3800
3800
3800
3800
7000
7000
7000
E000
E000
F800
7800
ENDCHAR
STARTCHAR uni1E98
ENCODING 7832
SWIDTH 778 0
DWIDTH 19 0
BBX 19 20 3 0
BITMAP
01E000
033000
033000
033000
01E000
000000
E0E0E0
E1E0E0
E1E1C0
E3E380
E36380
E76700
E66700
EE6E00
EC6C00
7C7C00
787800
787800
707000
707000
ENDCHAR
STARTCHAR uni1E99
ENCODING 7833
SWIDTH 556 0
DWIDTH 14 0
BBX 14 25 2 -5
BITMAP
0780
0CC0
0CC0
0CC0
0780
0000
701C
701C
7038
7038
3870
3870
38E0
38E0
1DC0
1DC0
1F80
0F00
0F00
0E00
0E00
1C00
3800
F800
F000
ENDCHAR
STARTCHAR uni1EA0
ENCODING 7840
SWIDTH 722 0
DWIDTH 18 0
BBX 16 22 1 -3
BITMAP
001C
003C
007C
007C
00EE
01CE
01CE
038E
070E
070E
0E0E
0E0E
1FFE
3FFF
3807
7007
7007
E007
E007
0000
01C0
01C0
ENDCHAR
STARTCHAR uni1EA1
ENCODING 7841
SWIDTH 556 0
DWIDTH 14 0
BBX 12 17 2 -3
BITMAP
07E0
1FF0
3C70
3870
00F0
07E0
1FE0
3CE0
70E0
E0E0
E1C0
E7C0
FFC0
79C0
0000
0E00
0E00
ENDCHAR
STARTCHAR uni1EA4
ENCODING 7844
SWIDTH 722 0
DWIDTH 18 0
BBX 17 29 1 0
BITMAP
000E00
001C00
003800
007000
000000
001C00
003E00
007700
00E380
000000
001C00
003C00
007C00
007C00
00EE00
01CE00
01CE00
038E00
070E00
070E00
0E0E00
0E0E00
1FFE00
3FFF00
380700
700700
700700
E00700
E00700
ENDCHAR
STARTCHAR uni1EA5
ENCODING 7845
SWIDTH 556 0
DWIDTH 14 0
BBX 12 24 2 0
BITMAP
00E0
01C0
0380
0700
0000
0380
07C0
0EE0
1C70
0000
07E0
1FF0
3C70
3870
00F0
07E0
1FE0
3CE0
70E0
E0E0
E1C0
E7C0
FFC0
79C0
ENDCHAR
STARTCHAR uni1EA6
ENCODING 7846
SWIDTH 722 0
DWIDTH 18 0
BBX 17 29 1 0
BITMAP
01C000
00E000
007000
003800
000000
001C00
003E00
007700
00E380
000000
001C00
003C00
007C00
007C00
00EE00
01CE00
01CE00
038E00
070E00
070E00
0E0E00
0E0E00
1FFE00
3FFF00
380700
700700
700700
E00700
E00700
ENDCHAR
STARTCHAR uni1EA7
ENCODING 7847
SWIDTH 556 0
DWIDTH 14 0
BBX 12 24 2 0
BITMAP
1C00
0E00
0700
0380
0000
0380
07C0
0EE0
1C70
0000
07E0
1FF0
3C70
3870
00F0
07E0
1FE0
3CE0
70E0
E0E0
E1C0
E7C0
FFC0
79C0
ENDCHAR
STARTCHAR uni1EAA
ENCODING 7850
SWIDTH 722 0
DWIDTH 18 0
BBX 17 28 1 0
BITMAP
00F300
01FF00
019E00
000000
001C00
003E00
007700
00E380
000000
001C00
003C00
007C00
007C00
00EE00
01CE00
01CE00
038E00
070E00
070E00
0E0E00
0E0E00
1FFE00
3FFF00
380700
700700
700700
E00700
E00700
ENDCHAR
STARTCHAR uni1EAB
ENCODING 7851
SWIDTH 556 0
DWIDTH 14 0
BBX 12 23 2 0
BITMAP
0F30
1FF0
19E0
0000
0380
07C0
0EE0
1C70
0000
07E0
1FF0
3C70
3870
00F0
07E0
1FE0
3CE0
70E0
E0E0
E1C0
E7C0
FFC0
79C0
ENDCHAR
STARTCHAR uni1EAC
ENCODING 7852
SWIDTH 722 0
DWIDTH 18 0
BBX 16 27 1 -3
BITMAP
0070
00F8
01DC
038E
0000
001C
003C
007C
007C
00EE
01CE
01CE
038E
070E
070E
0E0E
0E0E
1FFE
3FFF
3807
7007
7007
E007
E007
0000
01C0
01C0
ENDCHAR
STARTCHAR uni1EAD
ENCODING 7853
SWIDTH 556 0
DWIDTH 14 0
BBX 12 22 2 -3
BITMAP
0380
07C0
0EE0
1C70
0000
07E0
1FF0
3C70
3870
00F0
07E0
1FE0
3CE0
70E0
E0E0
E1C0
E7C0
FFC0
79C0
0000
0E00
0E00
ENDCHAR
STARTCHAR uni1EAE
ENCODING 7854
SWIDTH 722 0
DWIDTH 18 0
BBX 16 29 1 0
BITMAP
001C
0038
0070
00E0
0000
0306
038E
01FC
0070
0000
001C
003C
007C
007C
00EE
01CE
01CE
038E
070E
070E
0E0E
0E0E
1FFE
3FFF
3807
7007
7007
E007
E007
ENDCHAR
STARTCHAR uni1EAF
ENCODING 7855
SWIDTH 556 0
DWIDTH 14 0
BBX 12 24 2 0
BITMAP
01C0
0380
0700
0E00
0000
3060
38E0
1FC0
0700
0000
07E0
1FF0
3C70
3870
00F0
07E0
1FE0
3CE0
70E0
E0E0
E1C0
E7C0
FFC0
79C0
ENDCHAR
STARTCHAR uni1EB0
ENCODING 7856
SWIDTH 722 0
DWIDTH 18 0
BBX 16 29 1 0
BITMAP
0380
01C0
00E0
0070
0000
0306
038E
01FC
0070
0000
001C
003C
007C
007C
00EE
01CE
01CE
038E
070E
070E
0E0E
0E0E
1FFE
3FFF
3807
7007
7007
E007
E007
ENDCHAR
STARTCHAR uni1EB1
ENCODING 7857
SWIDTH 556 0
DWIDTH 14 0
BBX 12 24 2 0
BITMAP
1C00
0E00
0700
0380
0000
3060
38E0
1FC0
0700
0000
07E0
1FF0
3C70
3870
00F0
07E0
1FE0
3CE0
70E0
E0E0
E1C0
E7C0
FFC0
79C0
ENDCHAR
STARTCHAR uni1EB4
ENCODING 7860
SWIDTH 722 0
DWIDTH 18 0
BBX 16 28 1 0
BITMAP
01E6
03FE
033C
0000
0306
038E
01FC
0070
0000
001C
003C
007C
007C
00EE
01CE
01CE
038E
070E
070E
0E0E
0E0E
1FFE
3FFF
3807
7007
7007
E007
E007
ENDCHAR
STARTCHAR uni1EB5
ENCODING 7861
SWIDTH 556 0
DWIDTH 14 0
BBX 12 23 2 0
BITMAP
1E60
3FE0
33C0
0000
3060
38E0
1FC0
0700
0000
07E0
1FF0
3C70
3870
00F0
07E0
1FE0
3CE0
70E0
E0E0
E1C0
E7C0
FFC0
79C0
ENDCHAR
STARTCHAR uni1EB6
ENCODING 7862
SWIDTH 722 0
DWIDTH 18 0
BBX 16 27 1 -3
BITMAP
0306
038E
01FC
0070
0000
001C
003C
007C
007C
00EE
01CE
01CE
038E
070E
070E
0E0E
0E0E
1FFE
3FFF
3807
7007
7007
E007
E007
0000
01C0
01C0
ENDCHAR
STARTCHAR uni1EB7
ENCODING 7863
SWIDTH 556 0
DWIDTH 14 0
BBX 12 22 2 -3
BITMAP
1830
1C70
0FE0
0380
0000
07E0
1FF0
3C70
3870
00F0
07E0
1FE0
3CE0
70E0
E0E0
E1C0
E7C0
FFC0
79C0
0000
0E00
0E00
ENDCHAR
STARTCHAR uni1EB8
ENCODING 7864
SWIDTH 667 0
DWIDTH 16 0
BBX 16 22 2 -3
BITMAP
0FFF
0FFF
0E00
0E00
1C00
1C00
1C00
1C00
3FF8
3FF8
3800
3800
7000
7000
7000
7000
E000
FFF8
FFF8
0000
0700
0700
ENDCHAR
STARTCHAR uni1EB9
ENCODING 7865
SWIDTH 556 0
DWIDTH 14 0
BBX 13 17 2 -3
BITMAP
03E0
0FF0
1E70
3838
7038
7038
FFF8
FFF0
E000
E000
E0E0
73C0
7F80
1E00
0000
0E00
0E00
ENDCHAR
STARTCHAR uni1EBC
ENCODING 7868
SWIDTH 667 0
DWIDTH 16 0
BBX 16 23 2 0
BITMAP
0798
0FF8
0CF0
0000
0FFF
0FFF
0E00
0E00
1C00
1C00
1C00
1C00
3FF8
3FF8
3800
3800
7000
7000
7000
7000
E000
FFF8
FFF8
ENDCHAR
STARTCHAR uni1EBD
ENCODING 7869
SWIDTH 556 0
DWIDTH 14 0
BBX 13 18 2 0
BITMAP
0F30
1FF0
19E0
0000
03E0
0FF0
1E70
3838
7038
7038
FFF8
FFF0
E000
E000
E0E0
73C0
7F80
1E00
ENDCHAR
STARTCHAR uni1EBE
ENCODING 7870
SWIDTH 667 0
DWIDTH 16 0
BBX 16 29 2 0
BITMAP
0038
0070
00E0
01C0
0000
0070
00F8
01DC
038E
0000
0FFF
0FFF
0E00
0E00
1C00
1C00
1C00
1C00
3FF8
3FF8
3800
3800
7000
7000
7000
7000
E000
FFF8
FFF8
ENDCHAR
STARTCHAR uni1EBF
ENCODING 7871
SWIDTH 556 0
DWIDTH 14 0
BBX 13 24 2 0
BITMAP
0070
00E0
01C0
0380
0000
01C0
03E0
0770
0E38
0000
03E0
0FF0
1E70
3838
7038
7038
FFF8
FFF0
E000
E000
E0E0
73C0
7F80
1E00
ENDCHAR
STARTCHAR uni1EC0
ENCODING 7872
SWIDTH 667 0
DWIDTH 16 0
BBX 16 29 2 0
BITMAP
0380
01C0
00E0
0070
0000
0070
00F8
01DC
038E
0000
0FFF
0FFF
0E00
0E00
1C00
1C00
1C00
1C00
3FF8
3FF8
3800
3800
7000
7000
7000
7000
E000
FFF8
FFF8
ENDCHAR
STARTCHAR uni1EC1
ENCODING 7873
SWIDTH 556 0
DWIDTH 14 0
BBX 13 24 2 0
BITMAP
0E00
0700
0380
01C0
0000
01C0
03E0
0770
0E38
0000
03E0
0FF0
1E70
3838
7038
7038
FFF8
FFF0
E000
E000
E0E0
73C0
7F80
1E00
ENDCHAR
STARTCHAR uni1EC4
ENCODING 7876
SWIDTH 667 0
DWIDTH 16 0
BBX 16 28 2 0
BITMAP
03CC
07FC
0678
0000
0070
00F8
01DC
038E
0000
0FFF
0FFF
0E00
0E00
1C00
1C00
1C00
1C00
3FF8
3FF8
3800
3800
7000
7000
7000
7000
E000
FFF8
FFF8
ENDCHAR
STARTCHAR uni1EC5
ENCODING 7877
SWIDTH 556 0
DWIDTH 14 0
BBX 13 23 2 0
BITMAP
0F30
1FF0
19E0
0000
01C0
03E0
0770
0E38
0000
03E0
0FF0
1E70
3838
7038
7038
FFF8
FFF0
E000
E000
E0E0
73C0
7F80
1E00
ENDCHAR
STARTCHAR uni1EC6
ENCODING 7878
SWIDTH 667 0
DWIDTH 16 0
BBX 16 27 2 -3
BITMAP
01C0
03E0
0770
0E38
0000
0FFF
0FFF
0E00
0E00
1C00
1C00
1C00
1C00
3FF8
3FF8
3800
3800
7000
7000
7000
7000
E000
FFF8
FFF8
0000
0700
0700
ENDCHAR
STARTCHAR uni1EC7
ENCODING 7879
SWIDTH 556 0
DWIDTH 14 0
BBX 13 22 2 -3
BITMAP
0380
07C0
0EE0
1C70
0000
03E0
0FF0
1E70
3838
7038
7038
FFF8
FFF0
E000
E000
E0E0
73C0
7F80
1E00
0000
0E00
0E00
ENDCHAR
STARTCHAR uni1ECA
ENCODING 7882
SWIDTH 278 0
DWIDTH 7 0
BBX 7 22 2 -3
BITMAP
0E
0E
0E
0E
1C
1C
1C
1C
38
38
38
38
70
70
70
70
E0
E0
E0
00
70
70
ENDCHAR
STARTCHAR uni1ECB
ENCODING 7883
SWIDTH 278 0
DWIDTH 7 0
BBX 7 22 2 -3
BITMAP
0E
0E
0E
00
00
1C
1C
1C
38
38
38
38
70
70
70
70
E0
E0
E0
00
70
70
ENDCHAR
STARTCHAR uni1ECC
ENCODING 7884
SWIDTH 778 0
DWIDTH 19 0
BBX 17 22 3 -3
BITMAP
01FC00
07FE00
0F8F00
1E0700
380780
780380
700380
F00380
E00380
E00380
E00380
E00780
E00700
E00F00
F01E00
703C00
78F800
3FF000
1FC000
000000
038000
038000
ENDCHAR
STARTCHAR uni1ECD
ENCODING 7885
SWIDTH 611 0
DWIDTH 14 0
BBX 13 17 2 -3
BITMAP
03C0
0FF0
1E70
3838
7038
7038
E038
E038
E070
E070
E0E0
73C0
7F80
1E00
0000
0E00
0E00
ENDCHAR
STARTCHAR uni1ED0
ENCODING 7888
SWIDTH 778 0
DWIDTH 19 0
BBX 17 29 3 0
BITMAP
003800
007000
00E000
01C000
000000
007000
00F800
01DC00
038E00
000000
01FC00
07FE00
0F8F00
1E0700
380780
780380
700380
F00380
E00380
E00380
E00380
E00780
E00700
E00F00
F01E00
703C00
78F800
3FF000
1FC000
ENDCHAR
STARTCHAR uni1ED1
ENCODING 7889
SWIDTH 611 0
DWIDTH 14 0
BBX 13 24 2 0
BITMAP
0070
00E0
01C0
0380
0000
01C0
03E0
0770
0E38
0000
03C0
0FF0
1E70
3838
7038
7038
E038
E038
E070
E070
E0E0
73C0
7F80
1E00
ENDCHAR
STARTCHAR uni1ED2
ENCODING 7890
SWIDTH 778 0
DWIDTH 19 0
BBX 17 29 3 0
BITMAP
038000
01C000
00E000
007000
000000
007000
00F800
01DC00
038E00
000000
01FC00
07FE00
0F8F00
1E0700
380780
780380
700380
F00380
E00380
E00380
E00380
E00780
E00700
E00F00
F01E00
703C00
78F800
3FF000
1FC000
ENDCHAR
STARTCHAR uni1ED3
ENCODING 7891
SWIDTH 611 0
DWIDTH 14 0
BBX 13 24 2 0
BITMAP
0E00
0700
0380
01C0
0000
01C0
03E0
0770
0E38
0000
03C0
0FF0
1E70
3838
7038
7038
E038
E038
E070
E070
E0E0
73C0
7F80
1E00
ENDCHAR
STARTCHAR uni1ED6
ENCODING 7894
SWIDTH 778 0
DWIDTH 19 0
BBX 17 28 3 0
BITMAP
03CC00
07FC00
067800
000000
007000
00F800
01DC00
038E00
000000
01FC00
07FE00
0F8F00
1E0700
380780
780380
700380
F00380
E00380
E00380
E00380
E00780
E00700
E00F00
F01E00
703C00
78F800
3FF000
1FC000
ENDCHAR
STARTCHAR uni1ED7
ENCODING 7895
SWIDTH 611 0
DWIDTH 14 0
BBX 13 23 2 0
BITMAP
0F30
1FF0
19E0
0000
01C0
03E0
0770
0E38
0000
03C0
0FF0
1E70
3838
7038
7038
E038
E038
E070
E070
E0E0
73C0
7F80
1E00
ENDCHAR
STARTCHAR uni1ED8
ENCODING 7896
SWIDTH 778 0
DWIDTH 19 0
BBX 17 27 3 -3
BITMAP
00E000
01F000
03B800
071C00
000000
01FC00
07FE00
0F8F00
1E0700
380780
780380
700380
F00380
E00380
E00380
E00380
E00780
E00700
E00F00
F01E00
703C00
78F800
3FF000
1FC000
000000
038000
038000
ENDCHAR
STARTCHAR uni1ED9
ENCODING 7897
SWIDTH 611 0
DWIDTH 14 0
BBX 13 22 2 -3
BITMAP
0380
07C0
0EE0
1C70
0000
03C0
0FF0
1E70
3838
7038
7038
E038
E038
E070
E070
E0E0
73C0
7F80
1E00
0000
0E00
0E00
ENDCHAR
STARTCHAR uni1EDA
ENCODING 7898
SWIDTH 778 0
DWIDTH 19 0
BBX 21 24 3 0
BITMAP
000E00
001C00
003800
007000
000000
01FC78
07FE78
0F8F18
1E0770
3807C0
780380
700380
F00380
E00380
E00380
E00380
E00780
E00700
E00F00
F01E00
703C00
78F800
3FF000
1FC000
ENDCHAR
STARTCHAR uni1EDB
ENCODING 7899
SWIDTH 611 0
DWIDTH 14 0
BBX 18 19 2 0
BITMAP
001C00
003800
007000
00E000
000000
03C3C0
0FF3C0
1E70C0
383B80
703E00
703800
E03800
E03800
E07000
E07000
E0E000
73C000
7F8000
1E0000
ENDCHAR
STARTCHAR uni1EDC
ENCODING 7900
SWIDTH 778 0
DWIDTH 19 0
BBX 21 24 3 0
BITMAP
00E000
007000
003800
001C00
000000
01FC78
07FE78
0F8F18
1E0770
3807C0
780380
700380
F00380
E00380
E00380
E00380
E00780
E00700
E00F00
F01E00
703C00
78F800
3FF000
1FC000
ENDCHAR
STARTCHAR uni1EDD
ENCODING 7901
SWIDTH 611 0
DWIDTH 14 0
BBX 18 19 2 0
BITMAP
038000
01C000
00E000
007000
000000
03C3C0
0FF3C0
1E70C0
383B80
703E00
703800
E03800
E03800
E07000
E07000
E0E000
73C000
7F8000
1E0000
ENDCHAR
STARTCHAR uni1EE0
ENCODING 7904
SWIDTH 778 0
DWIDTH 19 0
BBX 21 23 3 0
BITMAP
00F300
01FF00
019E00
000000
01FC78
07FE78
0F8F18
1E0770
3807C0
780380
700380
F00380
E00380
E00380
E00380
E00780
E00700
E00F00
F01E00
703C00
78F800
3FF000
1FC000
ENDCHAR
STARTCHAR uni1EE1
ENCODING 7905
SWIDTH 611 0
DWIDTH 14 0
BBX 18 18 2 0
BITMAP
01E600
03FE00
033C00
000000
03C3C0
0FF3C0
1E70C0
383B80
703E00
703800
E03800
E03800
E07000
E07000
E0E000
73C000
7F8000
1E0000
ENDCHAR
STARTCHAR uni1EE2
ENCODING 7906
SWIDTH 778 0
DWIDTH 19 0
BBX 21 22 3 -3
BITMAP
01FC78
07FE78
0F8F18
1E0770
3807C0
780380
700380
F00380
E00380
E00380
E00380
E00780
E00700
E00F00
F01E00
703C00
78F800
3FF000
1FC000
000000
01C000
01C000
ENDCHAR
STARTCHAR uni1EE3
ENCODING 7907
SWIDTH 611 0
DWIDTH 14 0
BBX 18 17 2 -3
BITMAP
03C3C0
0FF3C0
1E70C0
383B80
703E00
703800
E03800
E03800
E07000
E07000
E0E000
73C000
7F8000
1E0000
000000
070000
070000
ENDCHAR
STARTCHAR uni1EE4
ENCODING 7908
SWIDTH 722 0
DWIDTH 19 0
BBX 18 22 3 -3
BITMAP
1C01C0
1C01C0
1C01C0
1C01C0
380380
380380
380380
380380
700700
700700
700700
700F00
E00E00
E01E00
E01C00
F03C00
78F800
7FF000
1FC000
000000
038000
038000
ENDCHAR
STARTCHAR uni1EE5
ENCODING 7909
SWIDTH 611 0
DWIDTH 15 0
BBX 13 17 3 -3
BITMAP
3838
3838
3838
7070
7070
7070
7070
E0E0
E0E0
E1E0
E3E0
E7C0
7DC0
39C0
0000
0E00
0E00
ENDCHAR
STARTCHAR uni1EE8
ENCODING 7912
SWIDTH 722 0
DWIDTH 19 0
BBX 22 24 3 0
BITMAP
000700
000E00
001C00
003800
000000
1C01FC
1C01FC
1C01CC
1C01F8
3803E0
380380
380380
380380
700700
700700
700700
700F00
E00E00
E01E00
E01C00
F03C00
78F800
7FF000
1FC000
ENDCHAR
STARTCHAR uni1EE9
ENCODING 7913
SWIDTH 611 0
DWIDTH 15 0
BBX 18 19 3 0
BITMAP
001C00
003800
007000
00E000
000000
383BC0
383BC0
3838C0
707380
707E00
707000
707000
E0E000
E0E000
E1E000
E3E000
E7C000
7DC000
39C000
ENDCHAR
STARTCHAR uni1EEA
ENCODING 7914
SWIDTH 722 0
DWIDTH 19 0
BBX 22 24 3 0
BITMAP
007000
003800
001C00
000E00
000000
1C01FC
1C01FC
1C01CC
1C01F8
3803E0
380380
380380
380380
700700
700700
700700
700F00
E00E00
E01E00
E01C00
F03C00
78F800
7FF000
1FC000
ENDCHAR
STARTCHAR uni1EEB
ENCODING 7915
SWIDTH 611 0
DWIDTH 15 0
BBX 18 19 3 0
BITMAP
038000
01C000
00E000
007000
000000
383BC0
383BC0
3838C0
707380
707E00
707000
707000
E0E000
E0E000
E1E000
E3E000
E7C000
7DC000
39C000
ENDCHAR
STARTCHAR uni1EEE
ENCODING 7918
SWIDTH 722 0
DWIDTH 19 0
BBX 22 23 3 0
BITMAP
007980
00FF80
00CF00
000000
1C01FC
1C01FC
1C01CC
1C01F8
3803E0
380380
380380
380380
700700
700700
700700
700F00
E00E00
E01E00
E01C00
F03C00
78F800
7FF000
1FC000
ENDCHAR
STARTCHAR uni1EEF
ENCODING 7919
SWIDTH 611 0
DWIDTH 15 0
BBX 18 18 3 0
BITMAP
01E600
03FE00
033C00
000000
383BC0
383BC0
3838C0
707380
707E00
707000
707000
E0E000
E0E000
E1E000
E3E000
E7C000
7DC000
39C000
ENDCHAR
STARTCHAR uni1EF0
ENCODING 7920
SWIDTH 722 0
DWIDTH 19 0
BBX 22 22 3 -3
BITMAP
1C01FC
1C01FC
1C01CC
1C01F8
3803E0
380380
380380
380380
700700
700700
700700
700F00
E00E00
E01E00
E01C00
F03C00
78F800
7FF000
1FC000
000000
01C000
01C000
ENDCHAR
STARTCHAR uni1EF1
ENCODING 7921
SWIDTH 611 0
DWIDTH 15 0
BBX 18 17 3 -3
BITMAP
383BC0
383BC0
3838C0
707380
707E00
707000
707000
E0E000
E0E000
E1E000
E3E000
E7C000
7DC000
39C000
000000
070000
070000
ENDCHAR
STARTCHAR Ygrave
ENCODING 7922
SWIDTH 667 0
DWIDTH 17 0
BBX 16 24 5 0
BITMAP
0E00
0700
0380
01C0
0000
E00F
E01E
E03C
7078
7070
70E0
39C0
39C0
3B80
3F00
1F00
1E00
1C00
1C00
1C00
3800
3800
3800
3800
ENDCHAR
STARTCHAR ygrave
ENCODING 7923
SWIDTH 556 0
DWIDTH 14 0
BBX 14 24 2 -5
BITMAP
1C00
0E00
0700
0380
0000
701C
701C
7038
7038
3870
3870
38E0
38E0
1DC0
1DC0
1F80
0F00
0F00
0E00
0E00
1C00
3800
F800
F000
ENDCHAR
STARTCHAR uni1EF4
ENCODING 7924
SWIDTH 667 0
DWIDTH 17 0
BBX 16 22 5 -3
BITMAP
E00F
E01E
E03C
7078
7070
70E0
39C0
39C0
3B80
3F00
1F00
1E00
1C00
1C00
1C00
3800
3800
3800
3800
0000
0E00
0E00
ENDCHAR
STARTCHAR uni1EF5
ENCODING 7925
SWIDTH 556 0
DWIDTH 14 0
BBX 14 22 2 -8
BITMAP
701C
701C
7038
7038
3870
3870
38E0
38E0
1DC0
1DC0
1F80
0F00
0F00
0E00
0E00
1C00
3800
F800
F000
0000
1C00
1C00
ENDCHAR
STARTCHAR uni1EF8
ENCODING 7928
SWIDTH 667 0
DWIDTH 17 0
BBX 16 23 5 0
BITMAP
0F30
1FF0
19E0
0000
E00F
E01E
E03C
7078
7070
70E0
39C0
39C0
3B80
3F00
1F00
1E00
1C00
1C00
1C00
3800
3800
3800
3800
ENDCHAR
STARTCHAR uni1EF9
ENCODING 7929
SWIDTH 556 0
DWIDTH 14 0
BBX 14 23 2 -5
BITMAP
0F30
1FF0
19E0
0000
701C
701C
7038
7038
3870
3870
38E0
38E0
1DC0
1DC0
1F80
0F00
0F00
0E00
0E00
1C00
3800
F800
F000
ENDCHAR
STARTCHAR uni2000
ENCODING 8192
SWIDTH 500 0
DWIDTH 13 0
BBX 1 1 0 0
BITMAP
00
ENDCHAR
STARTCHAR uni2001
ENCODING 8193
SWIDTH 1000 0
DWIDTH 25 0
BBX 1 1 0 0
BITMAP
00
ENDCHAR
STARTCHAR uni2002
ENCODING 8194
SWIDTH 500 0
DWIDTH 13 0
BBX 1 1 0 0
BITMAP
00
ENDCHAR
STARTCHAR uni2003
ENCODING 8195
SWIDTH 1000 0
DWIDTH 25 0
BBX 1 1 0 0
BITMAP
00
ENDCHAR
STARTCHAR uni2004
ENCODING 8196
SWIDTH 333 0
DWIDTH 8 0
BBX 1 1 0 0
BITMAP
00
ENDCHAR
STARTCHAR uni2005
ENCODING 8197
SWIDTH 250 0
DWIDTH 6 0
BBX 1 1 0 0
BITMAP
00
ENDCHAR
STARTCHAR uni2006
ENCODING 8198
SWIDTH 167 0
DWIDTH 4 0
BBX 1 1 0 0
BITMAP
00
ENDCHAR
STARTCHAR uni2007
ENCODING 8199
SWIDTH 556 0
DWIDTH 13 0
BBX 1 1 0 0
BITMAP
00
ENDCHAR
STARTCHAR uni2008
ENCODING 8200
SWIDTH 278 0
DWIDTH 7 0
BBX 1 1 0 0
BITMAP
00
ENDCHAR
STARTCHAR uni2009
ENCODING 8201
SWIDTH 200 0
DWIDTH 5 0
BBX 1 1 0 0
BITMAP
00
ENDCHAR
STARTCHAR uni200A
ENCODING 8202
SWIDTH 100 0
DWIDTH 3 0
BBX 1 1 0 0
BITMAP
00
ENDCHAR
STARTCHAR uni200B
ENCODING 8203
SWIDTH 0 0
DWIDTH 0 0
BBX 1 1 0 0
BITMAP
00
ENDCHAR
STARTCHAR uni2010
ENCODING 8208
SWIDTH 333 0
DWIDTH 10 0
BBX 8 2 2 6
BITMAP
FF
FF
ENDCHAR
STARTCHAR uni2011
ENCODING 8209
SWIDTH 333 0
DWIDTH 10 0
BBX 8 2 2 6
BITMAP
FF
FF
ENDCHAR
STARTCHAR figuredash
ENCODING 8210
SWIDTH 556 0
DWIDTH 14 0
BBX 14 2 1 6
BITMAP
FFFC
FFFC
ENDCHAR
STARTCHAR endash
ENCODING 8211
SWIDTH 556 0
DWIDTH 14 0
BBX 14 2 1 6
BITMAP
FFFC
FFFC
ENDCHAR
STARTCHAR emdash
ENCODING 8212
SWIDTH 1000 0
DWIDTH 25 0
BBX 25 2 1 6
BITMAP
FFFFFF80
FFFFFF80
ENDCHAR
STARTCHAR afii00208
ENCODING 8213
SWIDTH 1000 0
DWIDTH 25 0
BBX 25 2 1 6
BITMAP
FFFFFF80
FFFFFF80
ENDCHAR
STARTCHAR quoteleft
ENCODING 8216
SWIDTH 278 0
DWIDTH 7 0
BBX 6 5 4 14
BITMAP
1C
70
C0
F0
F0
ENDCHAR
STARTCHAR quoteright
ENCODING 8217
SWIDTH 278 0
DWIDTH 7 0
BBX 6 5 4 14
BITMAP
3C
3C
0C
38
E0
ENDCHAR
STARTCHAR quotesinglbase
ENCODING 8218
SWIDTH 278 0
DWIDTH 7 0
BBX 6 5 0 -3
BITMAP
3C
3C
0C
38
E0
ENDCHAR
STARTCHAR quotereversed
ENCODING 8219
SWIDTH 278 0
DWIDTH 7 0
BBX 6 5 4 14
BITMAP
F0
F0
C0
70
1C
ENDCHAR
STARTCHAR quotedblleft
ENCODING 8220
SWIDTH 500 0
DWIDTH 12 0
BBX 11 5 4 14
BITMAP
1CE0
7380
C600
F780
F780
ENDCHAR
STARTCHAR quotedblright
ENCODING 8221
SWIDTH 500 0
DWIDTH 12 0
BBX 11 5 4 14
BITMAP
3DE0
3DE0
0C60
39C0
E700
ENDCHAR
STARTCHAR quotedblbase
ENCODING 8222
SWIDTH 500 0
DWIDTH 12 0
BBX 11 5 0 -3
BITMAP
3DE0
3DE0
0C60
39C0
E700
ENDCHAR
STARTCHAR uni201F
ENCODING 8223
SWIDTH 500 0
DWIDTH 12 0
BBX 11 5 4 14
BITMAP
F780
F780
C600
7380
1CE0
ENDCHAR
STARTCHAR dagger
ENCODING 8224
SWIDTH 556 0
DWIDTH 14 0
BBX 13 24 3 -5
BITMAP
0380
0380
0380
0380
0700
FFF8
FFF8
0700
0E00
0E00
0E00
0E00
1C00
1C00
1C00
1C00
3800
3800
3800
3800
7000
7000
7000
7000
ENDCHAR
STARTCHAR daggerdbl
ENCODING 8225
SWIDTH 556 0
DWIDTH 14 0
BBX 16 24 0 -5
BITMAP
0070
0070
0070
0070
00E0
1FFF
1FFF
00E0
01C0
01C0
01C0
01C0
0380
0380
0380
0380
0700
FFF8
FFF8
0700
0E00
0E00
0E00
0E00
ENDCHAR
STARTCHAR bullet
ENCODING 8226
SWIDTH 350 0
DWIDTH 9 0
BBX 5 5 3 5
BITMAP
70
F8
F8
F8
70
ENDCHAR
STARTCHAR ellipsis
ENCODING 8230
SWIDTH 1000 0
DWIDTH 24 0
BBX 19 3 3 0
BITMAP
E0E0E0
E0E0E0
E0E0E0
ENDCHAR
STARTCHAR perthousand
ENCODING 8240
SWIDTH 1000 0
DWIDTH 24 0
BBX 23 18 1 0
BITMAP
0001C0
070380
0F8700
1D8E00
399C00
339800
373800
3E7000
1CE000
01C000
039C1C
073E3E
067676
0EE6E6
1CCECE
38DCDC
70F8F8
E07070
ENDCHAR
STARTCHAR guilsinglleft
ENCODING 8249
SWIDTH 333 0
DWIDTH 8 0
BBX 6 8 3 3
BITMAP
1C
38
70
E0
C0
E0
70
38
ENDCHAR
STARTCHAR guilsinglright
ENCODING 8250
SWIDTH 333 0
DWIDTH 8 0
BBX 6 8 2 3
BITMAP
70
38
1C
0C
1C
38
70
E0
ENDCHAR
STARTCHAR fraction
ENCODING 8260
SWIDTH 167 0
DWIDTH 8 0
BBX 13 18 -1 0
BITMAP
0018
0038
0070
0060
00E0
01C0
0180
0380
0700
0600
0E00
1C00
1800
3800
7000
6000
E000
C000
ENDCHAR
STARTCHAR oneinferior
ENCODING 8321
SWIDTH 333 0
DWIDTH 7 0
BBX 4 10 4 -5
BITMAP
30
30
F0
F0
60
60
60
C0
C0
C0
ENDCHAR
STARTCHAR twoinferior
ENCODING 8322
SWIDTH 333 0
DWIDTH 7 0
BBX 7 10 2 -5
BITMAP
1C
3E
66
06
0E
3C
70
E0
FC
FC
ENDCHAR
STARTCHAR threeinferior
ENCODING 8323
SWIDTH 333 0
DWIDTH 7 0
BBX 8 10 2 -5
BITMAP
1E
3F
63
06
1C
1E
06
C6
FC
78
ENDCHAR
STARTCHAR uni20A5
ENCODING 8357
SWIDTH 889 0
DWIDTH 21 0
BBX 19 19 2 -2
BITMAP
000600
000600
000C00
1DEFC0
1FFFE0
1E7CE0
3C78E0
3870E0
3870E0
38F0E0
70E1C0
71E1C0
71E1C0
73E1C0
E3C380
E7C380
E7C380
0C0000
0C0000
ENDCHAR
STARTCHAR uni20A6
ENCODING 8358
SWIDTH 722 0
DWIDTH 19 0
BBX 19 19 2 0
BITMAP
0E00E0
0E00E0
0F00E0
0F00E0
1F81C0
1D81C0
1FFFC0
1FFFC0
39C380
38E380
3FFF80
3FFF80
707300
707700
703700
703F00
E01E00
E01E00
E00E00
ENDCHAR
STARTCHAR uni20A9
ENCODING 8361
SWIDTH 944 0
DWIDTH 23 0
BBX 21 19 5 0
BITMAP
E07038
E07038
E07070
E0F070
E0F0E0
E0F0E0
E3FFE0
E3FFC0
E3F1C0
E37380
E7FF80
E7FF80
EE7700
7C3700
7C3E00
783E00
783C00
703800
703800
ENDCHAR
STARTCHAR Euro
ENCODING 8364
SWIDTH 722 0
DWIDTH 18 0
BBX 18 19 1 0
BITMAP
007F00
01FF80
03E3C0
0781C0
0E01C0
1E0000
7FE000
7FE000
380000
380000
FFC000
FFC000
380000
380380
3C0780
1C0F00
1E3E00
0FFC00
07F000
ENDCHAR
STARTCHAR uni20AD
ENCODING 8365
SWIDTH 722 0
DWIDTH 18 0
BBX 18 19 2 0
BITMAP
0E03C0
0E0780
0E0F00
0E1E00
1C3800
1CF000
1DE000
1FC000
FFFFC0
FFFFC0
39E000
38E000
707000
707800
703C00
701C00
E00E00
E00F00
E00700
ENDCHAR
STARTCHAR uni2103
ENCODING 8451
SWIDTH 1102 0
DWIDTH 27 0
BBX 25 19 3 0
BITMAP
0000FE00
3C03FF00
6607C780
C30F0380
C31C0380
C33C0000
66380000
3C780000
00700000
00700000
00700000
00700000
00700000
00700700
00780F00
00381E00
003C7C00
001FF800
000FE000
ENDCHAR
STARTCHAR uni2109
ENCODING 8457
SWIDTH 991 0
DWIDTH 24 0
BBX 24 19 3 0
BITMAP
000FFF
3C0FFF
660E00
C30E00
C31C00
C31C00
661C00
3C1C00
003FF8
003FF8
003800
003800
007000
007000
007000
007000
00E000
00E000
00E000
ENDCHAR
STARTCHAR trademark
ENCODING 8482
SWIDTH 1000 0
DWIDTH 23 0
BBX 21 10 4 9
BITMAP
FF3818
FF3838
183878
183CF8
183CD8
306DB0
306FB0
306730
306630
306630
ENDCHAR
STARTCHAR uni212A
ENCODING 8490
SWIDTH 722 0
DWIDTH 18 0
BBX 18 19 2 0
BITMAP
0E03C0
0E0780
0E0F00
0E1E00
1C3800
1CF000
1DE000
1FC000
3F8000
3FC000
39E000
38E000
707000
707800
703C00
701C00
E00E00
E00F00
E00700
ENDCHAR
STARTCHAR uni212B
ENCODING 8491
SWIDTH 722 0
DWIDTH 18 0
BBX 16 24 1 0
BITMAP
001E
0033
0033
0033
001E
001C
003C
007C
007C
00EE
01CE
01CE
038E
070E
070E
0E0E
0E0E
1FFE
3FFF
3807
7007
7007
E007
E007
ENDCHAR
STARTCHAR uni2132
ENCODING 8498
SWIDTH 611 0
DWIDTH 15 0
BBX 16 19 2 0
BITMAP
0007
0007
0007
000E
000E
000E
000E
001C
001C
1FFC
1FFC
0038
0038
0038
0038
0070
0070
FFF0
FFF0
ENDCHAR
STARTCHAR minus
ENCODING 8722
SWIDTH 584 0
DWIDTH 15 0
BBX 11 2 3 6
BITMAP
FFE0
FFE0
ENDCHAR
STARTCHAR fraction
ENCODING 8725
SWIDTH 167 0
DWIDTH 8 0
BBX 13 18 -1 0
BITMAP
0018
0038
0070
0060
00E0
01C0
0180
0380
0700
0600
0E00
1C00
1800
3800
7000
6000
E000
C000
ENDCHAR
STARTCHAR periodcentered
ENCODING 8729
SWIDTH 278 0
DWIDTH 7 0
BBX 3 3 4 6
BITMAP
E0
E0
E0
ENDCHAR
STARTCHAR uni2236
ENCODING 8758
SWIDTH 333 0
DWIDTH 8 0
BBX 6 14 3 0
BITMAP
1C
1C
1C
00
00
00
00
00
00
00
00
E0
E0
E0
ENDCHAR
STARTCHAR uni2259
ENCODING 8793
SWIDTH 584 0
DWIDTH 14 0
BBX 11 11 3 4
BITMAP
0E00
1F00
3B80
71C0
0000
7FE0
7FE0
0000
0000
FFC0
FFC0
ENDCHAR
STARTCHAR uni225A
ENCODING 8794
SWIDTH 584 0
DWIDTH 14 0
BBX 11 11 3 4
BITMAP
71C0
3B80
1F00
0E00
0000
7FE0
7FE0
0000
0000
FFC0
FFC0
ENDCHAR
STARTCHAR notequal
ENCODING 8800
SWIDTH 584 0
DWIDTH 14 0
BBX 11 19 3 -2
BITMAP
0060
0060
00C0
00C0
0180
0180
0300
7FE0
7FE0
0C00
0C00
FFC0
FFC0
3000
3000
6000
6000
C000
C000
ENDCHAR
STARTCHAR equivalence
ENCODING 8801
SWIDTH 584 0
DWIDTH 14 0
BBX 11 8 0 3
BITMAP
FFE0
FFE0
0000
FFE0
FFE0
0000
FFE0
FFE0
ENDCHAR
STARTCHAR uni2262
ENCODING 8802
SWIDTH 584 0
DWIDTH 14 0
BBX 11 19 0 -2
BITMAP
0060
0060
00C0
00C0
0180
0180
FFE0
FFE0
0600
FFE0
FFE0
1800
FFE0
FFE0
3000
6000
6000
C000
C000
ENDCHAR
STARTCHAR lessequal
ENCODING 8804
SWIDTH 584 0
DWIDTH 15 0
BBX 14 14 3 -1
BITMAP
001C
0078
01E0
0780
1E00
7800
E000
7800
1E00
0780
01C0
0000
FFFC
FFFC
ENDCHAR
STARTCHAR greaterequal
ENCODING 8805
SWIDTH 584 0
DWIDTH 15 0
BBX 14 14 0 -1
BITMAP
0E00
0780
01E0
0078
001C
0078
01E0
0780
1E00
7800
E000
0000
FFFC
FFFC
ENDCHAR
STARTCHAR uni226E
ENCODING 8814
SWIDTH 584 0
DWIDTH 15 0
BBX 14 19 3 -2
BITMAP
0018
0018
0030
0030
007C
0078
01E0
0780
1F80
7B00
E300
7E00
1E00
0F80
0DC0
1800
1800
3000
3000
ENDCHAR
STARTCHAR uni226F
ENCODING 8815
SWIDTH 584 0
DWIDTH 15 0
BBX 14 19 0 -2
BITMAP
0018
0018
0030
0030
0E60
07E0
01E0
01F8
019C
0378
03E0
0780
1E00
7C00
EC00
1800
1800
3000
3000
ENDCHAR
STARTCHAR uni2270
ENCODING 8816
SWIDTH 584 0
DWIDTH 15 0
BBX 14 19 3 -3
BITMAP
0018
0018
0030
003C
0078
01E0
07C0
1F80
7980
E300
7B00
1E00
0780
0DC0
0C00
FFFC
FFFC
3000
3000
ENDCHAR
STARTCHAR uni2271
ENCODING 8817
SWIDTH 584 0
DWIDTH 15 0
BBX 14 19 0 -3
BITMAP
0018
0018
0030
0E30
07E0
01E0
00F8
019C
01F8
03E0
0780
1E00
7E00
EC00
0C00
FFFC
FFFC
3000
3000
ENDCHAR
STARTCHAR fi
ENCODING -1
SWIDTH 611 0
DWIDTH 14 0
BBX 14 19 2 0
BITMAP
079C
0F9C
0E1C
0E00
1C00
7F38
7F38
1C38
3870
3870
3870
3870
70E0
70E0
70E0
70E0
E1C0
E1C0
E1C0
ENDCHAR
STARTCHAR fl
ENCODING -1
SWIDTH 611 0
DWIDTH 14 0
BBX 14 19 2 0
BITMAP
079C
0F9C
0E1C
0E1C
1C38
7F38
7F38
1C38
3870
3870
3870
3870
70E0
70E0
70E0
70E0
E1C0
E1C0
E1C0
ENDCHAR
ENDFONT
